<svg width="30" height="20" viewBox="0 0 30 20" fill="none" xmlns="http://www.w3.org/2000/svg">
<path d="M2.57143 8.75H3.11384C4.10625 10.957 6.36429 12.5 9 12.5C11.6357 12.5 13.8938 10.957 14.8862 8.75H15.4286C15.7821 8.75 16.0714 8.46875 16.0714 8.125V4.375C16.0714 4.03125 15.7821 3.75 15.4286 3.75H14.8862C13.8938 1.54297 11.6357 0 9 0C6.36429 0 4.10625 1.54297 3.11384 3.75H2.57143C2.21786 3.75 1.92857 4.03125 1.92857 4.375V8.125C1.92857 8.46875 2.21786 8.75 2.57143 8.75ZM4.17857 5.3125C4.17857 4.44922 5.04241 3.75 6.10714 3.75H11.8929C12.9576 3.75 13.8214 4.44922 13.8214 5.3125V6.25C13.8214 8.32031 12.0938 10 9.96429 10H8.03571C5.90625 10 4.17857 8.32031 4.17857 6.25V5.3125ZM7.07143 8.125L7.55357 6.71875L9 6.25L7.55357 5.78125L7.07143 4.375L6.58929 5.78125L5.14286 6.25L6.58929 6.71875L7.07143 8.125ZM13.1625 12.5547C11.9612 13.3086 10.5348 13.75 9 13.75C7.46518 13.75 6.03884 13.3086 4.8375 12.5547C2.12545 12.832 0 15.0391 0 17.75V18.125C0 19.1602 0.863839 20 1.92857 20H5.14286V17.5C5.14286 16.8086 5.71741 16.25 6.42857 16.25H11.5714C12.2826 16.25 12.8571 16.8086 12.8571 17.5V20H16.0714C17.1362 20 18 19.1602 18 18.125V17.75C18 15.0391 15.8746 12.832 13.1625 12.5547ZM10.9286 17.5C10.575 17.5 10.2857 17.7812 10.2857 18.125C10.2857 18.4688 10.575 18.75 10.9286 18.75C11.2821 18.75 11.5714 18.4688 11.5714 18.125C11.5714 17.7812 11.2821 17.5 10.9286 17.5ZM7.07143 17.5C6.71786 17.5 6.42857 17.7812 6.42857 18.125V20H7.71429V18.125C7.71429 17.7812 7.425 17.5 7.07143 17.5Z" fill="#FFFDF4"/>
<line x1="22.5" y1="1" x2="22.5" y2="7" stroke="#FFFDF4" stroke-width="2" stroke-linecap="round"/>
<line x1="25.5" y1="4" x2="19.5" y2="4" stroke="#FFFDF4" stroke-width="2" stroke-linecap="round"/>
</svg>
