<svg width="17" height="17" viewBox="0 0 17 17" fill="none" xmlns="http://www.w3.org/2000/svg">
<path d="M2.83341 12.75H4.25008V15.6407L7.86329 12.75H11.3334C12.1147 12.75 12.7501 12.1146 12.7501 11.3333V5.66667C12.7501 4.88537 12.1147 4.25 11.3334 4.25H2.83341C2.05212 4.25 1.41675 4.88537 1.41675 5.66667V11.3333C1.41675 12.1146 2.05212 12.75 2.83341 12.75Z" fill="#CAC197"/>
<path d="M14.1667 1.4165H5.66667C4.88538 1.4165 4.25 2.05188 4.25 2.83317H12.75C13.5313 2.83317 14.1667 3.46855 14.1667 4.24984V9.9165C14.948 9.9165 15.5833 9.28113 15.5833 8.49984V2.83317C15.5833 2.05188 14.948 1.4165 14.1667 1.4165Z" fill="#CAC197"/>
</svg>
