<svg width="103" height="103" viewBox="0 0 103 103" fill="none" xmlns="http://www.w3.org/2000/svg">
<path fill-rule="evenodd" clip-rule="evenodd" d="M28.3636 8.63912C34.7978 3.09087 43.0041 0.0266417 51.5 0C68.8169 0 83.1918 12.875 84.7561 29.4773C95.0046 30.9258 103 39.5069 103 50.0387C103 61.6004 93.3566 70.8125 81.6726 70.8125H64.375C63.5213 70.8125 62.7026 70.4734 62.099 69.8698C61.4954 69.2661 61.1562 68.4474 61.1562 67.5938C61.1562 66.7401 61.4954 65.9214 62.099 65.3177C62.7026 64.7141 63.5213 64.375 64.375 64.375H81.679C89.9898 64.375 96.5625 57.8602 96.5625 50.0387C96.5625 42.2107 89.9963 35.6959 81.6726 35.6959H78.4538V32.4772C78.4603 18.1859 66.4865 6.4375 51.5 6.4375C44.5467 6.46528 37.8322 8.97667 32.5673 13.5187C27.6941 17.716 25.1449 22.7759 25.1449 26.7478V29.6318L22.2802 29.9473C13.287 30.9322 6.4375 38.316 6.4375 47.1096C6.4375 56.5534 14.3556 64.375 24.3402 64.375H38.625C39.4787 64.375 40.2974 64.7141 40.901 65.3177C41.5046 65.9214 41.8438 66.7401 41.8438 67.5938C41.8438 68.4474 41.5046 69.2661 40.901 69.8698C40.2974 70.4734 39.4787 70.8125 38.625 70.8125H24.3402C10.9952 70.8125 0 60.2936 0 47.1096C0 35.7603 8.14987 26.3616 18.9391 23.9797C19.8597 18.4241 23.4325 12.8879 28.3636 8.63912Z" fill="#B7B091"/>
<path fill-rule="evenodd" clip-rule="evenodd" d="M49.2213 26.69C49.5203 26.3903 49.8755 26.1524 50.2665 25.9902C50.6576 25.8279 51.0768 25.7444 51.5002 25.7444C51.9235 25.7444 52.3428 25.8279 52.7338 25.9902C53.1248 26.1524 53.48 26.3903 53.779 26.69L73.0915 46.0025C73.6959 46.6069 74.0355 47.4266 74.0355 48.2814C74.0355 49.1361 73.6959 49.9559 73.0915 50.5603C72.4871 51.1647 71.6674 51.5042 70.8127 51.5042C69.9579 51.5042 69.1382 51.1647 68.5338 50.5603L54.7189 36.7389V93.3439C54.7189 94.1976 54.3798 95.0163 53.7762 95.6199C53.1725 96.2235 52.3538 96.5626 51.5002 96.5626C50.6465 96.5626 49.8278 96.2235 49.2242 95.6199C48.6205 95.0163 48.2814 94.1976 48.2814 93.3439V36.7389L34.4665 50.5603C33.8621 51.1647 33.0424 51.5042 32.1877 51.5042C31.3329 51.5042 30.5132 51.1647 29.9088 50.5603C29.3044 49.9559 28.9648 49.1361 28.9648 48.2814C28.9648 47.4266 29.3044 46.6069 29.9088 46.0025L49.2213 26.69Z" fill="#B7B091"/>
</svg>
