<svg width="22" height="22" viewBox="0 0 22 22" fill="none" xmlns="http://www.w3.org/2000/svg">
<path fill-rule="evenodd" clip-rule="evenodd" d="M10.6094 21.2161C16.4677 21.2161 21.2168 16.467 21.2168 10.6087C21.2168 4.75038 16.4677 0.00128174 10.6094 0.00128174C4.75105 0.00128174 0.00195312 4.75038 0.00195312 10.6087C0.00195312 16.467 4.75105 21.2161 10.6094 21.2161ZM12.5026 5.305C13.4497 5.47733 14.359 5.77558 15.1988 6.18651C15.2114 6.18651 15.2177 6.19314 15.224 6.19977C16.7204 8.51291 17.4592 11.1177 17.1814 14.1201C17.1814 14.1334 17.1751 14.1466 17.1624 14.1532C16.0259 15.0281 14.9336 15.5584 13.8475 15.9096C13.8286 15.9163 13.8096 15.9096 13.7907 15.903C13.5445 15.5385 13.3171 15.1541 13.1151 14.7498C13.1088 14.7299 13.1151 14.6967 13.1404 14.6901C13.5003 14.5443 13.8475 14.3786 14.1759 14.1731C14.2074 14.1599 14.2074 14.1201 14.1822 14.1002C14.1475 14.0704 14.1127 14.0422 14.078 14.0141C14.0433 13.9859 14.0085 13.9577 13.9738 13.9279C13.9612 13.9146 13.9422 13.9146 13.9296 13.9213C11.7828 14.9619 9.44028 14.9619 7.26823 13.9213C7.2556 13.9146 7.23666 13.9146 7.22403 13.9279C7.1893 13.9544 7.15458 13.9826 7.11985 14.0107C7.08512 14.0389 7.05039 14.0671 7.01566 14.0936C6.99672 14.1135 6.99672 14.1532 7.02198 14.1665C7.35663 14.3653 7.69759 14.5377 8.05749 14.6835C8.08275 14.6901 8.09538 14.7166 8.08275 14.7431C7.88701 15.1474 7.6597 15.5318 7.40714 15.8964C7.40083 15.9096 7.38188 15.9163 7.36294 15.9096C6.28323 15.5584 5.19089 15.0281 4.05435 14.1532C4.04172 14.1466 4.0354 14.1334 4.0354 14.1201C3.80178 11.522 4.27534 8.89732 5.99278 6.19977C5.99909 6.19314 6.00541 6.18651 6.01172 6.18651C6.85781 5.77558 7.76073 5.47733 8.70785 5.305C8.72679 5.305 8.74573 5.31163 8.75204 5.32489C8.87201 5.54361 9.00461 5.82198 9.09301 6.04733C10.0976 5.88826 11.1192 5.88826 12.1238 6.04733C12.2122 5.82861 12.3448 5.54361 12.4584 5.32489C12.464 5.31838 12.4708 5.31323 12.4784 5.3098C12.4861 5.30636 12.4943 5.30472 12.5026 5.305ZM7.21772 11.1309C7.21772 11.9064 7.76073 12.536 8.41108 12.536C9.07406 12.536 9.60445 11.9064 9.60445 11.1309C9.61076 10.3621 9.08038 9.72581 8.41108 9.72581C7.7481 9.72581 7.21772 10.3555 7.21772 11.1309ZM11.6187 11.1309C11.6187 11.9064 12.1617 12.536 12.812 12.536C13.4813 12.536 14.0054 11.9064 14.0054 11.1309C14.0117 10.3621 13.4813 9.72581 12.812 9.72581C12.149 9.72581 11.6187 10.3555 11.6187 11.1309Z" fill="#FFFCED"/>
</svg>
