<svg width="95" height="147" viewBox="0 0 95 147" fill="none" xmlns="http://www.w3.org/2000/svg">
<path d="M78.4794 24.4733C78.2542 25.2871 78.0769 26.1133 77.9484 26.9478C77.8842 27.6899 77.7707 28.3294 77.6615 28.9475C77.3725 30.5772 77.1005 32.1171 77.912 35.0278C76.9614 33.6024 76.2827 32.0137 75.9101 30.3419C75.6125 29.0972 75.195 27.4354 74.6254 25.6239C74.6618 25.4828 74.6982 25.3352 74.7368 25.1812C75.3363 22.8286 76.3362 18.8784 76.4796 15.1293C76.6509 10.5845 75.5161 7.51119 73.1095 5.98842C72.5696 5.66328 71.962 5.46675 71.3337 5.41408C70.7054 5.36141 70.0735 5.45402 69.4868 5.68473L69.3155 5.75103C69.2021 5.79594 69.0907 5.84727 68.9815 5.90074C68.8873 5.94565 68.7953 5.99698 68.7032 6.05045C67.8892 6.53151 67.194 7.18937 66.6692 7.97529C66.6285 8.03303 66.5878 8.09291 66.5493 8.1528C66.3068 8.51609 66.092 8.89715 65.9069 9.29273C65.8791 9.35048 65.8513 9.41036 65.8256 9.47024C65.8149 9.49163 65.8063 9.51302 65.7977 9.53227C65.7378 9.66487 65.6821 9.79961 65.6286 9.93862C65.543 10.1525 65.4595 10.3899 65.3845 10.6251C64.6012 9.96387 63.7743 9.35582 62.9094 8.8051C63.2535 7.22304 63.9332 5.73308 64.9028 4.43572C65.71 3.37421 66.7501 2.51162 67.9431 1.91418C70.0371 0.870489 72.525 0.750721 74.4392 1.59979C78.1818 3.26157 80.143 6.85888 80.2651 12.2933C80.3678 16.7975 79.186 21.601 78.4794 24.4733Z" fill="#F99B1F"/>
<path d="M47.5 37.6926C42.1986 37.6926 37.9015 40.2377 37.9015 43.3773C37.9015 46.517 42.1986 49.0642 47.5 49.0642H47.8254C52.979 48.9636 57.1006 46.4571 57.1006 43.3816C57.1006 40.2377 52.8034 37.6926 47.5 37.6926ZM47.5 37.6926C42.1986 37.6926 37.9015 40.2377 37.9015 43.3773C37.9015 46.517 42.1986 49.0642 47.5 49.0642H47.8254C52.979 48.9636 57.1006 46.4571 57.1006 43.3816C57.1006 40.2377 52.8034 37.6926 47.5 37.6926Z" fill="#FFDCB3"/>
<path d="M32.1463 8.80297L32.1227 8.81794C31.251 9.37398 30.417 9.98699 29.6262 10.653V10.653L29.6048 10.6701L29.5834 10.6893C24.5882 14.9197 21.9654 20.7006 20.4238 25.5726L20.4088 25.6196C20.4088 25.6368 20.4088 25.6517 20.3939 25.6688C19.8543 27.3798 19.4496 28.971 19.1199 30.3419C18.7379 32.0682 18.0254 33.7044 17.0216 35.1604V35.1604C17.0067 35.184 16.9895 35.2053 16.9724 35.2289L16.951 35.3016L17.0431 35.169C18.0458 33.7074 18.7588 32.0673 19.1435 30.3376C19.4389 29.1143 19.8457 27.4867 20.4046 25.7073C20.4046 25.6774 20.4238 25.6475 20.4324 25.6175C22.505 19.0559 25.5003 14.1797 29.5898 10.7107L29.6198 10.685L29.6348 10.6722C30.4254 10.0029 31.261 9.38837 32.1356 8.83291H32.1506L32.1463 8.80297ZM38.7644 34.3413C37.5953 32.055 35.966 30.667 34.054 30.327C31.9557 29.957 29.5941 30.8723 27.3995 32.9062C27.3945 32.9114 27.3917 32.9183 27.3917 32.9255C27.3917 32.9327 27.3945 32.9396 27.3995 32.9447C27.4019 32.9471 27.4047 32.949 27.4078 32.9503C27.411 32.9516 27.4143 32.9523 27.4177 32.9523C27.4211 32.9523 27.4244 32.9516 27.4275 32.9503C27.4307 32.949 27.4335 32.9471 27.4359 32.9447C29.6177 30.9215 31.9643 30.0104 34.0454 30.3783C35.9424 30.7141 37.5568 32.0892 38.7194 34.3627C38.7212 34.3674 38.7245 34.3714 38.7287 34.374C38.733 34.3767 38.738 34.378 38.743 34.3777H38.7537C38.7597 34.3741 38.7642 34.3683 38.7662 34.3616C38.7682 34.3548 38.7675 34.3476 38.7644 34.3413V34.3413ZM68.3777 56.1348C71.0091 53.8955 71.7264 49.6588 71.0841 46.6239C70.5638 44.1751 69.2085 42.4641 67.3693 41.9316C65.2453 41.3156 62.9308 41.9316 61.1816 43.5977C59.0512 45.6166 58.1626 48.7306 58.8585 51.7483C55.255 51.5173 51.3433 52.176 47.8512 53.271V49.0856C50.3412 49.0343 52.6686 48.4183 54.4072 47.3575C56.1457 46.2967 57.1263 44.8723 57.1263 43.3774C57.1263 40.227 52.8056 37.6649 47.4914 37.6649C42.1773 37.6649 37.8673 40.2313 37.8673 43.3774C37.8673 46.5234 42.1837 49.092 47.4914 49.092C47.5921 49.092 47.6927 49.092 47.7912 49.092V53.2903C43.4833 54.6441 39.8221 56.6545 38.182 58.4531C38.177 58.4583 38.1743 58.4652 38.1743 58.4724C38.1743 58.4796 38.177 58.4865 38.182 58.4916C38.1875 58.4938 38.1936 58.4938 38.1991 58.4916C38.2022 58.493 38.2054 58.4937 38.2088 58.4937C38.2121 58.4937 38.2154 58.493 38.2184 58.4916C39.8563 56.6972 43.5133 54.689 47.8148 53.3373C51.3176 52.238 55.2486 51.5708 58.8649 51.8082H58.8799C59.4173 51.8424 59.9504 51.898 60.4707 51.975C61.8127 52.1606 63.1226 52.5305 64.3632 53.0743C64.8268 53.2817 65.2753 53.5211 65.7057 53.7907C67.2778 54.7696 68.5341 56.1805 69.3241 57.8543C69.3251 57.8583 69.327 57.862 69.3296 57.8652C69.3322 57.8683 69.3355 57.8709 69.3393 57.8726C69.343 57.8744 69.3471 57.8753 69.3512 57.8753C69.3553 57.8752 69.3594 57.8743 69.3631 57.8725C69.3668 57.8708 69.3701 57.8682 69.3727 57.865C69.3753 57.8618 69.3771 57.8581 69.3781 57.8541C69.3791 57.8501 69.3792 57.8459 69.3784 57.8419C69.3775 57.8379 69.3758 57.8341 69.3734 57.8308C69.1006 57.2328 68.767 56.6645 68.3777 56.1348V56.1348ZM47.5 49.0642C42.1987 49.0642 37.9015 46.517 37.9015 43.3774C37.9015 40.2377 42.1987 37.6927 47.5 37.6927C52.8013 37.6927 57.1006 40.2377 57.1006 43.3774C57.1001 43.5679 57.0844 43.7582 57.0535 43.9463C57.0316 44.0738 57.003 44.2002 56.9679 44.3248C56.9251 44.4762 56.8729 44.6248 56.8116 44.7697C56.7731 44.8595 56.7324 44.945 56.6874 45.0327C56.4465 45.4918 56.1351 45.9103 55.7646 46.2732C55.6897 46.348 55.6104 46.4229 55.5291 46.487C54.9891 46.9663 54.3879 47.3719 53.7413 47.6933C53.6257 47.7532 53.51 47.8088 53.3901 47.8622C53.176 47.9606 52.9619 48.0526 52.7478 48.136C52.4695 48.2451 52.1826 48.3499 51.8914 48.4333C51.8122 48.4589 51.7329 48.4825 51.6516 48.5017C51.2819 48.6086 50.8993 48.6999 50.504 48.7755C50.3926 48.799 50.2898 48.8182 50.1699 48.8375L49.7417 48.9038C49.6518 48.9166 49.5619 48.9295 49.472 48.938L49.2578 48.9637C48.9495 48.9979 48.6348 49.0214 48.3179 49.0364C48.168 49.0364 48.0182 49.0492 47.8661 49.0535H47.8126L47.5 49.0642ZM65.7571 53.7351C65.3305 53.4673 64.8855 53.23 64.4253 53.0251L66.0697 47.6377C66.0706 47.6344 66.071 47.6311 66.0707 47.6277C66.0703 47.6243 66.0693 47.6211 66.0678 47.6181C66.0662 47.6151 66.064 47.6125 66.0614 47.6103C66.0588 47.6082 66.0558 47.6066 66.0525 47.6056C66.0457 47.604 66.0386 47.6048 66.0323 47.608C66.026 47.6111 66.0211 47.6163 66.0183 47.6227L64.3761 53.0016C63.1397 52.4627 61.8349 52.0964 60.4985 51.913C59.9804 51.836 59.4516 51.7804 58.9163 51.7461C58.2204 48.7519 59.1004 45.6423 61.2201 43.6319C62.9565 41.9851 65.2496 41.367 67.3564 41.9786C69.1764 42.5069 70.5167 44.2008 71.0348 46.6303C71.6772 49.6523 70.9599 53.8677 68.3456 56.092C67.6333 55.1558 66.7561 54.3571 65.7571 53.7351V53.7351ZM67.6048 32.9062C65.4102 30.8723 63.0486 29.957 60.9503 30.327C59.0362 30.667 57.4068 32.055 56.2399 34.3413C56.2356 34.3464 56.2332 34.3528 56.2332 34.3595C56.2332 34.3662 56.2356 34.3726 56.2399 34.3777H56.2528C56.2578 34.378 56.2628 34.3767 56.267 34.374C56.2712 34.3714 56.2745 34.3674 56.2763 34.3627C57.4389 32.0914 59.0597 30.7141 60.9503 30.3783C63.0293 30.0104 65.3781 30.9215 67.5599 32.9447C67.5622 32.9471 67.5651 32.949 67.5682 32.9503C67.5713 32.9516 67.5747 32.9523 67.578 32.9523C67.5814 32.9523 67.5848 32.9516 67.5879 32.9503C67.591 32.949 67.5939 32.9471 67.5962 32.9447C67.5993 32.9428 67.602 32.9402 67.6041 32.9372C67.6063 32.9342 67.6077 32.9308 67.6085 32.9273C67.6093 32.9237 67.6094 32.92 67.6088 32.9164C67.6081 32.9128 67.6068 32.9093 67.6048 32.9062V32.9062ZM73.996 64.8992C70.5831 67.3395 66.3972 69.3648 61.8881 70.7507C52.5204 73.648 42.4946 73.648 33.1269 70.7507C28.6178 69.3648 24.4319 67.3395 21.0191 64.8992L20.8285 64.7944L21.0062 64.9227C27.8577 69.8418 37.621 72.9557 47.5107 72.9557C57.4004 72.9557 67.1573 69.8332 74.0174 64.9227L74.2101 64.7837L73.996 64.8992ZM78.0298 35.2353C78.0126 35.2139 77.9976 35.1904 77.9827 35.169C76.978 33.7095 76.2655 32.0696 75.8844 30.3398C75.5547 28.9667 75.1521 27.3755 74.6104 25.6646L74.5955 25.6175L74.5805 25.5705C73.0367 20.6985 70.4161 14.9197 65.4209 10.6893L65.3995 10.6701L65.3781 10.653C64.5878 9.98632 63.7538 9.37327 62.8816 8.81794L62.858 8.80297V8.82222L62.873 8.83291C63.7513 9.3947 64.5898 10.0164 65.3824 10.6936L65.4123 10.7193C69.5018 14.184 72.4951 19.0602 74.5698 25.6282C74.5698 25.6581 74.589 25.6859 74.5976 25.7159C75.1564 27.4932 75.5632 29.1207 75.8587 30.3483C76.243 32.0805 76.9568 33.7229 77.9613 35.1861L78.0533 35.3187L78.0298 35.2353Z" stroke="#092733" stroke-width="2" stroke-miterlimit="10" stroke-linecap="round"/>
<path d="M82.8344 42.9881C81.7917 38.9994 79.7469 37.682 78.0276 35.2353L78.0512 35.3144L77.9591 35.1818C76.9556 33.718 76.242 32.0759 75.8566 30.344C75.5611 29.1164 75.1543 27.4889 74.5955 25.7116L74.5698 25.6239C72.4929 19.0581 69.4997 14.1797 65.4102 10.715L65.3802 10.6893C64.5853 10.0148 63.7447 9.39596 62.8645 8.83716H62.8495V8.81791C58.9955 6.36695 54.0089 4.78003 47.4915 4.78003C40.974 4.78003 35.9831 6.36695 32.1356 8.81578V8.83503L32.1206 8.84572C31.246 9.40118 30.4105 10.0157 29.6198 10.685L29.6048 10.6978L29.5749 10.7235C25.4854 14.1925 22.49 19.0645 20.4196 25.6282C20.4196 25.6581 20.4003 25.6881 20.3917 25.718C19.8329 27.4974 19.4261 29.125 19.1306 30.3483C18.7459 32.078 18.0329 33.718 17.0302 35.1797L16.9382 35.3123L16.9596 35.2395C15.2467 37.6884 13.1955 39.0015 12.1507 42.9881C12.3491 43.2561 12.5589 43.5235 12.7802 43.7901C13.8957 41.1681 15.5379 39.919 16.9596 37.8958L16.9382 37.9685L17.0302 37.8359C18.0329 36.3743 18.7459 34.7343 19.1306 33.0046C19.4261 31.7813 19.8329 30.1537 20.3917 28.3743C20.3917 28.3443 20.411 28.3144 20.4196 28.2845C22.49 21.725 25.4854 16.8488 29.5749 13.3798L29.6048 13.3541L29.6198 13.3413C30.4105 12.672 31.246 12.0575 32.1206 11.502H32.1356V11.4827C35.9895 9.03392 40.9761 7.447 47.4915 7.447C54.0068 7.447 59.0019 9.03393 62.8495 11.4849V11.5041L62.8645 11.5148C63.7447 12.0736 64.5853 12.6925 65.3802 13.367L65.4102 13.3926C69.4997 16.8573 72.4929 21.7336 74.5698 28.3016L74.5955 28.3893C75.1543 30.1665 75.5611 31.7941 75.8566 33.0217C76.242 34.7535 76.9556 36.3957 77.9591 37.8595L78.0512 37.9921L78.0276 37.9129C79.4493 39.9362 81.0915 41.1852 82.207 43.8115C82.4254 43.532 82.6345 43.2576 82.8344 42.9881Z" fill="#F99B1F"/>
<path opacity="0.25" d="M82.8344 42.9881C81.7917 38.9994 79.7469 37.682 78.0276 35.2353L78.0512 35.3144L77.9591 35.1818C76.9556 33.718 76.242 32.0759 75.8566 30.344C75.5611 29.1164 75.1543 27.4889 74.5955 25.7116L74.5698 25.6239C72.4929 19.0581 69.4997 14.1797 65.4102 10.715L65.3802 10.6893C64.5853 10.0148 63.7447 9.39596 62.8645 8.83716H62.8495V8.81791C58.9955 6.36695 54.0089 4.78003 47.4915 4.78003C40.974 4.78003 35.9831 6.36695 32.1356 8.81578V8.83503L32.1206 8.84572C31.246 9.40118 30.4105 10.0157 29.6198 10.685L29.6048 10.6978L29.5749 10.7235C25.4854 14.1925 22.49 19.0645 20.4196 25.6282C20.4196 25.6581 20.4003 25.6881 20.3917 25.718C19.8329 27.4974 19.4261 29.125 19.1306 30.3483C18.7459 32.078 18.0329 33.718 17.0302 35.1797L16.9382 35.3123L16.9596 35.2395C15.2467 37.6884 13.1955 39.0015 12.1507 42.9881C12.3491 43.2561 12.5589 43.5235 12.7802 43.7901C13.8957 41.1681 15.5379 39.919 16.9596 37.8958L16.9382 37.9685L17.0302 37.8359C18.0329 36.3743 18.7459 34.7343 19.1306 33.0046C19.4261 31.7813 19.8329 30.1537 20.3917 28.3743C20.3917 28.3443 20.411 28.3144 20.4196 28.2845C22.49 21.725 25.4854 16.8488 29.5749 13.3798L29.6048 13.3541L29.6198 13.3413C30.4105 12.672 31.246 12.0575 32.1206 11.502H32.1356V11.4827C35.9895 9.03392 40.9761 7.447 47.4915 7.447C54.0068 7.447 59.0019 9.03393 62.8495 11.4849V11.5041L62.8645 11.5148C63.7447 12.0736 64.5853 12.6925 65.3802 13.367L65.4102 13.3926C69.4997 16.8573 72.4929 21.7336 74.5698 28.3016L74.5955 28.3893C75.1543 30.1665 75.5611 31.7941 75.8566 33.0217C76.242 34.7535 76.9556 36.3957 77.9591 37.8595L78.0512 37.9921L78.0276 37.9129C79.4493 39.9362 81.0915 41.1852 82.207 43.8115C82.4254 43.532 82.6345 43.2576 82.8344 42.9881Z" fill="white"/>
<path d="M82.2177 43.7923C80.021 46.4742 76.865 49.0663 73.1909 49.0663C72.5586 49.0666 71.9289 48.9853 71.3174 48.8247C71.3225 48.0849 71.2508 47.3467 71.1033 46.6218C70.583 44.173 69.2277 42.462 67.3885 41.9295C65.2646 41.3135 62.9501 41.9295 61.2008 43.5955C61.1876 43.6065 61.1755 43.6187 61.1644 43.6319C59.7998 43.0658 58.3931 42.6068 56.9572 42.2588C56.0772 39.6432 52.1783 37.667 47.5171 37.667C42.856 37.667 38.9528 39.6432 38.0792 42.2588C29.3907 44.3868 26.6801 49.0663 21.8369 49.0663C18.165 49.0663 15.0069 46.4742 12.8101 43.788C13.9256 41.1659 15.5678 39.9169 16.9895 37.8937L16.9681 37.9664L17.0602 37.8338C18.0629 36.3722 18.7759 34.7322 19.1606 33.0025C19.4561 31.7791 19.8629 30.1516 20.4217 28.3722C20.4217 28.3422 20.441 28.3123 20.4495 28.2823C22.5199 21.7229 25.5153 16.8467 29.6048 13.3777L29.6348 13.352L29.6498 13.3392C30.4404 12.6699 31.276 12.0553 32.1506 11.4999H32.1655V11.4806C36.0195 9.0318 41.0061 7.44488 47.5214 7.44488C54.0367 7.44488 59.0319 9.0318 62.8794 11.4828V11.502L62.8944 11.5127C63.7747 12.0715 64.6153 12.6903 65.4102 13.3648L65.4402 13.3905C69.5296 16.8552 72.5229 21.7315 74.5997 28.2994L74.6254 28.3871C75.1842 30.1644 75.591 31.792 75.8865 33.0196C76.2719 34.7514 76.9856 36.3935 77.9891 37.8573L78.0811 37.9899L78.0576 37.9108C79.4493 39.9169 81.0915 41.1659 82.2177 43.7923Z" fill="#F99B1F"/>
<path d="M83.5259 49.4299C83.5366 55.2728 79.8861 60.6496 74.1993 64.7858L73.9852 64.9013C70.5702 67.3416 66.3844 69.3669 61.8753 70.7528C52.5076 73.6501 42.4817 73.6501 33.114 70.7528C28.6049 69.3669 24.4191 67.3309 21.0062 64.9013L20.8156 64.7965C15.1161 60.6603 11.4634 55.2793 11.4741 49.4299C11.4741 48.6343 11.4962 47.8936 11.5405 47.2078C12.0586 52.5182 15.57 57.3795 20.8156 61.1864L21.0062 61.2912C24.4234 63.7336 28.6092 65.7632 33.1183 67.1555C42.4853 70.0524 52.5104 70.0524 61.8774 67.1555C66.3865 65.7696 70.5723 63.7336 73.9874 61.304L74.2015 61.1885C79.4364 57.3837 82.9414 52.5267 83.4617 47.2249C83.5024 47.9071 83.5238 48.6343 83.5259 49.4299Z" fill="#FFDCB3"/>
<path opacity="0.25" d="M83.5259 49.4299C83.5366 55.2728 79.8861 60.6496 74.1993 64.7858L73.9852 64.9013C70.5702 67.3416 66.3844 69.3669 61.8753 70.7528C52.5076 73.6501 42.4817 73.6501 33.114 70.7528C28.6049 69.3669 24.4191 67.3309 21.0062 64.9013L20.8156 64.7965C15.1161 60.6603 11.4634 55.2793 11.4741 49.4299C11.4741 48.6343 11.4962 47.8936 11.5405 47.2078C12.0586 52.5182 15.57 57.3795 20.8156 61.1864L21.0062 61.2912C24.4234 63.7336 28.6092 65.7632 33.1183 67.1555C42.4853 70.0524 52.5104 70.0524 61.8774 67.1555C66.3865 65.7696 70.5723 63.7336 73.9874 61.304L74.2015 61.1885C79.4364 57.3837 82.9414 52.5267 83.4617 47.2249C83.5024 47.9071 83.5238 48.6343 83.5259 49.4299Z" fill="#010101"/>
<path d="M83.4595 47.2121C82.9393 52.5139 79.4343 57.3709 74.1993 61.1757L73.9852 61.2912C70.5745 63.7336 66.3887 65.7632 61.8774 67.1555C52.5097 70.0528 42.4839 70.0528 33.1162 67.1555C28.6071 65.7697 24.4212 63.7336 21.0083 61.304L20.8178 61.1992C15.5721 57.3923 12.0607 52.531 11.5426 47.2206C11.6101 45.793 11.8173 44.3754 12.1614 42.9881C14.3624 45.9331 17.7796 49.0685 21.8177 49.0685C26.6608 49.0685 29.3714 44.389 38.06 42.261C40.6293 41.6322 43.6974 41.2258 47.5 41.2258C51.3026 41.2258 54.3793 41.6322 56.9379 42.261C58.3737 42.6075 59.7804 43.0652 61.1451 43.6297C65.7656 45.5546 68.2964 48.0483 71.3067 48.8225C71.9182 48.9832 72.5479 49.0644 73.1802 49.0642C77.2183 49.0642 80.6333 45.931 82.8344 42.9881C83.181 44.3722 83.3904 45.787 83.4595 47.2121Z" fill="#FFDCB3"/>
<path d="M83.4595 47.2121C82.9393 52.5139 79.4343 57.3709 74.1993 61.1757L73.9852 61.2912C70.5745 63.7336 66.3887 65.7632 61.8774 67.1555C52.5097 70.0528 42.4839 70.0528 33.1162 67.1555C28.6071 65.7697 24.4212 63.7336 21.0083 61.304L20.8178 61.1992C15.5721 57.3923 12.0607 52.531 11.5426 47.2206C11.6101 45.793 11.8173 44.3754 12.1614 42.9881C14.3624 45.9331 17.7796 49.0685 21.8177 49.0685C26.6608 49.0685 29.3714 44.389 38.06 42.261C40.6293 41.6322 43.6974 41.2258 47.5 41.2258C51.3026 41.2258 54.3793 41.6322 56.9379 42.261C58.3737 42.6075 59.7804 43.0652 61.1451 43.6297C65.7656 45.5546 68.2964 48.0483 71.3067 48.8225C71.9182 48.9832 72.5479 49.0644 73.1802 49.0642C77.2183 49.0642 80.6333 45.931 82.8344 42.9881C83.181 44.3722 83.3904 45.787 83.4595 47.2121Z" fill="#FFDCB3"/>
<path d="M68.3435 56.0941C67.6308 55.1594 66.7536 54.3622 65.7549 53.7415C65.3284 53.4737 64.8833 53.2364 64.4232 53.0315L65.2368 50.3688C67.3093 50.1977 69.4312 49.2075 71.0991 46.9661C71.6215 49.9539 70.87 53.949 68.3435 56.0941Z" fill="#EF4F93"/>
<path d="M65.179 50.3688L64.3739 53.0037C63.1375 52.4648 61.8328 52.0985 60.4964 51.9151C59.9783 51.8381 59.4494 51.7825 58.9141 51.7483C58.639 50.5716 58.6062 49.3513 58.8178 48.1616C60.2823 49.5711 62.6932 50.557 65.179 50.3688Z" fill="#EF4F93"/>
<path opacity="0.25" d="M68.3435 56.0941C67.6308 55.1594 66.7536 54.3622 65.7549 53.7415C65.3284 53.4737 64.8833 53.2364 64.4232 53.0315L65.2368 50.3688C67.3093 50.1977 69.4312 49.2075 71.0991 46.9661C71.6215 49.9539 70.87 53.949 68.3435 56.0941Z" fill="#010101"/>
<path opacity="0.25" d="M65.179 50.3688L64.3739 53.0037C63.1375 52.4648 61.8328 52.0985 60.4964 51.9151C59.9783 51.8381 59.4494 51.7825 58.9141 51.7483C58.639 50.5716 58.6062 49.3513 58.8178 48.1616C60.2823 49.5711 62.6932 50.557 65.179 50.3688Z" fill="#010101"/>
<path d="M71.0991 46.9618C69.4312 49.2032 67.3094 50.1934 65.2368 50.3645L66.0675 47.6398C66.0689 47.6366 66.0695 47.6331 66.0693 47.6296C66.0691 47.6262 66.0682 47.6228 66.0666 47.6197C66.0649 47.6167 66.0626 47.614 66.0598 47.6119C66.057 47.6098 66.0538 47.6084 66.0504 47.6077C66.0436 47.6061 66.0364 47.607 66.0302 47.6101C66.0239 47.6132 66.019 47.6184 66.0161 47.6248L65.179 50.3688C62.6932 50.557 60.2823 49.5711 58.8178 48.1616C59.1125 46.4336 59.9537 44.8454 61.218 43.6297C62.9544 41.9829 65.2475 41.3648 67.3543 41.9765C69.1742 42.5048 70.5146 44.1986 71.0327 46.6282C71.0563 46.7415 71.0841 46.8506 71.0991 46.9618Z" fill="#EF4F93"/>
<path d="M29.5727 10.6551C25.479 14.1155 22.4815 18.9768 20.4089 25.5148L20.3211 25.1641C19.7216 22.8115 18.7217 18.8699 18.5782 15.1121C18.407 10.5952 19.5332 7.53897 21.9226 6.02477C21.9969 5.97771 22.0739 5.9328 22.1539 5.89003L22.2716 5.83014C22.353 5.78951 22.4343 5.75529 22.5157 5.72107C23.4744 5.35394 24.5352 5.35394 25.494 5.72107C26.2604 6.01026 26.9525 6.46697 27.5194 7.05776C27.6094 7.14973 27.6971 7.24597 27.7849 7.34435C27.965 7.54883 28.1337 7.76303 28.2902 7.98596C28.3159 8.02018 28.3395 8.0544 28.3609 8.08862C28.6018 8.4425 28.8164 8.81349 29.0032 9.19861C29.0246 9.24139 29.046 9.28416 29.0653 9.32907C29.2626 9.75981 29.4321 10.2027 29.5727 10.6551Z" fill="#EF4F93"/>
<path d="M32.0885 8.7987C31.9151 8.90991 31.7416 9.01257 31.5704 9.13875C30.8922 9.59697 30.2389 10.091 29.6134 10.6187C29.2471 9.40254 28.635 8.27429 27.8149 7.30374C27.7292 7.20821 27.6415 7.11411 27.5515 7.02143C27.1808 6.64223 26.7593 6.31618 26.299 6.05259C26.2069 5.99912 26.1149 5.94779 26.0207 5.90288C25.9115 5.84941 25.8066 5.79808 25.6866 5.75317L25.5154 5.68687C24.9287 5.45518 24.2963 5.36186 23.6676 5.41416C23.0389 5.46646 22.4308 5.66299 21.8905 5.98843C19.4839 7.51547 18.3513 10.5888 18.5226 15.125V15.2961C18.4947 15.8864 18.4905 16.5087 18.5226 17.1611C18.6532 20.583 19.4946 24.1482 20.0941 26.5393C19.6659 27.9893 19.3362 29.3025 19.09 30.3334C18.7833 31.6812 18.2835 32.9778 17.6062 34.1831C17.4463 34.4682 17.2743 34.7441 17.0902 35.0107C17.3235 34.2031 17.4854 33.3765 17.5741 32.5405C17.7197 31.0883 17.5334 30.0361 17.3386 28.9432C17.2294 28.323 17.1244 27.6835 17.0538 26.9414C16.9227 26.1107 16.7447 25.2881 16.5207 24.4776C15.8955 21.9432 14.902 17.9032 14.7478 13.8888C14.7264 13.3541 14.72 12.8195 14.7328 12.2933C14.8549 6.85675 16.814 3.25944 20.5587 1.5998C21.4419 1.22146 22.3941 1.03064 23.355 1.03945C24.6383 1.04309 25.9035 1.34166 27.0527 1.91205C28.2452 2.51019 29.2851 3.37266 30.093 4.43359C31.0632 5.72926 31.7436 7.21781 32.0885 8.7987Z" fill="#F99B1F"/>
<g opacity="0.25">
<path opacity="0.25" d="M17.574 32.5427C17.6307 33.0883 17.6415 33.6377 17.6062 34.1852C17.4463 34.4703 17.2743 34.7462 17.0901 35.0129C17.3235 34.2052 17.4854 33.3786 17.574 32.5427Z" fill="white"/>
<path opacity="0.25" d="M32.0884 8.79842C31.915 8.90963 31.7416 9.01229 31.5703 9.13848C31.2116 8.17989 30.7138 7.27915 30.0929 6.46509C29.2851 5.40416 28.2452 4.54169 27.0526 3.94355C25.9034 3.37316 24.6382 3.07459 23.355 3.07095C22.3923 3.0629 21.4386 3.25519 20.5544 3.63557C16.9146 5.25244 14.9598 8.70004 14.7435 13.9014C14.7221 13.3667 14.7157 12.832 14.7285 12.3059C14.8506 6.8693 16.8097 3.27199 20.5544 1.61235C21.4375 1.23402 22.3898 1.0432 23.3507 1.05201C24.6339 1.05565 25.8991 1.35422 27.0483 1.92461C28.2409 2.52275 29.2808 3.38522 30.0887 4.44615C31.0587 5.73765 31.7406 7.22169 32.0884 8.79842Z" fill="white"/>
<path opacity="0.25" d="M62.9072 8.79869C63.0807 8.9099 63.2541 9.01256 63.4254 9.13874C63.785 8.18056 64.2827 7.27994 64.9027 6.46535C65.7106 5.40442 66.7505 4.54195 67.9431 3.94381C69.0924 3.37393 70.3575 3.07539 71.6407 3.07122C72.6019 3.06376 73.5542 3.25603 74.437 3.63584C78.0768 5.2527 80.0338 8.70031 80.2479 13.9017C80.2693 13.367 80.2757 12.8323 80.2629 12.3062C80.1408 6.86957 78.1817 3.27226 74.437 1.61262C73.5551 1.22841 72.6028 1.03175 71.6407 1.03517C70.3575 1.03934 69.0924 1.33788 67.9431 1.90776C66.7505 2.5059 65.7106 3.36837 64.9027 4.4293C63.9328 5.72667 63.2523 7.21657 62.9072 8.79869Z" fill="white"/>
</g>
<path d="M31.5703 9.13875C30.8921 9.59696 30.2389 10.091 29.6134 10.6187C29.2471 9.40253 28.6349 8.27429 27.8148 7.30373C27.7292 7.2082 27.6414 7.1141 27.5515 7.02142C27.1808 6.64223 26.7593 6.31618 26.299 6.05259C26.2069 5.99912 26.1148 5.94779 26.0206 5.90288C25.9114 5.84941 25.8065 5.79808 25.6866 5.75317L25.5153 5.68687C24.9286 5.45518 24.2963 5.36185 23.6676 5.41416C23.0389 5.46646 22.4307 5.66298 21.8905 5.98843C19.4839 7.51547 18.3513 10.5888 18.5225 15.125V15.2961C18.4947 15.8864 18.4904 16.5087 18.5225 17.161C18.6531 20.583 19.4946 24.1482 20.0941 26.5393C19.6659 27.9893 19.3362 29.3025 19.0899 30.3334C18.7832 31.6812 18.2835 32.9778 17.6062 34.1831C17.6415 33.6356 17.6307 33.0862 17.574 32.5405C17.7196 31.0883 17.5334 30.0361 17.3385 28.9432C17.2293 28.323 17.1244 27.6835 17.0538 26.9414C16.9227 26.1107 16.7447 25.2881 16.5206 24.4776C15.8954 21.9432 14.902 17.9032 14.7478 13.8888C14.9641 8.69603 16.9146 5.24843 20.5544 3.63584C21.4376 3.25751 22.3898 3.06669 23.3507 3.0755C24.6339 3.07914 25.8991 3.37771 27.0483 3.9481C28.2409 4.54624 29.2808 5.40871 30.0887 6.46964C30.7107 7.28212 31.2099 8.18141 31.5703 9.13875Z" fill="#F99B1F"/>
<path d="M76.4218 15.1164C76.2827 18.8634 75.2785 22.8051 74.6811 25.1684C74.6512 25.2924 74.6233 25.41 74.5912 25.5255C74.2722 24.5246 73.936 23.5643 73.5699 22.6404C73.9035 20.8919 74.1458 19.1272 74.2957 17.3535C74.6426 12.8622 74.0452 9.7611 72.5165 8.16776C72.2243 7.84068 71.8308 7.62082 71.3989 7.54329C70.9669 7.46575 70.5214 7.53501 70.1335 7.74002C69.8411 7.88211 69.5719 8.0674 69.3348 8.28966C69.2899 8.3303 69.2449 8.37521 69.2 8.42013C69.062 8.56039 68.9319 8.70819 68.8103 8.86284L68.7096 8.9933C68.5709 9.18123 68.4429 9.37688 68.3264 9.57931C68.2921 9.63064 68.2643 9.6841 68.2322 9.73757C68.1701 9.84665 68.1123 9.95144 68.0523 10.0733C67.8929 10.385 67.75 10.7048 67.6241 11.0315C67.5984 11.0914 67.5727 11.1555 67.5492 11.2197C67.4464 11.4913 67.3522 11.7779 67.2623 12.0752C67.2409 12.15 67.2173 12.2249 67.1959 12.3019C66.6249 11.7202 66.0369 11.1705 65.4316 10.6529C65.4573 10.5802 65.4809 10.5075 65.5044 10.4391C65.528 10.3706 65.558 10.2851 65.5858 10.2081C65.695 9.90439 65.8149 9.61353 65.9455 9.33763C65.9755 9.27133 66.0076 9.20717 66.0376 9.14515C66.2023 8.80795 66.3882 8.4815 66.5943 8.16776C66.6735 8.05013 66.7527 7.93464 66.8362 7.82343L66.9604 7.65874C67.1235 7.44851 67.2987 7.24785 67.4849 7.05777C67.532 7.00858 67.5792 6.96366 67.6241 6.92089C67.7969 6.7564 67.9792 6.60215 68.1701 6.45893C68.2322 6.41188 68.2964 6.36482 68.3606 6.32205C68.7152 6.07771 69.0994 5.87936 69.504 5.73177C70.0832 5.50448 70.707 5.41346 71.327 5.46575C71.9471 5.51805 72.5468 5.71225 73.0796 6.03332C75.4669 7.54753 76.591 10.6037 76.4218 15.1164Z" fill="#EF4F93"/>
<path opacity="0.25" d="M76.4218 15.1164C76.2827 18.8634 75.2785 22.8051 74.6811 25.1684C74.6512 25.2924 74.6233 25.41 74.5912 25.5255C74.2722 24.5246 73.936 23.5643 73.5699 22.6404C73.9035 20.8919 74.1458 19.1272 74.2957 17.3535C74.6426 12.8622 74.0452 9.7611 72.5165 8.16776C72.2243 7.84068 71.8308 7.62082 71.3989 7.54329C70.9669 7.46575 70.5214 7.53501 70.1335 7.74002C69.8411 7.88211 69.5719 8.0674 69.3348 8.28966C69.2899 8.3303 69.2449 8.37521 69.2 8.42013C69.062 8.56039 68.9319 8.70819 68.8103 8.86284L68.7096 8.9933C68.5709 9.18123 68.4429 9.37688 68.3264 9.57931C68.2921 9.63064 68.2643 9.6841 68.2322 9.73757C68.1701 9.84665 68.1123 9.95144 68.0523 10.0733C67.8929 10.385 67.75 10.7048 67.6241 11.0315C67.5984 11.0914 67.5727 11.1555 67.5492 11.2197C67.4464 11.4913 67.3522 11.7779 67.2623 12.0752C67.2409 12.15 67.2173 12.2249 67.1959 12.3019C66.6249 11.7202 66.0369 11.1705 65.4316 10.6529C65.4573 10.5802 65.4809 10.5075 65.5044 10.4391C65.528 10.3706 65.558 10.2851 65.5858 10.2081C65.695 9.90439 65.8149 9.61353 65.9455 9.33763C65.9755 9.27133 66.0076 9.20717 66.0376 9.14515C66.2023 8.80795 66.3882 8.4815 66.5943 8.16776C66.6735 8.05013 66.7527 7.93464 66.8362 7.82343L66.9604 7.65874C67.1235 7.44851 67.2987 7.24785 67.4849 7.05777C67.532 7.00858 67.5792 6.96366 67.6241 6.92089C67.7969 6.7564 67.9792 6.60215 68.1701 6.45893C68.2322 6.41188 68.2964 6.36482 68.3606 6.32205C68.7152 6.07771 69.0994 5.87936 69.504 5.73177C70.0832 5.50448 70.707 5.41346 71.327 5.46575C71.9471 5.51805 72.5468 5.71225 73.0796 6.03332C75.4669 7.54753 76.591 10.6037 76.4218 15.1164Z" fill="#010101"/>
<path opacity="0.25" d="M18.5761 15.1164C18.7153 18.8634 19.7173 22.8051 20.3146 25.1684C20.3468 25.2924 20.3746 25.41 20.4046 25.5255C20.7257 24.5246 21.0619 23.5643 21.4259 22.6404C21.0982 20.8942 20.8596 19.1325 20.7107 17.3621C20.366 12.8708 20.9634 9.76965 22.4921 8.17631C22.784 7.8494 23.1771 7.62962 23.6087 7.55209C24.0403 7.47455 24.4854 7.54373 24.873 7.74856C25.1654 7.89066 25.4346 8.07595 25.6716 8.29821C25.7166 8.33885 25.7616 8.38376 25.8065 8.42867C25.9446 8.56945 26.0754 8.71722 26.1984 8.87139L26.2968 9.00185C26.4363 9.18974 26.565 9.38539 26.6822 9.58786C26.7165 9.63918 26.7443 9.69265 26.7743 9.74612C26.8364 9.85519 26.8963 9.95999 26.9563 10.0819C27.104 10.377 27.2475 10.6978 27.3845 11.04C27.4081 11.0999 27.4359 11.1641 27.4573 11.2282C27.5601 11.4999 27.6543 11.7865 27.7442 12.0837C27.7656 12.1586 27.7892 12.2334 27.8106 12.3104C28.378 11.7287 28.9625 11.1791 29.5748 10.6615C29.5492 10.5888 29.5256 10.5161 29.502 10.4476C29.4785 10.3792 29.4485 10.2936 29.4207 10.2166C29.3115 9.91294 29.1916 9.62208 29.061 9.34618C29.031 9.27988 28.9989 9.21572 28.9711 9.1537C28.8056 8.81645 28.619 8.49 28.4122 8.17631C28.333 8.05868 28.2559 7.94319 28.1724 7.83197C28.1318 7.77637 28.0889 7.72076 28.0461 7.66729C27.8804 7.45332 27.7016 7.24975 27.5108 7.05776C27.4659 7.00857 27.4166 6.96366 27.3717 6.92088C27.1996 6.75642 27.018 6.60216 26.8278 6.45892C26.7657 6.41187 26.6994 6.36482 26.6351 6.32204C26.2813 6.07775 25.8979 5.87939 25.4939 5.73176C24.9148 5.50431 24.291 5.4132 23.6709 5.4655C23.0508 5.5178 22.4511 5.71209 21.9183 6.03332C19.5289 7.54753 18.4134 10.6037 18.5761 15.1164Z" fill="#010101"/>
<path d="M74.2957 17.3535C74.149 19.1242 73.9103 20.886 73.5806 22.6319C71.9341 18.425 69.8272 15.0159 67.2023 12.3083C67.2237 12.2313 67.2472 12.1565 67.2686 12.0816C67.3586 11.7822 67.4528 11.4956 67.5555 11.2261C67.5791 11.162 67.6048 11.0978 67.6305 11.0379C67.7563 10.7113 67.8993 10.3914 68.0587 10.0798C68.1187 9.96642 68.1765 9.85306 68.2386 9.74399C68.2707 9.69052 68.2985 9.63705 68.3328 9.58572C68.4493 9.3833 68.5773 9.18765 68.716 8.99972L68.8167 8.86926C68.9383 8.71461 69.0684 8.56681 69.2063 8.42654C69.2513 8.38163 69.2963 8.33672 69.3412 8.29608C69.5783 8.07382 69.8475 7.88853 70.1398 7.74643C70.5278 7.54143 70.9733 7.47217 71.4052 7.5497C71.8372 7.62724 72.2307 7.84709 72.5229 8.17418C74.0345 9.7611 74.6318 12.8515 74.2957 17.3535Z" fill="#EF4F93"/>
<path d="M74.2957 17.3535C74.149 19.1242 73.9103 20.886 73.5806 22.6319C71.9341 18.425 69.8272 15.0159 67.2023 12.3083C67.2237 12.2313 67.2472 12.1565 67.2686 12.0816C67.3586 11.7822 67.4528 11.4956 67.5555 11.2261C67.5791 11.162 67.6048 11.0978 67.6305 11.0379C67.7563 10.7113 67.8993 10.3914 68.0587 10.0798C68.1187 9.96642 68.1765 9.85306 68.2386 9.74399C68.2707 9.69052 68.2985 9.63705 68.3328 9.58572C68.4493 9.3833 68.5773 9.18765 68.716 8.99972L68.8167 8.86926C68.9383 8.71461 69.0684 8.56681 69.2063 8.42654C69.2513 8.38163 69.2963 8.33672 69.3412 8.29608C69.5783 8.07382 69.8475 7.88853 70.1398 7.74643C70.5278 7.54143 70.9733 7.47217 71.4052 7.5497C71.8372 7.62724 72.2307 7.84709 72.5229 8.17418C74.0345 9.7611 74.6318 12.8515 74.2957 17.3535Z" fill="#EF4F93"/>
<g opacity="0.25">
<path opacity="0.25" d="M60.6227 57.2191C60.6227 58.2649 59.2224 59.1161 57.4689 59.1439H57.3576C55.5548 59.1439 54.0924 58.2777 54.0924 57.2191C54.0924 56.1604 55.5548 55.2835 57.3576 55.2835C59.1603 55.2835 60.6227 56.1497 60.6227 57.2191Z" fill="#010101"/>
</g>
<path d="M57.1006 43.3773C57.1006 46.4528 52.979 48.9594 47.8254 49.0599H47.5C42.1986 49.0599 37.9015 46.5127 37.9015 43.3731C37.9015 40.2334 42.1986 37.6884 47.5 37.6884C52.8013 37.6884 57.1006 40.2377 57.1006 43.3773Z" fill="#010101"/>
<path d="M79.1067 66.5374C79.1067 66.5994 79.1067 66.6615 79.1067 66.7256C79.0524 67.2388 78.8749 67.7313 78.5894 68.1613C78.3039 68.5913 77.9188 68.9462 77.4667 69.1958C68.3681 74.4811 58.0306 77.2653 47.5054 77.2653C36.9801 77.2653 26.6426 74.4811 17.5441 69.1958C17.1837 68.989 16.8638 68.7188 16.5999 68.3981C16.1572 67.8803 15.9089 67.2247 15.8976 66.5438C15.8942 66.0838 16.0284 65.6333 16.283 65.2499C16.336 65.1708 16.3939 65.0951 16.4564 65.0232C16.5738 65.4314 16.7734 65.8113 17.0431 66.1396C17.3006 66.4603 17.614 66.732 17.968 66.9416C26.9113 72.2238 37.1104 75.0103 47.5 75.0103C57.8897 75.0103 68.0887 72.2238 77.032 66.9416C77.7656 66.5178 78.3083 65.8288 78.5479 65.0168C78.6099 65.0891 78.6678 65.1647 78.7213 65.2435C78.9762 65.6267 79.1104 66.0774 79.1067 66.5374Z" fill="#DCDBDB"/>
<path opacity="0.25" d="M79.1067 66.5374C79.1067 66.5994 79.1067 66.6615 79.1067 66.7256C79.0524 67.2388 78.8749 67.7313 78.5894 68.1613C78.3039 68.5913 77.9188 68.9462 77.4667 69.1958C68.3681 74.4811 58.0306 77.2653 47.5054 77.2653C36.9801 77.2653 26.6426 74.4811 17.5441 69.1958C17.1837 68.989 16.8638 68.7188 16.5999 68.3981C16.1572 67.8803 15.9089 67.2247 15.8976 66.5438C15.8942 66.0838 16.0284 65.6333 16.283 65.2499C16.336 65.1708 16.3939 65.0951 16.4564 65.0232C16.5738 65.4314 16.7734 65.8113 17.0431 66.1396C17.3006 66.4603 17.614 66.732 17.968 66.9416C26.9113 72.2238 37.1104 75.0103 47.5 75.0103C57.8897 75.0103 68.0887 72.2238 77.032 66.9416C77.7656 66.5178 78.3083 65.8288 78.5479 65.0168C78.6099 65.0891 78.6678 65.1647 78.7213 65.2435C78.9762 65.6267 79.1104 66.0774 79.1067 66.5374Z" fill="#010101"/>
<path d="M78.5479 65.0168C78.3083 65.8288 77.7656 66.5179 77.032 66.9417C68.0887 72.2238 57.8896 75.0104 47.5 75.0104C37.1103 75.0104 26.9113 72.2238 17.968 66.9417C17.612 66.7339 17.2965 66.4637 17.0366 66.1439C16.7657 65.8124 16.566 65.4288 16.45 65.0168C16.7171 64.7142 17.047 64.4732 17.4167 64.3107C17.7865 64.1482 18.1872 64.0681 18.591 64.0758C19.1758 64.0787 19.7495 64.235 20.2547 64.5292C20.4688 64.6533 20.7236 64.8008 20.9762 64.9398C24.4019 67.3865 28.5856 69.414 33.099 70.8021C42.4776 73.705 52.516 73.705 61.8945 70.8021C64.1133 70.1226 66.277 69.2753 68.367 68.2677C70.3416 67.3206 72.2319 66.2073 74.0173 64.9398C74.2314 64.8265 74.4284 64.7067 74.6297 64.5934L74.7389 64.5292C75.2443 64.2358 75.818 64.0802 76.4025 64.0779C76.8069 64.0693 77.2084 64.1489 77.5789 64.311C77.9494 64.4732 78.2801 64.714 78.5479 65.0168Z" fill="#DCDBDB"/>
<path d="M78.5479 65.0168C78.3083 65.8288 77.7656 66.5179 77.032 66.9417C68.0887 72.2238 57.8896 75.0104 47.5 75.0104C37.1103 75.0104 26.9113 72.2238 17.968 66.9417C17.612 66.7339 17.2965 66.4637 17.0366 66.1439C16.7657 65.8124 16.566 65.4288 16.45 65.0168C16.7171 64.7142 17.047 64.4732 17.4167 64.3107C17.7865 64.1482 18.1872 64.0681 18.591 64.0758C19.1758 64.0787 19.7495 64.235 20.2547 64.5292C20.4688 64.6533 20.7236 64.8008 20.9762 64.9398C24.4019 67.3865 28.5856 69.414 33.099 70.8021C42.4776 73.705 52.516 73.705 61.8945 70.8021C64.1133 70.1226 66.277 69.2753 68.367 68.2677C70.3416 67.3206 72.2319 66.2073 74.0173 64.9398C74.2314 64.8265 74.4284 64.7067 74.6297 64.5934L74.7389 64.5292C75.2443 64.2358 75.818 64.0802 76.4025 64.0779C76.8069 64.0693 77.2084 64.1489 77.5789 64.311C77.9494 64.4732 78.2801 64.714 78.5479 65.0168Z" fill="#DCDBDB"/>
<path d="M50.1015 99.0223C49.9366 99.9056 49.1594 101.02 47.5086 101.262H47.4958C45.7829 101.508 44.2434 101.204 43.265 100.432C42.9706 100.207 42.7266 99.9233 42.5485 99.5989C42.3704 99.2744 42.2622 98.9163 42.2308 98.5475C42.1709 97.8867 42.522 97.275 43.2179 96.8259C43.8421 96.4397 44.5514 96.2121 45.284 96.1629C45.2895 96.165 45.2956 96.165 45.3011 96.1629H45.314C45.4724 96.1501 45.633 96.1436 45.7936 96.1436C46.9917 96.1522 48.1688 96.4579 49.2193 97.0333C49.5609 97.226 49.8312 97.5236 49.9902 97.8819C50.1491 98.2402 50.1881 98.6401 50.1015 99.0223Z" fill="#F99B1F"/>
<path d="M64.4874 103.849C63.9902 105.294 63.5861 106.769 63.2777 108.266C49.7396 112.116 34.9019 110.832 22.5628 104.756C21.7171 104.339 21.1925 103.625 21.1925 102.893C21.1925 102.563 21.3058 102.243 21.5137 101.987C21.5434 101.946 21.5763 101.908 21.6122 101.873C23.7628 103.285 26.0708 104.441 28.4893 105.319H28.5022C29.5907 105.717 30.6991 106.059 31.823 106.343L31.9536 106.375C34.5748 107.029 37.266 107.361 39.9677 107.363C41.5448 107.366 43.1198 107.245 44.6781 107.002C45.1948 106.921 45.6944 106.826 46.1768 106.717C46.1788 106.718 46.181 106.719 46.1833 106.719C46.1855 106.719 46.1877 106.718 46.1897 106.717C46.2967 106.698 46.4038 106.672 46.5044 106.647C46.8513 106.647 47.196 106.647 47.5428 106.647C53.3075 106.662 59.0343 105.717 64.4874 103.849Z" fill="#DCDBDB"/>
<path d="M37.5761 92.0502L41.6677 92.4522C41.5924 92.48 41.5125 92.4938 41.4322 92.4929H37.5783L37.5761 92.0502Z" fill="#F15729"/>
<path d="M37.5761 90.4675V87.8027H41.6741C40.7171 88.9469 39.4817 89.858 37.5761 90.4675Z" fill="#F15729"/>
<path d="M37.5226 83.1274H32.2748V87.7492H37.5226V83.1274Z" fill="#EF4F93"/>
<path d="M28.3009 83.1274H32.2212V87.7492H28.1168C27.9284 87.5353 27.7464 87.3214 27.5729 87.1076V83.8567C27.5729 83.6637 27.6496 83.4785 27.786 83.3418C27.9225 83.2051 28.1076 83.128 28.3009 83.1274Z" fill="#F99B1F"/>
<path d="M32.2705 83.074C32.2714 83.0782 32.2714 83.0826 32.2705 83.0868V83.1274H32.2169V83.0868C32.216 83.0826 32.216 83.0782 32.2169 83.074C32.2191 83.0697 32.2225 83.0662 32.2267 83.0639C32.2309 83.0616 32.2357 83.0606 32.2405 83.0611C32.2433 83.0598 32.2463 83.059 32.2494 83.0589C32.2525 83.0588 32.2556 83.0594 32.2585 83.0606C32.2613 83.0619 32.2639 83.0637 32.2659 83.066C32.268 83.0683 32.2696 83.071 32.2705 83.074Z" fill="#F99B1F"/>
<path d="M37.5761 83.1274H37.5226C37.5231 83.1208 37.5259 83.1145 37.5307 83.1098C37.5354 83.1051 37.5416 83.1023 37.5483 83.1018C37.5553 83.1017 37.5621 83.1044 37.5672 83.1091C37.5724 83.1139 37.5756 83.1204 37.5761 83.1274Z" fill="#F99B1F"/>
<path d="M42.1602 83.8567V87.7492H37.5761V83.1274H41.4301C41.6237 83.1274 41.8094 83.2043 41.9463 83.341C42.0833 83.4778 42.1602 83.6633 42.1602 83.8567Z" fill="#F99B1F"/>
<path d="M37.5226 87.8027V90.4675C36.1608 90.8952 34.4587 91.1497 32.2748 91.2225V87.8005L37.5226 87.8027Z" fill="#F99B1F"/>
<path d="M32.5445 91.5539L37.5289 92.0458V92.4928H34.1032C33.5744 92.2041 33.0498 91.8919 32.5445 91.5539Z" fill="#F99B1F"/>
<path d="M32.2212 87.8027V91.3444C31.1316 90.6041 30.1093 89.7696 29.1659 88.8506C28.8148 88.5056 28.4815 88.1563 28.166 87.8027H32.2212Z" fill="#E73227"/>
<path d="M13.8079 113.891C13.1078 115.376 12.823 117.024 12.9836 118.658C13.1784 120.435 13.9321 122.105 15.2296 123.63C13.8148 123.365 12.4247 122.982 11.0737 122.486C10.0226 121.012 9.43516 119.259 9.38653 117.449C9.3353 115.657 9.753 113.882 10.5984 112.299C12.4076 108.878 15.8098 106.878 19.743 106.878H20.0427C20.524 107.25 20.985 107.648 21.4237 108.069C18.5846 108.112 15.3195 110.599 13.8079 113.891Z" fill="white"/>
<path d="M83.9306 122.484C82.5797 122.981 81.1896 123.365 79.7747 123.63C81.6182 121.457 82.3719 118.947 81.9544 116.359C81.69 114.829 81.0785 113.381 80.1666 112.124C79.3206 110.928 78.2404 109.916 76.9913 109.149C77.3146 108.497 77.6337 107.842 77.912 107.19C79.5231 107.598 81.0096 108.395 82.2413 109.509C83.473 110.624 84.4125 112.023 84.9776 113.585C86.1124 116.66 85.7184 119.982 83.9306 122.484Z" fill="white"/>
<path d="M93.6511 112.71C93.0602 114.924 91.8948 116.943 90.2725 118.564C88.656 120.191 86.5556 121.504 84.0162 122.458C85.7783 119.954 86.1573 116.643 85.0268 113.581C84.4602 112.012 83.5177 110.605 82.2816 109.484C81.0455 108.363 79.5533 107.562 77.9355 107.149C78.8905 105.011 79.6484 102.94 80.2351 101.313C80.4817 100.645 80.7677 99.9923 81.0915 99.3581C85.7484 99.4394 89.5938 101.182 91.919 104.262C93.7796 106.754 94.4219 109.829 93.6511 112.71Z" fill="white"/>
<g opacity="0.25">
<path opacity="0.25" d="M72.6107 138.497C72.6107 140.043 69.5233 141.3 65.7271 141.3C62.8473 141.3 60.3744 140.575 59.351 139.551C60.2078 139.694 61.0751 139.765 61.9438 139.765C65.7399 139.765 68.8274 138.507 68.8274 136.961C68.8183 136.76 68.7688 136.564 68.682 136.382C68.5952 136.201 68.4728 136.039 68.3221 135.907C69.7117 136.138 70.8764 136.548 71.6386 137.068C72.2553 137.481 72.6107 137.973 72.6107 138.497Z" fill="#F99B1F"/>
</g>
<path d="M72.6128 138.849V142.169C72.6128 143.715 69.5254 144.97 65.7314 144.97C61.9374 144.97 58.8628 143.721 58.8478 142.19V138.849C59.276 140.259 62.1964 141.352 65.7292 141.352C69.262 141.352 72.1867 140.259 72.6128 138.849Z" fill="#F99B1F"/>
<g opacity="0.25">
<path opacity="0.25" d="M72.6107 138.852V142.171C72.6107 143.717 69.5232 144.973 65.7292 144.973C63.0893 144.973 60.7897 144.365 59.6357 143.475C63.2755 144.904 66.0354 143.373 67.6755 141.23C70.2876 140.924 72.2681 139.991 72.6107 138.852Z" fill="#010101"/>
</g>
<g opacity="0.25">
<path opacity="0.25" d="M24.6332 139.485C24.6332 141.031 21.5458 142.288 17.7518 142.288C14.872 142.288 12.3991 141.563 11.3735 140.539C12.2311 140.682 13.099 140.753 13.9685 140.753C17.7625 140.753 20.8499 139.495 20.8499 137.949C20.8411 137.747 20.7914 137.549 20.7038 137.366C20.6163 137.184 20.4926 137.021 20.3403 136.888C22.8583 137.305 24.6332 138.313 24.6332 139.485Z" fill="#F99B1F"/>
</g>
<path d="M24.6353 143.178C24.6204 144.72 21.5372 145.959 17.7518 145.959C13.9663 145.959 10.8703 144.703 10.8703 143.157V139.84C11.2985 141.249 14.219 142.342 17.7539 142.342C21.2888 142.342 24.2093 141.249 24.6353 139.84V143.17C24.6344 143.172 24.6344 143.175 24.6353 143.178Z" fill="#F99B1F"/>
<g opacity="0.25">
<path opacity="0.25" d="M24.6353 143.178C24.6203 144.72 21.5372 145.958 17.7517 145.958C16.8912 145.962 16.0318 145.894 15.1824 145.755C17.0974 145.14 18.7404 143.882 19.8329 142.194C22.3743 141.865 24.2863 140.945 24.6246 139.827V143.157C24.6229 143.159 24.6218 143.161 24.6214 143.164C24.6211 143.166 24.6215 143.169 24.6227 143.171C24.6238 143.173 24.6256 143.175 24.6279 143.177C24.6302 143.178 24.6328 143.178 24.6353 143.178Z" fill="#010101"/>
</g>
<path d="M34.6985 122.997C34.6985 123.639 34.1289 124.281 33.1162 124.772C31.9885 125.285 30.7813 125.6 29.547 125.705C28.9732 125.763 28.3908 125.795 27.8149 125.795C25.7594 125.795 23.8282 125.423 22.5135 124.775C22.2173 124.633 21.9373 124.459 21.6785 124.257C21.1839 123.861 20.9334 123.436 20.9334 122.989V119.65C21.0961 120.211 21.6571 120.739 22.5521 121.169C23.8731 121.795 25.7851 122.157 27.802 122.157C29.8189 122.157 31.7223 121.797 33.0434 121.173L33.0905 121.149C33.9469 120.722 34.5015 120.211 34.6685 119.665V122.989C34.6673 122.993 34.6678 122.997 34.6698 123.001C34.6719 123.004 34.6752 123.007 34.6792 123.008C34.6832 123.009 34.6874 123.009 34.691 123.007C34.6947 123.005 34.6973 123.001 34.6985 122.997Z" fill="#F99B1F"/>
<path d="M34.6963 115.621C34.6963 117.167 31.6089 118.425 27.8149 118.425C25.2798 118.425 23.0595 117.864 21.8648 117.03C22.6927 117.16 23.5297 117.225 24.3677 117.223C28.1617 117.223 31.2492 115.965 31.2492 114.419C31.2492 113.906 30.9088 113.424 30.3135 113.01L30.5276 113.044C30.6861 113.072 30.8424 113.101 30.9944 113.134C33.1869 113.602 34.6963 114.541 34.6963 115.621Z" fill="#FFDCB3"/>
<path opacity="0.25" d="M34.6963 115.621C34.6963 117.167 31.6089 118.425 27.8149 118.425C25.2798 118.425 23.0595 117.864 21.8648 117.03C22.6927 117.16 23.5297 117.225 24.3677 117.223C28.1617 117.223 31.2492 115.965 31.2492 114.419C31.2492 113.906 30.9088 113.424 30.3135 113.01L30.5276 113.044C30.6861 113.072 30.8424 113.101 30.9944 113.134C33.1869 113.602 34.6963 114.541 34.6963 115.621Z" fill="#F99B1F"/>
<path d="M31.2599 114.421C31.2599 115.967 28.1725 117.225 24.3785 117.225C23.5404 117.227 22.7035 117.162 21.8755 117.032C21.2824 116.617 20.942 116.136 20.942 115.623C20.942 114.077 24.0295 112.819 27.8256 112.819C28.2538 112.819 28.6521 112.834 29.0503 112.864C29.2066 112.864 29.3629 112.888 29.5149 112.903C29.7868 112.93 30.0502 112.965 30.3071 113.007C30.9088 113.424 31.2599 113.906 31.2599 114.421Z" fill="#FFDCB3"/>
<path d="M62.8538 113.123C62.4256 113.123 61.9973 113.123 61.5863 113.123C60.2502 113.123 58.8692 113.104 57.4432 113.386C54.8247 113.903 52.7072 114.954 51.3197 116.427C50.0351 117.792 49.442 119.481 49.654 121.186C48.637 120.805 46.6222 120.523 45.3718 120.972C45.5131 119.308 44.8836 117.663 43.5968 116.344C42.2094 114.919 40.1219 113.899 37.559 113.394C36.1352 113.112 34.7542 113.123 33.4181 113.134C32.6281 113.134 31.8123 113.134 30.9965 113.091C30.3556 112.955 29.706 112.863 29.0524 112.817C27.8004 112.532 26.6096 112.025 25.5368 111.32C24.144 110.415 22.8432 109.377 21.6528 108.219L21.5222 108.099V108.088C21.0682 107.651 20.5907 107.238 20.092 106.852C19.1619 106.163 18.1236 105.633 17.0195 105.284C17.0127 105.282 17.0054 105.283 16.999 105.286C16.9926 105.289 16.9877 105.295 16.9853 105.302C16.9839 105.305 16.9833 105.309 16.9835 105.312C16.9836 105.316 16.9846 105.319 16.9862 105.323C16.9878 105.326 16.9901 105.329 16.9929 105.331C16.9957 105.333 16.9989 105.335 17.0024 105.336C18.0769 105.674 19.0893 106.185 19.9999 106.848C15.9576 106.769 12.4376 108.803 10.5791 112.295C9.72961 113.886 9.30973 115.671 9.36087 117.473C9.40967 119.265 9.98364 121.002 11.0116 122.471C5.9073 120.546 2.57577 117.182 1.37676 112.721C0.503195 109.472 1.43885 105.984 3.87755 103.387C5.50419 101.703 7.5694 100.506 9.84047 99.9313C12.5211 99.2106 15.5615 99.1849 18.8737 99.8479C19.3105 100.211 19.7608 100.568 20.2247 100.917C20.6886 101.267 21.144 101.585 21.5908 101.871C21.5569 101.905 21.5255 101.942 21.4965 101.98C21.2815 102.247 21.1643 102.579 21.1647 102.921C21.1647 103.674 21.6999 104.405 22.5628 104.831C30.2258 108.602 38.8479 110.526 47.5279 110.526C52.8573 110.531 58.1618 109.799 63.2906 108.351C62.9429 109.917 62.7961 111.52 62.8538 113.123Z" fill="white"/>
<path d="M28.7398 112.789C28.4379 112.772 28.1274 112.764 27.8148 112.764C23.9909 112.764 20.8777 114.047 20.8777 115.621V124.233C19.0097 124.183 17.1485 123.987 15.3109 123.647C13.9963 122.118 13.2319 120.439 13.0371 118.654C12.8771 117.029 13.1605 115.391 13.8571 113.914C15.3709 110.618 18.6446 108.14 21.4794 108.125L21.6078 108.244C22.8009 109.403 24.1038 110.443 25.4982 111.35C26.492 112.005 27.5873 112.491 28.7398 112.789Z" fill="white"/>
<path d="M34.6963 115.976V119.34C34.6749 119.982 34.0925 120.623 33.0541 121.115H33.0391C31.7245 121.738 29.8275 122.095 27.8148 122.095C25.8022 122.095 23.9031 121.738 22.5884 121.115C21.5179 120.608 20.9462 119.962 20.9462 119.299C20.9472 119.296 20.9472 119.292 20.9462 119.289V115.976C21.3744 117.385 24.297 118.478 27.8298 118.478C31.3626 118.478 34.2702 117.385 34.6963 115.976Z" fill="#F99B1F"/>
<path d="M75.7409 131.182V134.444C75.7409 135.549 74.1394 136.552 71.66 137.01C70.4417 136.185 68.2343 135.633 65.7313 135.633C64.7982 135.63 63.8666 135.711 62.9479 135.874C62.3484 135.462 62.0165 134.995 61.9887 134.516V131.197C62.1536 131.738 62.691 132.252 63.541 132.671C64.8642 133.312 66.8062 133.697 68.8702 133.697C70.9342 133.697 72.8783 133.323 74.1993 132.671C75.045 132.247 75.5803 131.728 75.7409 131.182Z" fill="#F99B1F"/>
<path d="M75.7409 127.499V130.827C75.7409 131.469 75.1821 132.11 74.163 132.613C72.8505 133.255 70.9171 133.633 68.8595 133.633C66.8019 133.633 64.8706 133.261 63.556 132.613C62.5583 132.121 61.9994 131.501 61.978 130.868V127.514C62.1472 128.07 62.7103 128.584 63.6031 129.011C64.9199 129.653 66.8361 130.002 68.8595 130.002C70.8828 130.002 72.8012 129.642 74.1158 129.011C75.0151 128.59 75.5804 128.06 75.7409 127.499Z" fill="#F99B1F"/>
<path d="M75.7409 123.47C75.7409 125.016 72.6535 126.274 68.8573 126.274C67.5927 126.283 66.332 126.131 65.1061 125.82H65.089C63.9264 125.508 63.0057 125.059 62.4747 124.537C63.3316 124.68 64.1989 124.752 65.0676 124.751C68.8637 124.751 71.9512 123.493 71.9512 121.947C71.942 121.747 71.8926 121.55 71.8058 121.369C71.719 121.188 71.5966 121.026 71.4459 120.893C73.9659 121.291 75.7409 122.298 75.7409 123.47Z" fill="#FFDCB3"/>
<g opacity="0.25">
<path opacity="0.25" d="M72.6107 138.497C72.6107 140.043 69.5233 141.3 65.7271 141.3C62.8473 141.3 60.3744 140.575 59.351 139.551C60.2078 139.694 61.0751 139.765 61.9438 139.765C65.7399 139.765 68.8274 138.507 68.8274 136.961C68.8183 136.76 68.7688 136.564 68.682 136.382C68.5952 136.201 68.4728 136.039 68.3221 135.907C69.7117 136.138 70.8764 136.548 71.6386 137.068C72.2553 137.481 72.6107 137.973 72.6107 138.497Z" fill="#F99B1F"/>
</g>
<g opacity="0.25">
<path opacity="0.25" d="M24.6332 139.485C24.6332 141.031 21.5458 142.288 17.7518 142.288C14.872 142.288 12.3991 141.563 11.3735 140.539C12.2311 140.682 13.099 140.753 13.9685 140.753C17.7625 140.753 20.8499 139.495 20.8499 137.949C20.8411 137.747 20.7914 137.549 20.7038 137.366C20.6163 137.184 20.4926 137.021 20.3403 136.888C22.8583 137.305 24.6332 138.313 24.6332 139.485Z" fill="#F99B1F"/>
</g>
<g opacity="0.25">
<path opacity="0.25" d="M75.7409 123.47C75.7409 125.016 72.6535 126.274 68.8573 126.274C67.5927 126.283 66.332 126.131 65.1061 125.82H65.089C63.9264 125.508 63.0057 125.059 62.4747 124.537C63.3316 124.68 64.1989 124.752 65.0676 124.751C68.8637 124.751 71.9512 123.493 71.9512 121.947C71.942 121.747 71.8926 121.55 71.8058 121.369C71.719 121.188 71.5966 121.026 71.4459 120.893C73.9659 121.291 75.7409 122.298 75.7409 123.47Z" fill="#F99B1F"/>
</g>
<path d="M68.8274 136.955C68.8274 138.501 65.7399 139.758 61.9438 139.758C61.0751 139.759 60.2078 139.687 59.3509 139.544C59.2002 139.412 59.0778 139.25 58.991 139.069C58.9042 138.887 58.8548 138.691 58.8456 138.49C58.8456 137.35 60.5243 136.366 62.9266 135.924H62.9415C64.7202 135.615 66.5377 135.605 68.3199 135.892C68.4721 136.025 68.5955 136.188 68.6827 136.371C68.7699 136.554 68.8191 136.752 68.8274 136.955Z" fill="#FFDCB3"/>
<path d="M20.8499 137.947C20.8499 139.493 17.7625 140.751 13.9685 140.751C13.099 140.751 12.231 140.68 11.3735 140.537C11.2227 140.404 11.1003 140.242 11.0135 140.061C10.9267 139.88 10.8773 139.683 10.8682 139.482C10.8682 137.936 13.9556 136.679 17.7518 136.679C18.6205 136.678 19.4877 136.75 20.3446 136.892C20.4953 137.025 20.6177 137.187 20.7045 137.368C20.7913 137.55 20.8408 137.746 20.8499 137.947Z" fill="#FFDCB3"/>
<path d="M71.9576 121.928C71.9576 123.474 68.8702 124.732 65.074 124.732C64.2053 124.732 63.338 124.661 62.4812 124.518C62.3305 124.385 62.2081 124.223 62.1213 124.042C62.0345 123.861 61.985 123.664 61.9759 123.464C61.9759 121.917 65.0633 120.66 68.8573 120.66C69.7268 120.659 70.5948 120.731 71.4523 120.874C71.6031 121.006 71.7255 121.168 71.8123 121.349C71.8991 121.531 71.9485 121.727 71.9576 121.928Z" fill="#FFDCB3"/>
<path d="M75.7409 124.167V127.134C75.7409 127.797 75.1564 128.442 74.0944 128.951C72.7841 129.578 70.8828 129.935 68.8595 129.935C66.8362 129.935 64.9349 129.606 63.6224 128.964C62.5818 128.466 61.9973 127.837 61.9759 127.187V123.831C62.2328 124.687 63.4061 125.423 65.0762 125.87C65.0792 125.871 65.0825 125.872 65.0858 125.872C65.0891 125.872 65.0924 125.871 65.0955 125.87H65.1083C66.3329 126.183 67.5931 126.337 68.8574 126.327C72.3923 126.327 75.3149 125.234 75.7409 123.825V124.167Z" fill="#F99B1F"/>
<g opacity="0.25">
<path opacity="0.25" d="M75.7409 131.182V134.444C75.7409 135.549 74.1394 136.552 71.66 137.01C70.4417 136.185 68.2343 135.633 65.7313 135.633C64.7982 135.63 63.8666 135.711 62.9479 135.874C62.3484 135.462 62.0165 134.995 61.9887 134.516V133.635C64.603 134.803 67.0609 134.906 68.9622 133.691C70.992 133.691 72.8975 133.308 74.1993 132.664C75.045 132.247 75.5803 131.728 75.7409 131.182Z" fill="#010101"/>
</g>
<g opacity="0.25">
<path opacity="0.25" d="M75.741 127.499V130.827C75.741 131.469 75.1821 132.11 74.163 132.613C72.8783 133.242 71.0263 133.612 69.0244 133.631C70.1891 132.857 71.1376 131.578 71.7757 129.734C72.5803 129.592 73.3637 129.348 74.1073 129.009C75.0151 128.59 75.5804 128.06 75.741 127.499Z" fill="#010101"/>
</g>
<path opacity="0.25" d="M75.7409 124.167V127.134C75.7409 127.797 75.1564 128.442 74.0944 128.951C73.3642 129.284 72.5953 129.524 71.8056 129.666C72.2073 128.432 72.4624 127.155 72.5657 125.861C74.2786 125.416 75.4818 124.67 75.743 123.804L75.7409 124.167Z" fill="#010101"/>
<path d="M45.7508 135.038C45.7358 136.58 42.6526 137.831 38.8672 137.831C35.0817 137.831 31.9857 136.574 31.9857 135.027C31.9867 135.024 31.9867 135.02 31.9857 135.017V131.695C32.0718 131.967 32.2241 132.213 32.4289 132.412C32.7741 132.745 33.1747 133.016 33.6129 133.212C34.9297 133.843 36.846 134.204 38.8693 134.204C40.8926 134.204 42.8089 133.843 44.1257 133.212C45.0185 132.784 45.5816 132.262 45.7508 131.715V135.038Z" fill="#F99B1F"/>
<path d="M45.7486 127.662C45.7486 129.208 42.6611 130.466 38.8671 130.466C36.5783 130.466 34.5464 130.008 33.3003 129.306C33.9208 129.377 34.5449 129.412 35.1695 129.411C38.9656 129.411 42.0531 128.154 42.0531 126.607C42.0531 125.994 41.567 125.427 40.7427 124.965C41.52 125.049 42.2877 125.206 43.0358 125.433H43.0508C44.6909 125.951 45.7486 126.757 45.7486 127.662Z" fill="#FFDCB3"/>
<path opacity="0.25" d="M45.7486 127.662C45.7486 129.208 42.6611 130.466 38.8671 130.466C36.5783 130.466 34.5464 130.008 33.3003 129.306C33.9208 129.377 34.5449 129.412 35.1695 129.411C38.9656 129.411 42.0531 128.154 42.0531 126.607C42.0531 125.994 41.567 125.427 40.7427 124.965C41.52 125.049 42.2877 125.206 43.0358 125.433H43.0508C44.6909 125.951 45.7486 126.757 45.7486 127.662Z" fill="#F99B1F"/>
<path d="M42.0467 126.612C42.0467 128.158 38.9592 129.416 35.1631 129.416C34.5385 129.416 33.9145 129.381 33.2939 129.311C32.6516 128.947 32.2084 128.519 32.0499 128.055C32.0521 128.049 32.0521 128.042 32.0499 128.036C32.0099 127.918 31.9897 127.793 31.99 127.668C31.99 126.755 33.0605 125.942 34.7306 125.431H34.7434C36.0854 125.044 37.4768 124.854 38.8736 124.869C39.4982 124.867 40.1224 124.903 40.7428 124.976C41.5607 125.427 42.0467 125.994 42.0467 126.612Z" fill="#FFDCB3"/>
<path d="M45.314 120.985C45.177 122.548 44.3826 124.062 43.0359 125.382C40.3269 124.618 37.4598 124.612 34.7477 125.365V122.989C34.7488 122.974 34.7488 122.96 34.7477 122.946V119.34C34.7488 119.326 34.7488 119.312 34.7477 119.297C34.7487 119.294 34.7487 119.29 34.7477 119.287V115.621C34.7477 114.566 33.3539 113.645 31.2856 113.151C32.0007 113.187 32.7158 113.185 33.4095 113.178C34.7434 113.168 36.1202 113.157 37.5418 113.437C40.0919 113.942 42.1687 114.956 43.5497 116.374C44.8515 117.706 45.4596 119.304 45.314 120.985Z" fill="white"/>
<g opacity="0.25">
<path opacity="0.25" d="M15.2295 123.63C13.8148 123.365 12.4247 122.982 11.0737 122.486C10.0225 121.012 9.43514 119.259 9.38651 117.449C9.34159 115.891 9.65356 114.343 10.2986 112.924C11.545 113.144 12.8021 113.297 14.0648 113.384C13.9727 113.553 13.8892 113.726 13.8078 113.901C13.1078 115.387 12.823 117.034 12.9835 118.669C13.1784 120.435 13.932 122.105 15.2295 123.63Z" fill="#010101"/>
</g>
<g opacity="0.25">
<path opacity="0.25" d="M83.9306 122.484C82.5797 122.981 81.1896 123.365 79.7747 123.63C81.6182 121.457 82.3719 118.947 81.9543 116.359C81.7793 115.312 81.4351 114.301 80.9352 113.364C82.1961 113.284 83.4518 113.137 84.6971 112.924C84.7977 113.138 84.8898 113.371 84.9754 113.6C86.1123 116.66 85.7184 119.982 83.9306 122.484Z" fill="#010101"/>
<path opacity="0.25" d="M93.6511 112.71C93.0602 114.924 91.8947 116.943 90.2724 118.564C88.6559 120.191 86.5555 121.504 84.0162 122.458C85.7783 119.954 86.1573 116.643 85.0268 113.581C84.9433 113.354 84.8512 113.131 84.7527 112.913C88.5596 112.195 91.677 110.588 93.1479 106.386C94.0312 108.375 94.2087 110.606 93.6511 112.71Z" fill="#010101"/>
</g>
<path opacity="0.25" d="M10.9838 122.45C5.87947 120.525 2.54794 117.161 1.34893 112.699C0.789883 110.597 0.966652 108.368 1.84994 106.38C3.32087 110.578 6.44043 112.186 10.2451 112.903C9.59816 114.33 9.28619 115.886 9.33304 117.452C9.38184 119.243 9.95581 120.981 10.9838 122.45Z" fill="#010101"/>
<path opacity="0.25" d="M21.595 114.359C21.1347 114.738 20.8777 115.167 20.8777 115.621V124.233C19.0097 124.183 17.1485 123.987 15.3109 123.647C13.9963 122.118 13.2319 120.439 13.0371 118.654C12.8771 117.029 13.1605 115.391 13.8571 113.914C13.9406 113.732 14.0284 113.555 14.1247 113.38C15.3109 113.471 16.527 113.534 17.7517 113.611C19.4839 113.72 20.7086 113.993 21.595 114.359Z" fill="#010101"/>
<path opacity="0.25" d="M79.6869 123.647C78.4001 123.889 77.1004 124.056 75.7944 124.148V123.47C75.7944 121.894 72.6834 120.613 68.8573 120.613C65.0312 120.613 61.9223 121.896 61.9223 123.47V126.753C58.9034 127.54 55.1008 128.143 52.448 125.837C51.8761 125.346 51.3643 124.789 50.9236 124.178C59.1368 115.901 60.4643 119.344 66.7162 119.304C69.4568 119.284 70.1141 118.348 70.6772 117.236C71.7749 116.56 72.8554 115.537 73.9188 114.167C75.0004 113.844 76.1182 113.657 77.2461 113.61C78.4686 113.534 79.6869 113.471 80.8731 113.377C81.3755 114.313 81.7212 115.324 81.8965 116.372C82.3183 118.959 81.5518 121.479 79.6869 123.647Z" fill="#010101"/>
<path opacity="0.25" d="M44.0722 124.178C43.7653 124.61 43.4199 125.013 43.0402 125.382C40.3312 124.618 37.4641 124.612 34.752 125.365V122.989C34.7531 122.974 34.7531 122.96 34.752 122.946V119.34C34.7531 119.326 34.7531 119.312 34.752 119.297C34.753 119.294 34.753 119.29 34.752 119.287V118.619C37.0815 118.602 39.5181 119.59 44.0722 124.178Z" fill="#010101"/>
<path d="M34.6984 123.339V125.38C33.0177 125.902 31.93 126.731 31.93 127.662V128.853C30.5926 129.238 29.2064 129.426 27.8148 129.411C25.8044 129.411 23.9009 129.054 22.5884 128.43C21.5179 127.923 20.9462 127.277 20.9462 126.614C20.9472 126.61 20.9472 126.607 20.9462 126.603V124.272V123.365C21.0813 123.748 21.33 124.081 21.6592 124.319C21.9211 124.522 22.2038 124.697 22.5028 124.841C23.826 125.482 25.768 125.867 27.8298 125.867C28.4037 125.86 28.9769 125.823 29.547 125.756H29.5727C30.8098 125.651 32.0198 125.336 33.1504 124.824C33.9962 124.4 34.5357 123.885 34.6984 123.339Z" fill="#F99B1F"/>
<path d="M31.93 128.909V132.544C30.5926 132.928 29.2063 133.116 27.8149 133.101C24.0209 133.101 20.9334 131.843 20.9334 130.297C20.9344 130.293 20.9344 130.289 20.9334 130.286V126.952C21.0961 127.512 21.6571 128.04 22.5521 128.468C23.871 129.095 25.783 129.456 27.802 129.456C29.1973 129.475 30.5879 129.29 31.93 128.909Z" fill="#F99B1F"/>
<g opacity="0.25">
<path opacity="0.25" d="M34.6984 122.997C34.6984 123.639 34.1289 124.281 33.1162 124.772C32.0003 125.279 30.8064 125.592 29.5855 125.698C30.2942 124.465 30.8527 123.151 31.2491 121.785C31.8712 121.646 32.4769 121.443 33.0562 121.177L33.1033 121.154C33.9598 120.726 34.5143 120.215 34.6813 119.669V122.993C34.6831 122.996 34.6858 122.998 34.689 122.999C34.6922 122.999 34.6956 122.999 34.6984 122.997Z" fill="#010101"/>
</g>
<path opacity="0.25" d="M34.6963 115.976V119.34C34.6749 119.982 34.0925 120.623 33.0541 121.115H33.0391C32.4712 121.377 31.8769 121.578 31.2663 121.714C31.6455 120.444 31.9437 119.151 32.1591 117.843C33.5273 117.394 34.4715 116.729 34.6963 115.976Z" fill="#010101"/>
<path opacity="0.25" d="M34.6984 123.339V125.38C33.0177 125.902 31.93 126.731 31.93 127.662V128.853C30.5927 129.238 29.2064 129.426 27.8149 129.411C27.0988 129.413 26.3835 129.366 25.6738 129.272C27.0633 128.772 28.4058 127.681 29.547 125.756H29.5598C30.7969 125.651 32.007 125.336 33.1376 124.824C33.9962 124.4 34.5357 123.885 34.6984 123.339Z" fill="#010101"/>
<path opacity="0.25" d="M31.93 128.909V132.544C30.5925 132.928 29.2063 133.116 27.8148 133.101C24.175 133.101 21.1775 131.935 20.9462 130.47C22.445 130.665 24.2435 130.286 25.9307 129.362C26.556 129.436 27.1852 129.472 27.8148 129.471C29.2066 129.484 30.5928 129.294 31.93 128.909Z" fill="#010101"/>
<path d="M45.7486 128.017V131.387C45.7272 132.029 45.1427 132.671 44.1021 133.165C42.7896 133.791 40.8905 134.151 38.8672 134.151C36.8438 134.151 34.9447 133.791 33.6322 133.165C33.1999 132.971 32.8049 132.703 32.4653 132.373C32.3215 132.242 32.2051 132.084 32.1228 131.908C32.0405 131.732 31.9939 131.541 31.9857 131.347V128.075H32.0028C32.4825 129.458 35.3793 130.526 38.8693 130.526C42.3935 130.519 45.3225 129.426 45.7486 128.017Z" fill="#F99B1F"/>
<g opacity="0.25">
<path opacity="0.25" d="M45.7507 135.038C45.7358 136.58 42.6526 137.831 38.8672 137.831C36.9402 137.831 35.1823 137.504 33.9319 136.976C36.1006 136.553 38.1273 135.59 39.8242 134.176C41.4878 134.082 43.0209 133.749 44.1299 133.212C45.0228 132.784 45.5859 132.262 45.755 131.715V135.038C45.7536 135.038 45.7522 135.038 45.7507 135.038Z" fill="#010101"/>
</g>
<path opacity="0.25" d="M45.7486 128.017V131.387C45.7272 132.029 45.1427 132.671 44.1021 133.165C43.0123 133.684 41.5135 134.02 39.8842 134.121C41.1852 133.02 42.1856 131.608 42.7918 130.017C44.3847 129.565 45.4981 128.844 45.7486 128.017Z" fill="#010101"/>
<path d="M65.3331 101.544C65.0319 102.307 64.7572 103.054 64.5088 103.785C58.7942 105.749 52.7801 106.7 46.7378 106.595C48.3348 106.225 49.8559 105.581 51.2341 104.694C52.6836 103.721 53.692 102.496 54.1502 101.146C54.2697 100.799 54.3523 100.441 54.3965 100.077C55.0609 100.548 55.8577 100.796 56.6724 100.787C57.7827 100.768 58.8534 100.372 59.7085 99.6639C59.8816 100.209 60.2239 100.685 60.6858 101.023C61.1477 101.361 61.7052 101.543 62.2778 101.544H65.3331Z" fill="white"/>
<path d="M60.1024 99.2362C59.976 99.3628 59.8431 99.4827 59.7042 99.5955C58.0684 100.93 55.8866 101.093 54.39 100.008C54.4181 99.7498 54.426 99.4895 54.4136 99.2298C54.6656 99.277 54.9215 99.3006 55.1779 99.3003C56.4927 99.2775 57.746 98.7399 58.6679 97.8032C59.0579 97.4158 59.3839 96.969 59.6335 96.4794C60.3529 95.0743 60.3529 93.5151 59.6335 92.3068C59.5843 92.2255 59.5329 92.1442 59.4772 92.0672L59.5907 92.1806L60.5178 93.1066C62.0915 94.685 61.9095 97.4332 60.1024 99.2362Z" fill="#F99B1F"/>
<path d="M72.3923 83.3627C71.5937 85.4672 70.6559 87.9203 69.6924 90.4204L68.3735 93.8424C67.3329 96.5222 66.3223 99.0972 65.4766 101.189L65.3546 101.493H62.2693C61.706 101.49 61.1581 101.308 60.7056 100.973C60.2531 100.638 59.9195 100.167 59.7535 99.6297C59.8888 99.5198 60.0182 99.4027 60.141 99.279C61.9674 97.4525 62.1558 94.6679 60.5585 93.0767L59.6464 92.1635V85.8671C59.6476 85.17 59.9255 84.5018 60.4191 84.009C60.9128 83.5163 61.582 83.2392 62.28 83.2386H71.6065C71.8732 83.2399 72.1382 83.2817 72.3923 83.3627Z" fill="#F99B1F"/>
<path d="M52.8592 90.8824C52.8605 91.3269 52.8044 91.7697 52.6922 92.1998C52.4933 92.9946 52.0912 93.7242 51.5253 94.3172C51.4396 94.407 51.3518 94.4883 51.2662 94.5653C49.7332 93.7739 47.8276 93.5622 45.815 93.9878C45.125 93.1003 44.7554 92.006 44.7658 90.8824C44.7658 88.3309 46.5815 86.2542 48.8125 86.2542C51.0435 86.2542 52.8592 88.3288 52.8592 90.8824Z" fill="#FFDCB3"/>
<path d="M59.5886 96.4559C59.3403 96.9403 59.0173 97.3827 58.6315 97.7669C57.4818 98.9175 55.8674 99.4565 54.4136 99.1806C54.3354 97.9112 53.8035 96.7121 52.9148 95.8014C52.7342 95.612 52.541 95.4348 52.3367 95.271C53.9297 94.5888 54.996 92.8329 54.996 90.8867V90.7733C56.4947 90.3071 58.0427 90.6365 59.0426 91.6288C59.2526 91.8382 59.4353 92.0731 59.5865 92.3282C60.2994 93.5237 60.2994 95.0657 59.5886 96.4559Z" fill="#FFDCB3"/>
<g opacity="0.25">
<path opacity="0.25" d="M52.857 90.8952C52.8584 91.3397 52.8022 91.7826 52.69 92.2127C52.4911 93.0075 52.0891 93.7371 51.5231 94.33C51.4375 94.4198 51.3497 94.5011 51.264 94.5781C49.731 93.7868 47.8255 93.575 45.8128 94.0006C45.2841 93.3277 44.9429 92.5272 44.8237 91.6802C47.0675 93.2607 51.7843 92.6575 51.1591 87.1311C51.702 87.5951 52.1357 88.173 52.4292 88.8236C52.7227 89.4743 52.8688 90.1817 52.857 90.8952Z" fill="#F99B1F"/>
</g>
<path opacity="0.25" d="M57.0621 98.8384C56.2339 99.2163 55.3103 99.3342 54.4136 99.1763C54.3354 97.907 53.8035 96.7079 52.9148 95.7972C52.7342 95.6077 52.541 95.4305 52.3367 95.2668C53.8869 94.6016 54.9382 92.9142 54.9938 91.0364C57.8565 91.7015 58.7514 96.3575 57.0621 98.8384Z" fill="#F99B1F"/>
<path d="M83.6544 94.6679C83.3953 95.1063 83.1384 95.5384 82.89 95.9661C77.259 96.2035 71.553 93.2991 69.7459 90.4311C70.7115 87.9224 71.6515 85.4629 72.4544 83.3541C73.8097 79.7889 74.771 77.2374 74.7924 77.1733C74.7937 77.17 74.7943 77.1666 74.7942 77.1631C74.7942 77.1596 74.7934 77.1562 74.792 77.153C74.7906 77.1499 74.7886 77.147 74.7861 77.1446C74.7836 77.1422 74.7807 77.1403 74.7774 77.139C74.7742 77.1378 74.7708 77.1372 74.7673 77.1372C74.7638 77.1373 74.7604 77.138 74.7572 77.1394C74.754 77.1408 74.7512 77.1428 74.7487 77.1453C74.7463 77.1478 74.7444 77.1508 74.7432 77.154C74.7196 77.2182 73.7647 79.7632 72.4094 83.3221C72.146 83.2363 71.8707 83.193 71.5936 83.1937H62.2692C61.5571 83.1943 60.8743 83.477 60.3706 83.9797C59.8668 84.4825 59.5833 85.1644 59.5822 85.8757V92.1036L59.0811 91.6031C58.0705 90.6001 56.5118 90.2664 55.0131 90.7305C54.9882 89.5571 54.5509 88.4298 53.7777 87.546C53.4229 87.1341 52.9842 86.8026 52.4909 86.5736C51.9976 86.3446 51.4611 86.2233 50.9172 86.2179H48.8168C46.5558 86.2179 44.7166 88.3181 44.7166 90.8995C44.7065 92.0259 45.0735 93.1235 45.7593 94.0177C45.5381 94.0648 45.3154 94.1204 45.0913 94.1846C42.4856 94.9224 39.5459 94.7299 36.5783 93.6306L36.5162 93.6071C35.7266 93.31 34.9576 92.9607 34.2146 92.5613H41.4386C41.5414 92.5613 41.6432 92.541 41.7381 92.5017C41.8331 92.4623 41.9194 92.4046 41.992 92.3319C42.0645 92.2592 42.1221 92.1729 42.1612 92.0779C42.2004 91.9829 42.2204 91.8812 42.2201 91.7785V83.8653C42.2204 83.7626 42.2004 83.6608 42.1612 83.5659C42.1221 83.4709 42.0645 83.3846 41.992 83.3119C41.9194 83.2392 41.8331 83.1815 41.7381 83.1421C41.6432 83.1028 41.5414 83.0825 41.4386 83.0825H28.3009C28.1981 83.0825 28.0963 83.1028 28.0013 83.1421C27.9064 83.1815 27.8201 83.2392 27.7475 83.3119C27.6749 83.3846 27.6174 83.4709 27.5783 83.5659C27.5391 83.6608 27.5191 83.7626 27.5194 83.8653V87.0455C26.7976 86.1582 26.1791 85.1917 25.6759 84.1647C24.8987 82.5371 24.6546 81.0465 24.9672 79.8509C24.9692 79.8438 24.9683 79.8363 24.9647 79.8298C24.961 79.8234 24.955 79.8187 24.9479 79.8167C24.9412 79.8158 24.9343 79.8172 24.9285 79.8207C24.9227 79.8242 24.9182 79.8296 24.9158 79.836C24.5989 81.0443 24.8452 82.55 25.6267 84.1861C26.2755 85.4964 27.1019 86.7112 28.0825 87.7962C28.4079 88.1662 28.7548 88.5319 29.1209 88.8891C30.0755 89.8218 31.1124 90.6665 32.2191 91.4128C32.6601 91.7122 33.1119 91.9924 33.568 92.2554C34.091 94.8616 33.784 97.566 32.6901 99.989C31.7181 102.2 30.185 104.121 28.4829 105.259C25.5285 104.188 22.7431 102.699 20.2119 100.838C19.7472 100.494 19.2976 100.141 18.8608 99.7687C16.7269 98.0119 14.8773 95.9364 13.3775 93.6157C11.5489 90.7889 10.3587 87.5981 9.88968 84.2652C9.46146 81.2111 9.4165 78.5292 9.75051 76.2942C10.0674 74.1748 10.729 72.4446 11.7182 71.1485C12.8936 69.6108 14.5144 68.6954 16.5399 68.4281C16.8074 68.7491 17.13 69.02 17.4927 69.2279C26.5996 74.516 36.9458 77.3016 47.4797 77.3016C58.0136 77.3016 68.3597 74.516 77.4666 69.2279C77.9344 68.9597 78.3337 68.5872 78.6335 68.1393C78.9182 67.7193 79.09 67.2333 79.1324 66.7278C79.8043 66.3079 80.5783 66.0793 81.3707 66.0669C82.1632 66.0545 82.9439 66.2586 83.6287 66.6572C85.1917 67.502 86.684 69.2622 87.8338 71.6105C88.9057 73.8046 89.5419 76.1853 89.7072 78.6212C89.9963 83.9487 86.6262 89.6441 83.6544 94.6679Z" fill="white"/>
<g opacity="0.25">
<path opacity="0.25" d="M47.4786 103.993C47.1477 104.936 46.7041 105.836 46.1575 106.672C45.6794 106.779 45.1798 106.874 44.6588 106.955C40.4562 107.585 36.1705 107.379 32.0478 106.35C33.0327 106.061 33.9855 105.139 34.8055 103.685C34.9383 103.449 35.0667 103.204 35.1866 102.947C39.396 103.997 43.6118 104.416 47.4786 103.993Z" fill="#010101"/>
</g>
<g opacity="0.25">
<path opacity="0.25" d="M35.1438 102.934C35.0239 103.186 34.8997 103.428 34.7691 103.659C33.9319 105.145 32.9599 106.065 31.9578 106.324L31.8422 106.296C30.7332 106.016 29.6392 105.68 28.5642 105.289C29.8337 104.397 30.91 103.259 31.7287 101.942C32.8621 102.318 34.0004 102.649 35.1438 102.934Z" fill="#010101"/>
</g>
<path opacity="0.25" d="M53.3709 102.547C52.7842 103.379 52.0446 104.093 51.1912 104.649C49.9323 105.494 48.3629 106.146 46.5087 106.591H46.498C46.4958 106.59 46.4932 106.589 46.4905 106.589C46.4878 106.589 46.4852 106.59 46.483 106.591L46.2368 106.647C46.7764 105.817 47.2115 104.923 47.5321 103.986C49.5357 103.779 51.5008 103.295 53.3709 102.547Z" fill="#010101"/>
<path opacity="0.25" d="M31.6731 101.925C30.8532 103.241 29.7745 104.379 28.5021 105.267C25.5478 104.196 22.7624 102.708 20.2311 100.847C19.7665 100.502 19.3169 100.149 18.8801 99.7773C16.7461 98.0204 14.8966 95.945 13.3968 93.6242C12.4876 92.2107 11.7305 90.7053 11.1379 89.1329C16.0089 94.5139 23.6633 99.2704 31.6731 101.925Z" fill="#010101"/>
<g opacity="0.25">
<path opacity="0.25" d="M64.4874 103.849C63.9902 105.294 63.5861 106.769 63.2777 108.266C49.7396 112.116 34.9019 110.832 22.5628 104.756C21.7171 104.339 21.1925 103.625 21.1925 102.893C21.1925 102.563 21.3058 102.243 21.5137 101.987C21.5434 101.946 21.5763 101.908 21.6122 101.873C23.7628 103.285 26.0708 104.441 28.4893 105.319H28.5022C29.5907 105.717 30.6991 106.059 31.823 106.343L31.9536 106.375C34.5748 107.029 37.266 107.361 39.9677 107.363C41.5448 107.366 43.1198 107.245 44.6781 107.002C45.1948 106.921 45.6944 106.826 46.1768 106.717C46.1788 106.718 46.181 106.719 46.1833 106.719C46.1855 106.719 46.1877 106.718 46.1897 106.717C46.2967 106.698 46.4038 106.672 46.5044 106.647C46.8513 106.647 47.196 106.647 47.5428 106.647C53.3075 106.662 59.0343 105.717 64.4874 103.849Z" fill="#010101"/>
</g>
<path opacity="0.25" d="M62.8537 113.123C62.4255 113.123 61.9973 113.123 61.5862 113.123C60.2502 113.123 58.8692 113.104 57.4432 113.386C54.8247 113.903 52.7071 114.954 51.3197 116.427C50.035 117.792 49.442 119.481 49.6539 121.186C48.6369 120.805 46.6221 120.523 45.3718 120.972C45.5131 119.308 44.8836 117.663 43.5968 116.344C42.2094 114.919 40.1218 113.899 37.5589 113.394C36.1351 113.112 34.7541 113.123 33.4181 113.134C32.8507 113.134 32.2726 113.134 31.6881 113.123C28.6499 110.943 25.9071 109.006 24.1429 108.105C20.4431 106.206 19.0942 102.431 15.9918 99.4287C16.9487 99.5052 17.9003 99.638 18.8415 99.8265C19.2783 100.19 19.7287 100.547 20.1926 100.896C20.6565 101.245 21.1118 101.563 21.5586 101.85C21.5248 101.884 21.4933 101.92 21.4644 101.959C21.2493 102.225 21.1322 102.557 21.1325 102.9C21.1325 103.653 21.6678 104.384 22.5306 104.81C30.1936 108.58 38.8157 110.505 47.4957 110.505C52.8252 110.509 58.1297 109.777 63.2584 108.33C62.9197 109.904 62.7837 111.515 62.8537 113.123Z" fill="#010101"/>
<g opacity="0.25">
<path opacity="0.25" d="M65.3331 101.544C65.0319 102.307 64.7572 103.054 64.5088 103.785C58.7942 105.749 52.7801 106.7 46.7378 106.595C48.2952 106.231 49.7808 105.609 51.1334 104.756C54.8696 104.375 56.6275 103.09 58.1241 100.539C58.7024 100.344 59.2411 100.048 59.7149 99.6639C59.888 100.209 60.2303 100.685 60.6922 101.023C61.1541 101.361 61.7117 101.543 62.2842 101.544H65.3331Z" fill="#010101"/>
</g>
<path opacity="0.25" d="M72.3923 83.3627C71.5937 85.4672 70.6559 87.9203 69.6924 90.4204L68.3735 93.8424C67.3329 96.5222 66.3223 99.0972 65.4766 101.189L65.3546 101.493H62.2693C61.706 101.49 61.1581 101.308 60.7056 100.973C60.2531 100.638 59.9195 100.167 59.7535 99.6297C59.8888 99.5198 60.0182 99.4027 60.141 99.279C61.6847 97.7348 62.0573 95.5084 61.1709 93.8915C61.6698 92.7452 62.2264 91.494 62.8838 90.1317C64.3054 87.1503 65.8513 84.9154 67.3693 83.2429H71.6023C71.8702 83.2423 72.1366 83.2827 72.3923 83.3627Z" fill="#010101"/>
<path opacity="0.25" d="M74.1865 78.6276C73.7711 79.7269 73.1502 81.3694 72.4115 83.3135C72.1482 83.2278 71.8728 83.1845 71.5958 83.1852H67.4121C69.9943 80.3578 72.4972 79.1473 74.1865 78.6276Z" fill="#010101"/>
<g opacity="0.25">
<path opacity="0.25" d="M81.1471 99.0886C81.1065 99.1635 81.0701 99.2362 81.0379 99.3025C81.0379 99.3025 81.0379 99.3025 81.0379 99.3132C80.7113 99.9489 80.4252 100.605 80.1815 101.277C79.6034 102.913 78.8305 104.998 77.8713 107.143C77.578 107.806 77.2611 108.473 76.9292 109.136C76.4903 110.015 76.0171 110.884 75.5161 111.716C72.9661 115.944 70.2747 118.112 67.5256 118.157H67.4142C66.654 118.177 65.9005 118.01 65.2196 117.672C70.2918 113.822 74.0901 107.126 78.9697 99.1057C79.2394 99.1207 79.5156 99.1271 79.7918 99.1271C80.24 99.1371 80.6918 99.1243 81.1471 99.0886Z" fill="#010101"/>
</g>
<path opacity="0.25" d="M88.8273 84.3658C87.6647 87.8903 85.575 91.4235 83.6544 94.6679C83.3954 95.1063 83.1384 95.5384 82.8901 95.9661C82.2361 95.9932 81.5811 95.9796 80.9288 95.9255C83.2241 92.2469 85.7869 88.348 88.8273 84.3658Z" fill="#010101"/>
<path d="M54.9424 90.7477V90.8953C54.9424 92.8329 53.8719 94.576 52.2896 95.2411C51.985 94.9961 51.6573 94.7813 51.3111 94.5995C51.3946 94.5268 51.4782 94.4498 51.5617 94.3642C52.1332 93.7651 52.5397 93.0283 52.7414 92.2255C52.8555 91.7914 52.9124 91.3441 52.9105 90.8953C52.9105 88.5555 51.4011 86.6178 49.4334 86.2671H50.8979C51.4346 86.2725 51.9639 86.3923 52.4505 86.6184C52.9372 86.8445 53.3699 87.1717 53.7199 87.5781C54.489 88.4575 54.922 89.5802 54.9424 90.7477Z" fill="#F99B1F"/>
<path d="M38.4626 21.3941C40.39 20.7567 41.6895 19.4463 41.365 18.4674C41.0405 17.4885 39.215 17.2117 37.2875 17.8492C35.3601 18.4867 34.0607 19.797 34.3851 20.7759C34.7096 21.7548 36.5351 22.0316 38.4626 21.3941Z" fill="white"/>
<path d="M56.6668 24.8624C58.2737 23.6227 59.0648 21.9562 58.4338 21.1401C57.8028 20.324 55.9886 20.6673 54.3817 21.907C52.7749 23.1467 51.9838 24.8132 52.6148 25.6293C53.2458 26.4454 55.0599 26.1021 56.6668 24.8624Z" fill="white"/>
<path d="M42.1602 87.8027V91.7636C42.1603 91.9153 42.1129 92.0633 42.0246 92.1868C41.9363 92.3103 41.8115 92.4031 41.6677 92.4522L37.5761 92.0501V90.4675C39.4817 89.8665 40.7171 88.9554 41.6741 87.8112L42.1602 87.8027Z" fill="#F15729"/>
<path opacity="0.25" d="M42.1602 87.8027V91.7636C42.1603 91.9153 42.1129 92.0633 42.0246 92.1868C41.9363 92.3103 41.8115 92.4031 41.6677 92.4522L37.5761 92.0501V90.4675C39.4817 89.8665 40.7171 88.9554 41.6741 87.8112L42.1602 87.8027Z" fill="#010101"/>
<path d="M37.5225 90.4675V92.0394L32.5445 91.5539C32.4567 91.4983 32.3689 91.4384 32.2833 91.3807V91.2288C34.4586 91.1561 36.1608 90.8952 37.5225 90.4675Z" fill="#F99B1F"/>
<path opacity="0.25" d="M37.5225 90.4675V92.0394L32.5445 91.5539C32.4567 91.4983 32.3689 91.4384 32.2833 91.3807V91.2288C34.4586 91.1561 36.1608 90.8952 37.5225 90.4675Z" fill="#010101"/>
<path opacity="0.25" d="M69.3712 43.1528C73.3129 45.1482 73.8825 48.6536 73.3857 51.3141C72.889 53.9747 70.932 57.1913 69.6752 58.0575L68.6282 56.2631L71.2982 49.5133L69.3712 43.1528Z" fill="#010101"/>
<path opacity="0.25" d="M58.7471 50.0266C56.5525 49.7913 53.0904 50.0565 49.7738 50.8821V50.2276C53.9789 49.6224 57.1006 47.3789 57.1006 44.7012C57.1006 41.5616 52.8035 39.0165 47.5 39.0165C42.1965 39.0165 37.8972 41.5637 37.8972 44.6991C37.8972 47.5115 41.3465 49.8491 45.877 50.3046V52.1846C43.6717 53.1513 41.8625 54.443 41.0275 56.092L50.1549 52.67L58.9141 51.7568L58.7471 50.0266Z" fill="#010101"/>
<path opacity="0.25" d="M82.86 96.0281C82.2455 97.0761 81.6696 98.0877 81.1857 99.0373C80.4585 99.0962 79.7283 99.1084 78.9996 99.0737C79.6141 98.0642 80.2457 97.0312 80.8988 95.9832C81.3541 96.0217 81.8052 96.041 82.2519 96.041C82.4554 96.0281 82.6566 96.0281 82.86 96.0281Z" fill="#010101"/>
<path d="M47.5 72.96C65.7549 72.96 83.5538 62.3221 83.5281 49.4342C83.5024 36.5463 77.9313 38.8647 75.8844 30.3441C73.8375 21.8234 68.8616 4.76508 47.5 4.76508C26.1384 4.76508 21.1625 21.8149 19.1156 30.3376C17.0688 38.8604 11.4976 36.5399 11.472 49.4278C11.4463 62.3156 29.2451 72.96 47.5 72.96Z" stroke="#092733" stroke-width="2" stroke-miterlimit="10" stroke-linecap="round"/>
<path d="M32.1163 8.80937C30.4484 1.60833 24.1943 -0.0427543 20.5544 1.56983C10.1016 6.20228 16.7925 24.1675 17.028 26.9478C17.2636 29.7281 18.2014 31.0669 17.028 35.169" stroke="#092733" stroke-width="2" stroke-miterlimit="10" stroke-linecap="round"/>
<path d="M20.4067 25.6153C19.2655 21.0941 16.1459 9.66057 21.9054 6.00979C24.0979 4.62176 27.9754 5.5628 29.6005 10.6636" stroke="#092733" stroke-width="2" stroke-miterlimit="10" stroke-linecap="round"/>
<path d="M65.3995 10.6658C67.016 5.56068 70.8999 4.62179 73.0945 6.00981C78.8562 9.66059 75.7366 21.0899 74.5933 25.6132" stroke="#092733" stroke-width="2" stroke-miterlimit="10" stroke-linecap="round"/>
<path d="M62.8816 8.81151C64.5516 1.60833 70.8186 -0.0427571 74.4435 1.56983C84.9005 6.20228 78.2096 24.1675 77.9741 26.9478C77.7386 29.7281 76.8008 31.0669 77.9741 35.1754" stroke="#092733" stroke-width="2" stroke-miterlimit="10" stroke-linecap="round"/>
<path d="M27.4166 32.9362C31.4847 29.1635 36.1116 29.2191 38.7408 34.3627" stroke="#092733" stroke-width="2" stroke-miterlimit="10" stroke-linecap="round"/>
<path d="M67.5855 32.9362C63.5174 29.1635 58.8905 29.2191 56.2613 34.3627" stroke="#092733" stroke-width="2" stroke-miterlimit="10" stroke-linecap="round"/>
<path d="M74.0067 64.9249C74.2507 64.788 74.4927 64.6511 74.7346 64.51C75.2437 64.2137 75.8219 64.0566 76.4111 64.0544C76.8673 64.0428 77.3193 64.1443 77.7266 64.35C78.1339 64.5556 78.4837 64.859 78.7449 65.2328C79.0385 65.6743 79.1743 66.2018 79.1303 66.7299C79.0777 67.2483 78.8995 67.746 78.6111 68.1801C78.3228 68.6142 77.9329 68.9717 77.4752 69.2215C68.3722 74.5086 58.03 77.2938 47.5 77.2938C36.97 77.2938 26.6278 74.5086 17.5248 69.2215C17.1614 69.0129 16.8386 68.7405 16.572 68.4174C16.126 67.8944 15.8755 67.233 15.8633 66.546C15.8591 66.0779 15.9964 65.6195 16.2573 65.2307C17.0966 63.9817 18.8737 63.7015 20.2675 64.5078C20.5095 64.649 20.7514 64.7858 20.9955 64.9227" stroke="#092733" stroke-width="2" stroke-linecap="round" stroke-linejoin="round"/>
<path d="M21.6079 101.839C21.5672 101.879 21.5293 101.922 21.4944 101.967C21.2827 102.229 21.1671 102.555 21.1668 102.891C21.1668 103.597 21.6635 104.339 22.5521 104.778C35.0346 110.92 49.913 112.09 63.3077 108.283" stroke="#092733" stroke-width="2" stroke-linecap="round" stroke-linejoin="round"/>
<path d="M46.498 106.617C52.6266 106.743 58.7297 105.791 64.5281 103.804" stroke="#092733" stroke-width="2" stroke-linecap="round" stroke-linejoin="round"/>
<path d="M74.771 77.154C74.771 77.154 68.8595 92.8821 65.5023 101.193C62.145 109.504 61.1494 118.303 67.5256 118.198C73.9017 118.093 78.2888 106.72 80.2072 101.302C82.1685 95.7544 90.1633 86.6499 89.7522 78.6318C89.4225 72.1815 84.5258 63.5796 79.1281 66.7256" stroke="#092733" stroke-width="2" stroke-linecap="round" stroke-linejoin="round"/>
<path d="M69.7181 90.4354C71.5401 93.3398 77.2825 96.2334 82.9072 95.996" stroke="#092733" stroke-width="2" stroke-linecap="round" stroke-linejoin="round"/>
<path d="M68.397 93.8509C71.0969 97.2729 75.6424 99.4992 81.2007 99.0565" stroke="#092733" stroke-width="2" stroke-linecap="round" stroke-linejoin="round"/>
<path d="M16.572 68.4131C11.3927 69.0847 8.45518 74.0614 9.88328 84.2823C12.0501 99.8008 29.4978 109.367 44.6759 106.978C59.8541 104.589 55.0902 91.3658 45.1041 94.1931C35.1181 97.0205 23.4385 85.6255 24.9544 79.8338" stroke="#092733" stroke-width="2" stroke-linecap="round" stroke-linejoin="round"/>
<path d="M49.245 97.0119C45.967 95.1705 42.0188 96.4281 42.2072 98.5539C42.3957 100.68 44.7894 101.685 47.5107 101.289C50.232 100.894 50.9579 97.9786 49.245 97.0119Z" stroke="#092733" stroke-width="2" stroke-linecap="round" stroke-linejoin="round"/>
<path d="M46.1747 106.694C47.1981 105.068 48.2901 102.812 47.5 101.289" stroke="#092733" stroke-width="2" stroke-linecap="round" stroke-linejoin="round"/>
<path d="M45.2947 96.1458C44.8408 95.3822 43.7638 94.7791 42.3314 94.6273" stroke="#092733" stroke-width="2" stroke-linecap="round" stroke-linejoin="round"/>
<path d="M36.5569 93.6349C37.6082 97.0782 35.4307 105.464 31.96 106.35" stroke="#092733" stroke-width="2" stroke-linecap="round" stroke-linejoin="round"/>
<path d="M33.615 92.2469C34.7819 97.737 31.8101 103.099 28.5085 105.293" stroke="#092733" stroke-width="2" stroke-linecap="round" stroke-linejoin="round"/>
<path d="M34.0947 92.5164H39.7257C40.3793 92.5164 41.0062 92.257 41.4683 91.7954C41.9305 91.3337 42.1901 90.7076 42.1901 90.0547V85.5634C42.1901 84.9106 41.9305 84.2844 41.4683 83.8228C41.0062 83.3611 40.3793 83.1018 39.7257 83.1018H30.0095C29.686 83.1018 29.3656 83.1655 29.0667 83.2892C28.7679 83.4129 28.4963 83.5943 28.2677 83.8229C28.039 84.0515 27.8577 84.3229 27.7341 84.6216C27.6104 84.9202 27.547 85.2403 27.5472 85.5634V87.1076" stroke="#092733" stroke-width="2" stroke-linecap="round" stroke-linejoin="round"/>
<path d="M59.6121 92.1592V85.865C59.6121 85.5161 59.6809 85.1707 59.8145 84.8484C59.9482 84.5262 60.1441 84.2333 60.391 83.9867C60.6379 83.74 60.9311 83.5444 61.2537 83.4109C61.5763 83.2774 61.9221 83.2087 62.2714 83.2087H71.5979C71.881 83.2082 72.1623 83.2537 72.4308 83.3434" stroke="#092733" stroke-width="2" stroke-linecap="round" stroke-linejoin="round"/>
<path d="M59.7235 99.6169C59.8869 100.165 60.2231 100.646 60.6823 100.988C61.1414 101.33 61.6988 101.514 62.2714 101.514H65.3738" stroke="#092733" stroke-width="2" stroke-linecap="round" stroke-linejoin="round"/>
<path d="M28.1104 87.7748H32.2512H37.5504H42.1901" stroke="#092733" stroke-width="2" stroke-linecap="round" stroke-linejoin="round"/>
<path d="M37.5504 83.3199V92.5185" stroke="#092733" stroke-width="2" stroke-linecap="round" stroke-linejoin="round"/>
<path d="M32.2512 91.3957V87.7748V83.3199" stroke="#092733" stroke-width="2" stroke-linecap="round" stroke-linejoin="round"/>
<path d="M16.9852 105.287C18.0892 105.634 19.127 106.164 20.0555 106.854C20.5569 107.243 21.0372 107.658 21.4944 108.097C22.7254 109.302 24.0722 110.383 25.5153 111.324C26.5936 112.038 27.7928 112.551 29.0545 112.836" stroke="#092733" stroke-width="2" stroke-linecap="round" stroke-linejoin="round"/>
<path d="M20.9077 124.259C19.0259 124.21 17.1509 124.013 15.3002 123.669C13.8552 123.402 12.4355 123.013 11.0566 122.505V122.505C5.71885 120.521 2.49223 117.009 1.32534 112.706C-0.543825 105.757 5.88157 97.1937 18.8608 99.803" stroke="#092733" stroke-width="2" stroke-linecap="round" stroke-linejoin="round"/>
<path d="M30.9944 113.106C33.1762 113.253 35.2766 112.962 37.5504 113.409C42.9224 114.479 45.6437 117.665 45.3397 121C45.2026 122.497 44.4533 124.032 43.053 125.408" stroke="#092733" stroke-width="2" stroke-linecap="round" stroke-linejoin="round"/>
<path d="M62.8794 113.149C61.0895 113.174 59.3252 113.039 57.4496 113.409C51.9599 114.494 49.2385 117.809 49.686 121.222C49.9001 122.818 50.7972 124.43 52.433 125.855C54.9338 128.028 58.4538 127.685 61.9502 126.772" stroke="#092733" stroke-width="2" stroke-linecap="round" stroke-linejoin="round"/>
<path d="M81.0637 99.326C90.7157 99.4886 95.2934 106.698 93.679 112.704C92.5207 117.007 89.2855 120.519 83.9456 122.503C82.5667 123.011 81.147 123.4 79.702 123.667C78.4019 123.911 77.0886 124.08 75.7688 124.171" stroke="#092733" stroke-width="2" stroke-linecap="round" stroke-linejoin="round"/>
<path d="M45.3397 121C46.6093 120.536 48.7119 120.846 49.6861 121.214" stroke="#092733" stroke-width="2" stroke-linecap="round" stroke-linejoin="round"/>
<path d="M21.4922 108.097C16.2423 108.097 9.25379 116.652 15.3002 123.669" stroke="#092733" stroke-width="2" stroke-miterlimit="10" stroke-linecap="round"/>
<path d="M20.0555 106.854C11.1058 106.615 6.68872 116.431 11.063 122.505" stroke="#092733" stroke-width="2" stroke-miterlimit="10" stroke-linecap="round"/>
<path d="M76.9528 109.162C81.1407 111.666 84.4594 118.145 79.7019 123.669" stroke="#092733" stroke-width="2" stroke-miterlimit="10" stroke-linecap="round"/>
<path d="M83.9455 122.505C87.7995 117.141 84.802 108.865 77.897 107.164" stroke="#092733" stroke-width="2" stroke-miterlimit="10" stroke-linecap="round"/>
<path d="M72.6385 138.494V142.179C72.6385 143.743 69.5446 145.009 65.7292 145.009C61.9138 145.009 58.8199 143.743 58.8199 142.179V138.494C58.8199 139.2 59.4473 139.842 60.4857 140.338C61.7532 140.943 63.631 141.326 65.7292 141.326C67.8275 141.326 69.7052 140.943 70.9727 140.338C72.0112 139.842 72.6385 139.2 72.6385 138.494Z" stroke="#092733" stroke-width="2" stroke-miterlimit="10" stroke-linecap="round"/>
<path d="M24.6632 139.482C24.6632 140.188 24.0358 140.83 22.9974 141.326C21.7299 141.931 19.8522 142.314 17.7539 142.314C15.6556 142.314 13.7758 141.931 12.5104 141.326C11.4719 140.83 10.8446 140.188 10.8446 139.482C10.8446 137.919 13.9363 136.653 17.7539 136.653C21.5714 136.653 24.6632 137.919 24.6632 139.482Z" stroke="#092733" stroke-width="2" stroke-miterlimit="10" stroke-linecap="round"/>
<path d="M24.6632 139.482V143.167C24.6632 144.731 21.5693 145.997 17.7539 145.997C13.9385 145.997 10.8446 144.731 10.8446 143.167V139.482C10.8446 140.188 11.4719 140.83 12.5104 141.326C13.7758 141.931 15.6556 142.314 17.7539 142.314C19.8522 142.314 21.7299 141.931 22.9974 141.326C24.0358 140.83 24.6632 140.188 24.6632 139.482Z" stroke="#092733" stroke-width="2" stroke-miterlimit="10" stroke-linecap="round"/>
<path d="M31.96 128.87C30.614 129.259 29.2182 129.449 27.817 129.435C25.7187 129.435 23.841 129.052 22.5735 128.447C21.5372 127.953 20.9099 127.309 20.9099 126.605" stroke="#092733" stroke-width="2" stroke-miterlimit="10" stroke-linecap="round"/>
<path d="M20.9077 130.288C20.9077 131.852 24.0016 133.12 27.817 133.12C29.2182 133.134 30.614 132.944 31.96 132.555" stroke="#092733" stroke-width="2" stroke-miterlimit="10" stroke-linecap="round"/>
<path d="M32.0243 128.045L31.96 128.023" stroke="#092733" stroke-width="2" stroke-miterlimit="10" stroke-linecap="round"/>
<path d="M22.5732 128.447H22.5714" stroke="#092733" stroke-width="2" stroke-miterlimit="10" stroke-linecap="round"/>
<path d="M20.9077 126.605V130.288" stroke="#092733" stroke-width="2" stroke-miterlimit="10" stroke-linecap="round"/>
<path d="M20.9077 122.987C20.9077 123.451 21.1796 123.889 21.6635 124.27C21.9239 124.472 22.2053 124.647 22.5028 124.789C23.7703 125.414 25.6802 125.812 27.817 125.812C28.3956 125.812 28.9737 125.782 29.5491 125.722V125.722C30.7868 125.616 31.9974 125.301 33.129 124.789C34.1246 124.3 34.7241 123.667 34.7241 122.98" stroke="#092733" stroke-width="2" stroke-miterlimit="10" stroke-linecap="round"/>
<path d="M33.0624 121.147H33.0605" stroke="#092733" stroke-width="2" stroke-miterlimit="10" stroke-linecap="round"/>
<path d="M22.5732 121.147H22.5714" stroke="#092733" stroke-width="2" stroke-miterlimit="10" stroke-linecap="round"/>
<path d="M34.7263 125.395V122.987" stroke="#092733" stroke-width="2" stroke-miterlimit="10" stroke-linecap="round"/>
<path d="M20.9077 122.989V126.672" stroke="#092733" stroke-width="2" stroke-miterlimit="10" stroke-linecap="round"/>
<path d="M34.7263 119.304C34.7263 120.007 34.0989 120.651 33.0627 121.147C31.7951 121.75 29.9174 122.133 27.8191 122.133C25.7209 122.133 23.8431 121.75 22.5756 121.147C21.5393 120.651 20.912 120.007 20.912 119.304" stroke="#092733" stroke-width="2" stroke-miterlimit="10" stroke-linecap="round"/>
<path d="M34.7263 119.304V122.989" stroke="#092733" stroke-width="2" stroke-miterlimit="10" stroke-linecap="round"/>
<path d="M20.9077 119.304V122.989" stroke="#092733" stroke-width="2" stroke-miterlimit="10" stroke-linecap="round"/>
<path d="M27.817 118.448C31.6329 118.448 34.7263 117.181 34.7263 115.619C34.7263 114.056 31.6329 112.789 27.817 112.789C24.0011 112.789 20.9077 114.056 20.9077 115.619C20.9077 117.181 24.0011 118.448 27.817 118.448Z" stroke="#092733" stroke-width="2" stroke-miterlimit="10" stroke-linecap="round"/>
<path d="M34.7263 115.619V119.304" stroke="#092733" stroke-width="2" stroke-miterlimit="10" stroke-linecap="round"/>
<path d="M20.9077 115.619V119.304" stroke="#092733" stroke-width="2" stroke-miterlimit="10" stroke-linecap="round"/>
<path d="M72.6385 138.494C72.6385 139.2 72.0112 139.842 70.9727 140.338C69.7052 140.943 67.8275 141.326 65.7292 141.326C63.631 141.326 61.7532 140.943 60.4857 140.338C59.4473 139.842 58.8199 139.2 58.8199 138.494C58.8199 137.339 60.5093 136.356 62.9308 135.907C63.8552 135.742 64.7925 135.662 65.7314 135.665C68.2493 135.665 70.4525 136.217 71.66 137.04C72.2809 137.466 72.6385 137.962 72.6385 138.494Z" stroke="#092733" stroke-width="2" stroke-miterlimit="10" stroke-linecap="round"/>
<path d="M75.7688 134.521V134.452" stroke="#092733" stroke-width="2" stroke-miterlimit="10" stroke-linecap="round"/>
<path d="M75.7688 130.836V134.452C75.7688 135.607 74.0794 136.602 71.6579 137.04C70.4503 136.217 68.2471 135.665 65.7292 135.665C64.7911 135.662 63.8545 135.743 62.9308 135.907C62.3078 135.479 61.9502 134.985 61.9502 134.452V130.836C61.9502 131.522 62.5476 132.153 63.5432 132.645C64.8107 133.269 66.7205 133.667 68.8573 133.667C70.9941 133.667 72.9061 133.269 74.1715 132.645C75.1714 132.153 75.7688 131.531 75.7688 130.836Z" stroke="#092733" stroke-width="2" stroke-miterlimit="10" stroke-linecap="round"/>
<path d="M61.9502 134.521V134.452" stroke="#092733" stroke-width="2" stroke-miterlimit="10" stroke-linecap="round"/>
<path d="M75.7688 127.153V130.836C75.7688 131.522 75.1714 132.153 74.1758 132.645C72.9104 133.269 70.9984 133.667 68.8616 133.667C66.7248 133.667 64.815 133.269 63.5474 132.645C62.5518 132.153 61.9545 131.522 61.9545 130.836V127.153C61.9545 127.856 62.5797 128.498 63.6181 128.994C64.8856 129.599 66.7655 129.982 68.8638 129.982C70.962 129.982 72.844 129.599 74.1094 128.994C75.1521 128.498 75.7688 127.856 75.7688 127.153Z" stroke="#092733" stroke-width="2" stroke-miterlimit="10" stroke-linecap="round"/>
<path d="M75.7687 123.468C75.765 123.725 75.6861 123.976 75.5418 124.189C75.2741 124.616 74.7753 124.991 74.103 125.311C72.8376 125.914 70.9577 126.297 68.8595 126.297C67.5919 126.307 66.3283 126.154 65.0997 125.842V125.842C64.5908 125.71 64.0949 125.533 63.6181 125.311C62.5797 124.815 61.9523 124.174 61.9523 123.468C61.9523 121.904 65.0462 120.638 68.8616 120.638C72.677 120.638 75.7687 121.907 75.7687 123.468Z" stroke="#092733" stroke-width="2" stroke-miterlimit="10" stroke-linecap="round"/>
<path d="M75.7688 123.468V127.153C75.7688 127.856 75.1436 128.498 74.1051 128.994C72.8397 129.599 70.9599 129.982 68.8595 129.982C66.7591 129.982 64.8749 129.606 63.6138 128.994C62.5754 128.498 61.9502 127.856 61.9502 127.153V123.468C61.9502 124.174 62.5775 124.815 63.616 125.311C64.09 125.532 64.583 125.71 65.089 125.842C66.3176 126.154 67.5812 126.307 68.8488 126.297C70.947 126.297 72.8269 125.914 74.0923 125.311C74.7646 124.991 75.2635 124.61 75.5311 124.189C75.6792 123.977 75.7619 123.726 75.7688 123.468V123.468Z" stroke="#092733" stroke-width="2" stroke-miterlimit="10" stroke-linecap="round"/>
<path d="M31.96 135.028C31.96 136.591 35.0539 137.859 38.8693 137.859C42.6847 137.859 45.7786 136.591 45.7786 135.028" stroke="#092733" stroke-width="2" stroke-miterlimit="10" stroke-linecap="round"/>
<path d="M31.96 131.345C31.9775 131.744 32.1531 132.12 32.4482 132.391C32.7903 132.723 33.1882 132.992 33.6236 133.186C34.8912 133.791 36.771 134.174 38.8693 134.174C40.9676 134.174 42.8474 133.791 44.115 133.186C45.1534 132.69 45.7786 132.048 45.7786 131.345" stroke="#092733" stroke-width="2" stroke-miterlimit="10" stroke-linecap="round"/>
<path d="M45.7786 131.345V135.028" stroke="#092733" stroke-width="2" stroke-miterlimit="10" stroke-linecap="round"/>
<path d="M31.96 131.345V135.028" stroke="#092733" stroke-width="2" stroke-miterlimit="10" stroke-linecap="round"/>
<path d="M38.8693 130.489C42.6852 130.489 45.7786 129.222 45.7786 127.66C45.7786 126.097 42.6852 124.83 38.8693 124.83C35.0534 124.83 31.96 126.097 31.96 127.66C31.96 129.222 35.0534 130.489 38.8693 130.489Z" stroke="#092733" stroke-width="2" stroke-miterlimit="10" stroke-linecap="round"/>
<path d="M45.7786 127.66V131.345" stroke="#092733" stroke-width="2" stroke-miterlimit="10" stroke-linecap="round"/>
<path d="M31.96 127.66V131.345" stroke="#092733" stroke-width="2" stroke-miterlimit="10" stroke-linecap="round"/>
<path d="M58.8948 51.7718C57.4774 45.7428 62.4619 40.5329 67.3628 41.953C72.2638 43.3731 72.5421 52.5866 68.3434 56.1283" stroke="#092733" stroke-width="2" stroke-linecap="round" stroke-linejoin="round"/>
<path d="M66.044 47.6312L64.3911 53.04" stroke="#092733" stroke-width="2" stroke-linecap="round" stroke-linejoin="round"/>
<path d="M47.8254 46.7501V53.3009" stroke="#092733" stroke-width="2" stroke-linecap="round" stroke-linejoin="round"/>
<path d="M38.2098 58.4659C42.978 53.2389 64.0249 46.6688 69.3691 57.8243" stroke="#092733" stroke-width="2" stroke-linecap="round" stroke-linejoin="round"/>
<path d="M54.9703 90.7498C56.439 90.2857 58.0084 90.5573 59.064 91.6053C59.2755 91.8167 59.4597 92.0539 59.6121 92.3111C60.3294 93.5152 60.3165 95.0914 59.6121 96.458C59.3629 96.9449 59.0385 97.3895 58.6508 97.7755C57.4389 98.986 55.8096 99.4715 54.3857 99.1913" stroke="#092733" stroke-width="2" stroke-linecap="round" stroke-linejoin="round"/>
<path d="M60.5413 93.0853C62.13 94.6743 61.9437 97.4375 60.1238 99.2554C59.9966 99.3827 59.863 99.5033 59.7234 99.6169C58.0791 100.96 55.8695 101.125 54.3707 100.021" stroke="#092733" stroke-width="2" stroke-linecap="round" stroke-linejoin="round"/>
<path d="M60.5392 93.0853L59.064 91.6117" stroke="#092733" stroke-width="2" stroke-linecap="round" stroke-linejoin="round"/>
<path d="M45.8021 94.0178C45.1004 93.1238 44.723 92.0184 44.7316 90.8824C44.7316 88.3159 46.5558 86.2286 48.7997 86.2286C51.0435 86.2286 52.8677 88.3117 52.8677 90.8824C52.8689 91.3291 52.8121 91.7741 52.6986 92.2063C52.5003 93.0089 52.0959 93.7461 51.5253 94.345C51.4353 94.4369 51.3433 94.5246 51.2469 94.608" stroke="#092733" stroke-width="2" stroke-linecap="round" stroke-linejoin="round"/>
<path d="M52.2854 95.2582C53.8526 94.6166 54.9703 92.9056 54.9703 90.8824C54.9703 90.8375 54.9703 90.7926 54.9703 90.7498C54.9082 88.2411 53.1118 86.2264 50.9022 86.2264" stroke="#092733" stroke-width="2" stroke-linecap="round" stroke-linejoin="round"/>
<path d="M50.9001 86.2286H48.8125" stroke="#092733" stroke-width="2" stroke-linecap="round" stroke-linejoin="round"/>
<path d="M47.5 49.062C52.8011 49.062 57.0985 46.5169 57.0985 43.3773C57.0985 40.2378 52.8011 37.6926 47.5 37.6926C42.1989 37.6926 37.9015 40.2378 37.9015 43.3773C37.9015 46.5169 42.1989 49.062 47.5 49.062Z" fill="#010101"/>
</svg>
