<svg width="22" height="21" viewBox="0 0 22 21" fill="none" xmlns="http://www.w3.org/2000/svg">
<path d="M13.7832 10.501C13.7832 11.3712 13.4375 12.2058 12.8221 12.8212C12.2068 13.4365 11.3722 13.7822 10.502 13.7822C9.63171 13.7822 8.79711 13.4365 8.18176 12.8212C7.56641 12.2058 7.2207 11.3712 7.2207 10.501C7.2207 10.3139 7.24039 10.1313 7.2743 9.9541H6.12695V14.3258C6.12695 14.6299 6.37305 14.876 6.67711 14.876H14.3279C14.4736 14.8757 14.6133 14.8176 14.7162 14.7145C14.8191 14.6113 14.877 14.4715 14.877 14.3258V9.9541H13.7296C13.7635 10.1313 13.7832 10.3139 13.7832 10.501ZM10.502 12.6885C10.7893 12.6884 11.0738 12.6317 11.3392 12.5217C11.6047 12.4117 11.8458 12.2505 12.049 12.0472C12.2521 11.844 12.4132 11.6027 12.5231 11.3373C12.633 11.0718 12.6895 10.7872 12.6895 10.4999C12.6894 10.2125 12.6327 9.92803 12.5227 9.66259C12.4127 9.39716 12.2514 9.15599 12.0482 8.95286C11.845 8.74973 11.6037 8.58862 11.3382 8.47873C11.0727 8.36884 10.7882 8.31231 10.5009 8.31238C9.92055 8.31253 9.36407 8.54319 8.95384 8.95363C8.5436 9.36407 8.31321 9.92067 8.31336 10.501C8.3135 11.0813 8.54417 11.6378 8.95461 12.048C9.36505 12.4582 9.92165 12.6886 10.502 12.6885ZM13.127 8.2041H14.4384C14.5255 8.2041 14.6091 8.16957 14.6708 8.10806C14.7325 8.04656 14.7673 7.9631 14.7676 7.87598V6.56457C14.7676 6.47726 14.7329 6.39352 14.6712 6.33178C14.6094 6.27004 14.5257 6.23535 14.4384 6.23535H13.127C13.0396 6.23535 12.9559 6.27004 12.8942 6.33178C12.8324 6.39352 12.7977 6.47726 12.7977 6.56457V7.87598C12.7988 8.05645 12.9465 8.2041 13.127 8.2041ZM10.502 0.000976562C7.71718 0.000976563 5.04646 1.10722 3.07733 3.07636C1.1082 5.04549 0.00195313 7.7162 0.00195312 10.501C0.00195313 13.2858 1.1082 15.9565 3.07733 17.9256C5.04646 19.8947 7.71718 21.001 10.502 21.001C11.8808 21.001 13.2462 20.7294 14.5201 20.2017C15.794 19.674 16.9516 18.9006 17.9266 17.9256C18.9016 16.9506 19.675 15.7931 20.2027 14.5192C20.7304 13.2452 21.002 11.8799 21.002 10.501C21.002 9.1221 20.7304 7.75672 20.2027 6.4828C19.675 5.20888 18.9016 4.05137 17.9266 3.07636C16.9516 2.10134 15.794 1.32792 14.5201 0.800242C13.2462 0.272567 11.8808 0.000976563 10.502 0.000976562ZM15.9707 14.7546C15.9707 15.4229 15.4238 15.9697 14.7555 15.9697H6.24836C5.58008 15.9697 5.0332 15.4229 5.0332 14.7546V6.24738C5.0332 5.5791 5.58008 5.03223 6.24836 5.03223H14.7555C15.4238 5.03223 15.9707 5.5791 15.9707 6.24738V14.7546Z" fill="#FFFCED"/>
</svg>
