<svg width="301" height="36" viewBox="0 0 301 36" fill="none" xmlns="http://www.w3.org/2000/svg">
<g filter="url(#filter0_d)">
<path d="M32.88 33C31.816 31.488 30.976 29.64 30.36 27.848C29.856 26.336 29.296 24.824 28.736 23.312C27.168 19.112 25.936 14.8 24.312 10.656C23.304 8.08 22.184 5.504 21.4 2.816C21.4 2.816 21.344 2.76 21.288 2.76C19.888 2.76 18.488 2.872 17.088 3.152C16.528 3.264 15.968 3.376 15.408 3.544C15.072 3.656 14.568 3.768 14.288 3.992C14.064 4.16 14.008 4.44 13.896 4.72C13.672 5.112 13.504 5.504 13.28 5.896C12.944 6.568 12.608 7.296 12.272 7.968C11.656 9.256 11.04 10.544 10.424 11.776C9.248 14.184 8.016 16.592 6.84 19C5.496 21.632 4.32 24.376 2.976 27.064C2.472 28.128 1.968 29.136 1.408 30.2C0.904 31.096 0.512 32.048 0.00800006 33C0.00800006 33.056 0.00800006 33.112 0.0640001 33.112C2.696 33.112 5.384 33.112 8.016 33.112C8.016 33.112 8.072 33.112 8.072 33.056C8.464 31.824 9.136 30.704 9.584 29.472C10.144 27.96 10.704 26.448 11.32 24.992C14.792 24.88 18.32 24.712 21.848 24.488C22.128 25.272 22.464 26.112 22.688 26.896C23.304 28.968 23.808 31.04 24.424 33.056C24.48 33.112 24.48 33.112 24.536 33.112C26.944 33.112 29.352 33.112 31.76 33.112C32.096 33.112 32.488 33.112 32.824 33.112C32.88 33.112 32.936 33.056 32.88 33ZM19.888 19.224C17.816 19.336 15.688 19.504 13.56 19.616V19.56C13.896 18.664 14.176 17.712 14.512 16.816C14.904 15.864 15.296 14.912 15.688 13.96C16.136 12.896 16.584 11.888 17.088 10.88C17.648 12.616 18.264 14.352 18.88 16.088C19.216 17.152 19.552 18.16 19.888 19.224ZM56.5693 12.336C55.0573 10.432 52.6493 9.368 50.3533 9.312C48.3373 9.312 46.2093 9.592 44.5293 10.712C43.5773 11.384 42.8493 12.28 42.2333 13.288C42.2333 12.896 42.2893 12.56 42.2893 12.224C42.2893 11.272 42.2333 10.376 42.2333 9.424C42.2333 9.368 42.1773 9.312 42.1213 9.312C40.9453 9.312 39.7693 9.368 38.5933 9.648C37.6413 9.928 36.7453 10.264 35.7933 10.656C35.7373 10.656 35.7373 10.656 35.7373 10.712C35.7373 11.72 35.6253 12.672 35.5693 13.68C35.4573 14.912 35.3453 16.144 35.2333 17.376C34.9533 21.072 34.8973 24.768 35.0093 28.408C35.0653 29.976 35.0653 31.488 35.1773 33.056C35.2333 33.056 35.2333 33.112 35.2893 33.112C37.7533 33.112 40.2173 33.056 42.6813 33.112C42.7373 33.112 42.7933 33.056 42.7933 33C42.4573 31.32 42.4013 29.584 42.4013 27.848C42.3453 26.168 42.4013 24.488 42.6253 22.808C42.7373 21.688 42.7933 20.512 43.1853 19.392C43.6333 17.992 44.5293 16.872 45.8733 16.256C47.7213 15.416 50.4093 15.64 51.7533 17.32C51.8093 17.32 51.8093 17.32 51.8653 17.32C52.8173 16.76 53.7133 16.088 54.4973 15.304C55.3373 14.52 56.1773 13.568 56.5693 12.392V12.336ZM77.8935 26.616C77.0535 26 76.0455 25.552 75.0935 25.216C73.9735 24.824 72.7975 24.544 71.5655 24.544H71.5095C70.6135 26.336 69.1575 27.96 67.0295 28.128C65.1255 28.296 63.9495 26.784 63.3895 25.104C62.7735 23.312 62.8295 21.296 63.3895 19.448C63.8935 17.824 64.9015 16.032 66.5255 15.248C68.7095 14.184 71.0615 15.472 71.9575 17.6C72.0135 17.656 72.0135 17.656 72.0695 17.656C73.6935 16.648 75.3175 15.584 76.9415 14.576C76.9975 14.576 76.9975 14.52 76.9975 14.464C75.7095 12.392 73.9175 10.6 71.6215 9.816C68.0935 8.696 64.0615 9.648 61.1495 11.832C58.4615 13.904 56.8935 17.488 56.5015 20.792C56.1655 24.096 57.1175 27.624 59.4135 30.144C61.7655 32.72 65.4615 34.008 68.9335 33.672C70.8935 33.448 72.7975 32.72 74.3095 31.544C75.9335 30.312 77.1655 28.576 77.9495 26.728C77.9495 26.672 77.9495 26.672 77.8935 26.616ZM101.184 33C100.288 30.592 99.8398 28.016 99.6718 25.44C99.5598 23.704 99.6718 21.968 99.8958 20.232C100.12 18.888 100.288 17.488 100.232 16.144C100.12 13.68 99.0558 11.16 96.7598 10.04C95.3598 9.368 93.7918 9.312 92.2798 9.312C90.9358 9.368 89.4798 9.424 88.1918 9.816C86.9038 10.208 85.7278 10.936 84.8318 11.944C83.5998 13.232 82.4798 14.968 82.0878 16.76C82.0878 16.816 82.0878 16.816 82.0878 16.816V16.872C82.7038 17.264 83.4318 17.488 84.1038 17.712C84.9438 17.936 85.8398 18.104 86.7358 18.048C86.7918 18.048 86.7918 18.048 86.8478 17.992C87.5198 16.536 88.5278 14.856 90.1518 14.352C90.9918 14.072 91.8878 14.128 92.6718 14.52C93.5118 14.968 94.0158 15.752 94.2958 16.704C94.5758 17.656 94.4638 18.608 94.2958 19.616C94.2398 19.784 94.2398 19.896 94.1838 20.064C93.2878 19.728 92.2798 19.504 91.3278 19.448C89.6478 19.224 87.9118 19.28 86.2318 19.56C82.4238 20.064 79.8478 23.592 79.9038 27.344C79.9038 28.408 80.0718 29.584 80.5198 30.592C80.8558 31.32 81.5278 31.992 82.1438 32.552C82.8718 33.056 83.5998 33.28 84.4958 33.392C85.3918 33.56 86.2878 33.672 87.1838 33.728C89.4798 33.784 91.9438 32.944 93.6238 31.32C93.7358 31.208 93.7918 31.096 93.9038 30.928C94.0158 31.656 94.1278 32.384 94.2958 33.056C94.2958 33.112 94.3518 33.112 94.3518 33.112C96.5918 33.112 98.8878 33.112 101.128 33.112C101.184 33.112 101.24 33.056 101.184 33ZM91.5518 27.568C91.0478 28.016 90.5998 28.464 89.9838 28.744C89.4798 28.968 88.8638 29.08 88.3038 29.136C87.0718 29.304 85.3918 28.912 85.6718 27.232C85.8958 25.664 87.4078 24.488 88.8638 24.152C89.8158 23.928 90.7678 23.872 91.7198 23.928C92.2238 23.928 93.0078 23.872 93.5118 24.152C93.4558 25.496 92.4478 26.672 91.5518 27.568ZM126.215 33C125.599 30.76 125.487 28.408 125.431 26.056C125.375 23.984 125.375 21.912 125.487 19.84C125.543 17.824 125.487 15.808 125.487 13.792C125.543 11.72 125.543 9.648 125.543 7.576C125.599 6.4 125.543 5.168 125.599 3.992C125.655 2.76 125.823 1.528 125.991 0.295997C125.991 0.239998 125.935 0.183999 125.879 0.183999C124.535 0.183999 123.191 0.295997 121.847 0.463998C121.175 0.519998 120.335 0.631999 119.719 0.967999C119.663 0.967999 119.663 0.967999 119.663 0.967999V1.024C119.607 3.32 119.607 5.616 119.551 7.912C119.551 8.808 119.551 9.76 119.551 10.656C118.711 10.208 117.815 9.816 116.863 9.648C115.463 9.312 114.119 9.48 112.719 9.816C110.367 10.432 108.239 11.72 106.671 13.568C105.663 14.8 104.935 16.2 104.431 17.712C103.479 20.568 102.975 23.816 103.703 26.784C103.871 27.456 104.151 28.184 104.487 28.8C105.719 31.152 107.903 33.056 110.591 33.56C113.615 34.12 116.751 33.112 119.271 31.544C119.383 31.488 119.495 31.432 119.607 31.32C119.607 31.88 119.663 32.496 119.663 33.056C119.663 33.056 119.663 33.112 119.719 33.112C121.847 33.112 123.975 33.112 126.103 33.112C126.159 33.112 126.215 33.056 126.215 33ZM117.815 24.824C116.751 26.784 114.679 28.688 112.271 28.016C109.415 27.232 109.023 23.704 109.583 21.24C110.087 18.944 111.375 16.48 113.615 15.416C114.679 14.856 116.023 14.632 117.143 15.304C117.983 15.808 118.487 16.872 118.711 17.768C119.383 20.12 118.991 22.696 117.815 24.824ZM151.097 29.584C150.313 28.8 149.249 28.24 148.297 27.68C147.289 27.12 146.225 26.616 145.161 26.336C144.937 26.224 144.881 26.336 144.657 26.448C144.377 26.672 144.041 26.84 143.705 26.952C142.977 27.288 142.193 27.512 141.409 27.624C140.121 27.792 138.889 27.68 137.769 27.176C136.425 26.56 135.361 25.496 135.081 24.04C138.161 23.872 141.241 23.984 144.321 23.928C145.721 23.872 147.121 23.816 148.521 23.76C149.081 23.76 149.641 23.76 150.201 23.704C150.593 23.648 150.649 23.424 150.761 23.032C151.601 20.176 151.097 16.816 149.473 14.352C148.129 12.392 146.281 10.6 144.041 9.816C142.809 9.368 141.465 9.312 140.177 9.312C138.665 9.312 137.153 9.592 135.697 10.152C134.633 10.6 133.569 11.216 132.673 11.944C131.721 12.784 130.993 13.848 130.321 14.912C128.641 17.6 128.025 21.016 128.417 24.208C128.753 27.12 130.489 29.864 132.785 31.656C133.793 32.44 134.969 32.832 136.201 33.112C137.881 33.504 139.673 33.672 141.353 33.728C144.209 33.728 146.953 33.056 149.249 31.376C149.921 30.872 150.537 30.312 151.097 29.696C151.153 29.696 151.153 29.64 151.153 29.64C151.097 29.64 151.097 29.584 151.097 29.584ZM137.377 16.032C138.553 15.024 140.121 14.464 141.689 14.688C143.089 14.968 144.041 15.92 144.713 17.096C145.049 17.656 145.329 18.328 145.329 19C145.329 19.056 145.329 19.336 145.273 19.392C145.217 19.504 144.937 19.448 144.825 19.448C144.433 19.448 143.985 19.448 143.593 19.448C142.753 19.504 141.969 19.504 141.185 19.504C140.569 19.448 139.953 19.392 139.393 19.336C137.993 19.336 136.593 19.392 135.137 19.448C135.641 18.216 136.425 16.984 137.377 16.032ZM187.682 29.192C187.626 27.568 187.57 25.944 187.57 24.376C187.57 22.024 187.458 19.672 187.346 17.32C187.178 15.136 187.122 12.952 187.01 10.768C186.842 8.136 186.618 5.504 186.618 2.872C186.618 2.816 186.562 2.816 186.562 2.816C184.77 2.816 182.978 2.984 181.242 3.432C180.682 3.6 180.122 3.712 179.562 3.936C179.282 4.048 179.226 4.216 179.114 4.496C178.89 5 178.61 5.504 178.33 5.952C177.434 7.632 176.482 9.312 175.586 10.992C174.914 12.224 174.242 13.456 173.514 14.688C172.506 16.424 171.498 18.16 170.546 19.896C169.706 18.44 168.978 16.984 168.306 15.472C167.69 14.072 166.962 12.728 166.29 11.328C165.506 9.816 164.778 8.192 164.05 6.68C163.658 5.952 163.322 5.224 162.93 4.496C162.594 3.992 162.258 3.432 162.034 2.872C162.034 2.816 161.978 2.816 161.978 2.816C160.522 2.816 159.066 2.984 157.61 3.208C156.602 3.432 155.538 3.6 154.586 4.048L154.53 4.104C154.474 6.232 154.362 8.36 154.194 10.488C154.082 12.224 154.026 13.96 154.026 15.696C153.97 17.824 153.802 19.896 153.69 21.968C153.578 24.096 153.578 26.28 153.522 28.464C153.466 29.976 153.354 31.488 153.242 33.056C153.242 33.056 153.298 33.112 153.354 33.112C155.594 33.112 157.89 33.112 160.13 33.112C160.186 33.112 160.242 33.056 160.242 33.056C160.242 32.272 160.298 31.544 160.354 30.816C160.41 29.64 160.298 28.464 160.354 27.232C160.41 25.832 160.578 24.376 160.634 22.92C160.69 21.52 160.634 20.12 160.578 18.72C160.522 17.432 160.466 16.144 160.466 14.912C161.362 16.536 162.482 18.104 163.49 19.728C164.666 21.52 165.786 23.424 166.962 25.272C167.13 25.496 167.242 25.776 167.41 26C167.522 26.168 167.578 26.392 167.746 26.448C167.914 26.504 168.25 26.448 168.362 26.392C168.698 26.392 168.978 26.392 169.314 26.392C170.042 26.392 170.77 26.504 171.498 26.504C171.834 26.504 172.17 26.504 172.45 26.448C172.618 26.448 173.01 26.504 173.178 26.448C173.346 26.336 173.57 25.888 173.682 25.664C174.018 25.216 174.298 24.712 174.634 24.264C175.306 23.2 175.978 22.136 176.538 20.96C177.546 18.832 178.666 16.816 179.674 14.632C179.674 16.76 179.618 18.832 179.73 20.904C179.786 23.368 179.898 25.888 180.066 28.352C180.178 29.92 180.346 31.488 180.346 33C180.346 33.056 180.402 33.112 180.458 33.112C182.922 33.112 185.33 33.112 187.794 33.112C187.85 33.112 187.85 33.056 187.85 33.056C187.85 31.768 187.738 30.48 187.682 29.192ZM211.106 33C210.21 30.592 209.762 28.016 209.594 25.44C209.482 23.704 209.594 21.968 209.818 20.232C210.042 18.888 210.21 17.488 210.154 16.144C210.042 13.68 208.978 11.16 206.682 10.04C205.282 9.368 203.714 9.312 202.202 9.312C200.858 9.368 199.402 9.424 198.114 9.816C196.826 10.208 195.65 10.936 194.754 11.944C193.522 13.232 192.402 14.968 192.01 16.76C192.01 16.816 192.01 16.816 192.01 16.816V16.872C192.626 17.264 193.354 17.488 194.026 17.712C194.866 17.936 195.762 18.104 196.658 18.048C196.714 18.048 196.714 18.048 196.77 17.992C197.442 16.536 198.45 14.856 200.074 14.352C200.914 14.072 201.81 14.128 202.594 14.52C203.434 14.968 203.938 15.752 204.218 16.704C204.498 17.656 204.386 18.608 204.218 19.616C204.162 19.784 204.162 19.896 204.106 20.064C203.21 19.728 202.202 19.504 201.25 19.448C199.57 19.224 197.834 19.28 196.154 19.56C192.346 20.064 189.77 23.592 189.826 27.344C189.826 28.408 189.994 29.584 190.442 30.592C190.778 31.32 191.45 31.992 192.066 32.552C192.794 33.056 193.522 33.28 194.418 33.392C195.314 33.56 196.21 33.672 197.106 33.728C199.402 33.784 201.866 32.944 203.546 31.32C203.658 31.208 203.714 31.096 203.826 30.928C203.938 31.656 204.05 32.384 204.218 33.056C204.218 33.112 204.274 33.112 204.274 33.112C206.514 33.112 208.81 33.112 211.05 33.112C211.106 33.112 211.162 33.056 211.106 33ZM201.474 27.568C200.97 28.016 200.522 28.464 199.906 28.744C199.402 28.968 198.786 29.08 198.226 29.136C196.994 29.304 195.314 28.912 195.594 27.232C195.818 25.664 197.33 24.488 198.786 24.152C199.738 23.928 200.69 23.872 201.642 23.928C202.146 23.928 202.93 23.872 203.434 24.152C203.378 25.496 202.37 26.672 201.474 27.568ZM234.905 12.336C233.393 10.432 230.985 9.368 228.689 9.312C226.673 9.312 224.545 9.592 222.865 10.712C221.913 11.384 221.185 12.28 220.569 13.288C220.569 12.896 220.625 12.56 220.625 12.224C220.625 11.272 220.569 10.376 220.569 9.424C220.569 9.368 220.513 9.312 220.457 9.312C219.281 9.312 218.105 9.368 216.929 9.648C215.977 9.928 215.081 10.264 214.129 10.656C214.073 10.656 214.073 10.656 214.073 10.712C214.073 11.72 213.961 12.672 213.905 13.68C213.793 14.912 213.681 16.144 213.569 17.376C213.289 21.072 213.233 24.768 213.345 28.408C213.401 29.976 213.401 31.488 213.513 33.056C213.569 33.056 213.569 33.112 213.625 33.112C216.089 33.112 218.553 33.056 221.017 33.112C221.073 33.112 221.129 33.056 221.129 33C220.793 31.32 220.737 29.584 220.737 27.848C220.681 26.168 220.737 24.488 220.961 22.808C221.073 21.688 221.129 20.512 221.521 19.392C221.969 17.992 222.865 16.872 224.209 16.256C226.057 15.416 228.745 15.64 230.089 17.32C230.145 17.32 230.145 17.32 230.201 17.32C231.153 16.76 232.049 16.088 232.833 15.304C233.673 14.52 234.513 13.568 234.905 12.392V12.336ZM258.193 32.944C256.849 31.264 255.673 29.472 254.497 27.624C254.161 27.12 253.769 26.56 253.377 26.056C252.929 25.496 252.425 24.936 252.033 24.376C251.193 23.312 250.577 22.136 249.849 21.072C249.513 20.624 249.177 20.12 248.841 19.672C249.177 19.28 249.569 18.944 249.905 18.608C251.193 17.32 252.425 15.976 253.657 14.632C254.945 13.288 256.289 12.056 257.577 10.768C257.633 10.712 257.633 10.656 257.577 10.656C256.065 9.984 254.385 9.536 252.705 9.368C252.425 9.368 251.865 9.256 251.641 9.368C251.417 9.48 251.193 9.816 251.025 9.984C250.521 10.488 250.017 10.992 249.457 11.496C248.281 12.616 247.049 13.792 245.873 14.968C244.977 15.864 244.081 16.704 243.185 17.6C243.129 16.76 243.129 15.976 243.129 15.136C243.129 12.56 243.297 9.928 243.297 7.352C243.297 6.008 243.297 4.664 243.185 3.32C243.185 2.312 243.185 1.304 243.129 0.295997C243.129 0.295997 243.129 0.295997 243.129 0.239998L243.073 0.183999C241.897 0.183999 240.665 0.183999 239.489 0.295997C238.985 0.352 238.481 0.407999 237.977 0.519998C237.697 0.631999 237.305 0.687999 237.305 0.967999C237.249 1.304 237.305 1.752 237.305 2.088C237.305 2.424 237.305 2.76 237.305 3.096C237.305 3.712 237.305 4.328 237.305 4.944C237.417 6.344 237.249 7.688 237.249 9.088C237.193 10.488 237.305 11.832 237.305 13.176C237.361 14.352 237.305 15.472 237.249 16.648C237.193 19.28 237.249 21.968 237.305 24.6C237.361 27.4 237.193 30.256 236.969 33C236.969 33.056 237.025 33.112 237.025 33.112C239.041 33.112 241.057 33.112 243.073 33.112C243.129 33.112 243.185 33.056 243.185 33.056C243.185 31.6 243.297 30.144 243.353 28.744C243.353 27.736 243.353 26.784 243.353 25.832C243.857 25.216 244.361 24.544 244.865 23.928C245.593 24.936 246.321 26 247.049 27.008C247.889 28.24 248.729 29.584 249.457 30.928C249.793 31.6 250.129 32.272 250.633 32.832C250.969 33.168 251.081 33.112 251.529 33.112C252.089 33.112 252.593 33.112 253.153 33.112C254.833 33.112 256.457 33.112 258.137 33.112C258.193 33.112 258.249 33 258.193 32.944ZM280.05 29.584C279.266 28.8 278.202 28.24 277.25 27.68C276.242 27.12 275.178 26.616 274.114 26.336C273.89 26.224 273.834 26.336 273.61 26.448C273.33 26.672 272.994 26.84 272.658 26.952C271.93 27.288 271.146 27.512 270.362 27.624C269.074 27.792 267.842 27.68 266.722 27.176C265.378 26.56 264.314 25.496 264.034 24.04C267.114 23.872 270.194 23.984 273.274 23.928C274.674 23.872 276.074 23.816 277.474 23.76C278.034 23.76 278.594 23.76 279.154 23.704C279.546 23.648 279.602 23.424 279.714 23.032C280.554 20.176 280.05 16.816 278.426 14.352C277.082 12.392 275.234 10.6 272.994 9.816C271.762 9.368 270.418 9.312 269.13 9.312C267.618 9.312 266.106 9.592 264.65 10.152C263.586 10.6 262.522 11.216 261.626 11.944C260.674 12.784 259.946 13.848 259.274 14.912C257.594 17.6 256.978 21.016 257.37 24.208C257.706 27.12 259.442 29.864 261.738 31.656C262.746 32.44 263.922 32.832 265.154 33.112C266.834 33.504 268.626 33.672 270.306 33.728C273.162 33.728 275.906 33.056 278.202 31.376C278.874 30.872 279.49 30.312 280.05 29.696C280.106 29.696 280.106 29.64 280.106 29.64C280.05 29.64 280.05 29.584 280.05 29.584ZM266.33 16.032C267.506 15.024 269.074 14.464 270.642 14.688C272.042 14.968 272.994 15.92 273.666 17.096C274.002 17.656 274.282 18.328 274.282 19C274.282 19.056 274.282 19.336 274.226 19.392C274.17 19.504 273.89 19.448 273.778 19.448C273.386 19.448 272.938 19.448 272.546 19.448C271.706 19.504 270.922 19.504 270.138 19.504C269.522 19.448 268.906 19.392 268.346 19.336C266.946 19.336 265.546 19.392 264.09 19.448C264.594 18.216 265.378 16.984 266.33 16.032ZM300.426 30.256V30.2C298.97 29.192 297.626 27.904 296.73 26.336C296.674 26.28 296.618 26.28 296.618 26.28C295.106 27.344 293.146 28.24 291.41 27.12C290.682 26.672 290.402 25.888 290.346 25.048C290.29 24.208 290.346 23.312 290.346 22.416C290.346 20.68 290.402 19 290.458 17.32C290.514 16.928 290.514 16.592 290.514 16.2C290.626 16.2 290.738 16.2 290.906 16.2C292.362 16.144 293.874 16.368 295.386 16.424C295.442 16.424 295.442 16.368 295.498 16.312C295.554 15.36 295.834 14.352 296.114 13.4C296.45 12.504 296.842 11.552 297.346 10.768C297.402 10.712 297.346 10.6 297.29 10.6C294.938 10.6 292.642 10.656 290.346 10.656C290.346 9.872 290.402 9.144 290.402 8.416C290.458 7.296 290.346 6.176 290.346 5.056C290.29 5 290.29 5 290.234 4.944C289.562 4.944 288.89 4.832 288.162 4.832C286.986 4.776 285.754 4.776 284.522 5C284.466 5 284.466 5 284.466 5.056C284.466 6.568 284.354 8.08 284.354 9.592C284.354 9.928 284.354 10.264 284.354 10.656C283.85 10.656 283.402 10.656 282.898 10.656C282.394 10.656 281.89 10.6 281.386 10.6C281.33 10.6 281.33 10.656 281.33 10.712H281.274C281.162 12.504 281.05 14.296 280.938 16.032C280.938 16.088 280.994 16.144 280.994 16.144C282.226 16.2 283.458 16.312 284.69 16.368C284.69 18.832 284.466 21.352 284.354 23.816C284.298 26.168 284.018 28.912 285.25 31.04C285.642 31.712 286.314 32.44 287.042 32.776C288.218 33.336 289.562 33.56 290.85 33.672C294.21 33.896 298.354 33.28 300.482 30.368C300.482 30.312 300.482 30.256 300.426 30.256Z" fill="#1571FF"/>
</g>
<defs>
<filter id="filter0_d" x="0.00805664" y="0.184021" width="300.474" height="35.5466" filterUnits="userSpaceOnUse" color-interpolation-filters="sRGB">
<feFlood flood-opacity="0" result="BackgroundImageFix"/>
<feColorMatrix in="SourceAlpha" type="matrix" values="0 0 0 0 0 0 0 0 0 0 0 0 0 0 0 0 0 0 127 0" result="hardAlpha"/>
<feOffset dy="2"/>
<feComposite in2="hardAlpha" operator="out"/>
<feColorMatrix type="matrix" values="0 0 0 0 0 0 0 0 0 0.268661 0 0 0 0 0.683333 0 0 0 1 0"/>
<feBlend mode="normal" in2="BackgroundImageFix" result="effect1_dropShadow"/>
<feBlend mode="normal" in="SourceGraphic" in2="effect1_dropShadow" result="shape"/>
</filter>
</defs>
</svg>
