<svg width="21" height="21" viewBox="0 0 21 21" fill="none" xmlns="http://www.w3.org/2000/svg">
<path fill-rule="evenodd" clip-rule="evenodd" d="M21 10.5C21 16.2986 16.2986 21 10.5 21C4.70138 21 0 16.2986 0 10.5C0 4.70138 4.70138 0 10.5 0C16.2986 0 21 4.70138 21 10.5ZM17.227 9.67575C17.3967 9.91812 17.493 10.2043 17.5035 10.5C17.5081 10.7893 17.4306 11.074 17.2801 11.3212C17.1296 11.5683 16.9122 11.7678 16.653 11.8965C16.6652 12.0505 16.6652 12.2045 16.653 12.3585C16.653 14.7105 13.9125 16.6215 10.5315 16.6215C7.1505 16.6215 4.41 14.7105 4.41 12.3585C4.39818 12.2047 4.39818 12.0503 4.41 11.8965C4.20978 11.8028 4.03222 11.6668 3.88954 11.4979C3.74686 11.3291 3.64244 11.1313 3.58345 10.9182C3.52447 10.7052 3.51232 10.4819 3.54784 10.2637C3.58336 10.0455 3.6657 9.83753 3.78922 9.65417C3.91273 9.47082 4.07449 9.31638 4.26336 9.20148C4.45223 9.08658 4.66374 9.01394 4.88336 8.98856C5.10297 8.96317 5.32548 8.98564 5.53559 9.05442C5.74569 9.1232 5.93841 9.23666 6.1005 9.387C7.31039 8.56645 8.73378 8.11754 10.1955 8.0955L10.9725 4.452C10.9812 4.40982 10.9982 4.36979 11.0225 4.33423C11.0469 4.29868 11.078 4.2683 11.1141 4.24486C11.1503 4.22142 11.1907 4.20538 11.2331 4.19768C11.2754 4.18998 11.3189 4.19077 11.361 4.2L13.9335 4.7145C14.0591 4.49866 14.2576 4.33466 14.4932 4.25195C14.7289 4.16924 14.9863 4.17323 15.2192 4.2632C15.4522 4.35317 15.6455 4.52323 15.7644 4.74286C15.8833 4.96248 15.92 5.21729 15.8679 5.46155C15.8159 5.7058 15.6785 5.9235 15.4804 6.07558C15.2823 6.22765 15.0364 6.30414 14.787 6.2913C14.5376 6.27847 14.3009 6.17716 14.1195 6.00556C13.9381 5.83396 13.8237 5.60331 13.797 5.355L11.55 4.8825L10.8675 8.1585C12.3115 8.18948 13.7155 8.63805 14.91 9.45C15.0695 9.29669 15.2602 9.17973 15.4692 9.10715C15.6781 9.03457 15.9003 9.00809 16.1205 9.02954C16.3406 9.05099 16.5535 9.11986 16.7445 9.23141C16.9355 9.34296 17.1001 9.49454 17.227 9.67575ZM7.18025 10.9664C7.10361 11.0811 7.0503 11.2097 7.02338 11.345C6.99645 11.4803 6.99644 11.6195 7.02333 11.7548C7.07765 12.028 7.23827 12.2685 7.46987 12.4233C7.70148 12.578 7.98508 12.6345 8.2583 12.5802C8.39358 12.5533 8.52224 12.5 8.63693 12.4234C8.75163 12.3468 8.85011 12.2483 8.92675 12.1336C9.08154 11.902 9.13798 11.6184 9.08367 11.3452C9.02935 11.072 8.86873 10.8315 8.63713 10.6768C8.40553 10.522 8.12192 10.4655 7.8487 10.5198C7.57549 10.5741 7.33504 10.7348 7.18025 10.9664ZM10.5105 15.246C11.4424 15.2845 12.3594 15.0413 13.104 14.4795C13.1597 14.4252 13.1915 14.351 13.1925 14.2732C13.1935 14.1954 13.1636 14.1204 13.1093 14.0647C13.0824 14.0372 13.0503 14.0152 13.0149 14C12.9795 13.9848 12.9415 13.9767 12.903 13.9762C12.8252 13.9752 12.7502 14.0052 12.6945 14.0595C12.0573 14.5166 11.2831 14.7426 10.5 14.7C9.71787 14.7349 8.94729 14.5015 8.316 14.0385C8.2616 13.9939 8.19253 13.971 8.12224 13.9745C8.05194 13.9779 7.98544 14.0074 7.93568 14.0572C7.88591 14.1069 7.85644 14.1734 7.85299 14.2437C7.84953 14.314 7.87235 14.3831 7.917 14.4375C8.66195 14.9989 9.5785 15.2846 10.5105 15.246ZM12.3314 12.4653C12.5046 12.5808 12.6971 12.684 12.9045 12.684C13.0469 12.6857 13.1882 12.6583 13.3197 12.6036C13.4512 12.5489 13.5702 12.468 13.6694 12.3659C13.7686 12.2637 13.846 12.1424 13.8968 12.0093C13.9476 11.8763 13.9708 11.7343 13.965 11.592C13.9649 11.4106 13.9179 11.2324 13.8284 11.0746C13.739 10.9168 13.6102 10.7849 13.4546 10.6917C13.299 10.5985 13.122 10.5471 12.9406 10.5427C12.7593 10.5383 12.58 10.5809 12.42 10.6664C12.2601 10.7519 12.125 10.8774 12.0279 11.0306C11.9309 11.1838 11.8752 11.3596 11.8663 11.5407C11.8573 11.7219 11.8955 11.9022 11.977 12.0643C12.0585 12.2263 12.1806 12.3644 12.3314 12.4653Z" fill="#FFFCED"/>
</svg>
