<svg width="23" height="23" viewBox="0 0 23 23" fill="none" xmlns="http://www.w3.org/2000/svg">
<path d="M8.51174 17.106L1.94524 12.391C1.79058 12.2997 1.6624 12.1695 1.57337 12.0135C1.48433 11.8574 1.4375 11.6809 1.4375 11.5012C1.4375 11.3216 1.48433 11.145 1.57337 10.989C1.6624 10.833 1.79058 10.7028 1.94524 10.6114L8.51174 5.89355C8.66828 5.80148 8.84638 5.75246 9.02798 5.75148C9.20958 5.7505 9.3882 5.79758 9.54572 5.88794C9.70325 5.97831 9.83405 6.10874 9.92487 6.26601C10.0157 6.42327 10.0633 6.60176 10.0628 6.78336V8.6248C12.2191 8.6248 18.6878 8.6248 20.1253 20.1248C16.5316 13.656 10.0628 14.3748 10.0628 14.3748V16.2162C10.0628 17.0212 9.19168 17.5071 8.51174 17.1075V17.106Z" fill="#CAC197"/>
</svg>
