<svg width="25" height="25" viewBox="0 0 25 25" fill="none" xmlns="http://www.w3.org/2000/svg">
<path d="M23.3221 1.86833C23.3132 1.82515 23.2921 1.7854 23.2614 1.75375C23.2307 1.72209 23.1917 1.69985 23.1488 1.68962C20.2889 0.990401 13.681 3.4821 10.1009 7.06071C9.46237 7.69409 8.88025 8.38191 8.36116 9.11638C7.25716 9.01872 6.15315 9.10027 5.21224 9.51042C2.55745 10.6789 1.7845 13.7277 1.56917 15.0392C1.55695 15.111 1.56156 15.1847 1.58263 15.2544C1.60369 15.3241 1.64064 15.3879 1.69057 15.4409C1.7405 15.4939 1.80204 15.5346 1.87037 15.5598C1.93869 15.585 2.01192 15.594 2.08431 15.5861L6.34749 15.1159C6.35053 15.4373 6.36993 15.7584 6.40559 16.0778C6.42705 16.2996 6.52552 16.507 6.68392 16.6637L8.33479 18.3107C8.49173 18.4689 8.69896 18.5673 8.92073 18.589C9.23839 18.6246 9.55765 18.644 9.87727 18.6471L9.4095 22.905C9.4017 22.9773 9.41077 23.0505 9.43599 23.1188C9.46122 23.187 9.50192 23.2485 9.5549 23.2985C9.60788 23.3484 9.6717 23.3853 9.74135 23.4064C9.81101 23.4275 9.88461 23.4322 9.95638 23.4201C11.2655 23.2101 14.3197 22.4372 15.4813 19.7824C15.8914 18.8415 15.9754 17.7428 15.8807 16.6442C16.6169 16.1251 17.3066 15.5428 17.9417 14.904C21.533 11.3307 24.0106 4.87028 23.3221 1.86833ZM14.3587 10.6413C14.0308 10.3136 13.8074 9.89595 13.7169 9.44126C13.6263 8.98658 13.6726 8.51525 13.85 8.0869C14.0273 7.65854 14.3277 7.29241 14.7132 7.03481C15.0986 6.7772 15.5518 6.63971 16.0155 6.63971C16.4791 6.63971 16.9323 6.7772 17.3177 7.03481C17.7032 7.29241 18.0036 7.65854 18.1809 8.0869C18.3583 8.51525 18.4046 8.98658 18.3141 9.44126C18.2235 9.89595 18.0001 10.3136 17.6722 10.6413C17.4547 10.859 17.1965 11.0318 16.9122 11.1497C16.6279 11.2675 16.3232 11.3282 16.0155 11.3282C15.7077 11.3282 15.403 11.2675 15.1187 11.1497C14.8344 11.0318 14.5762 10.859 14.3587 10.6413Z" fill="#1571FF"/>
<path d="M8.22266 19.5034C7.95508 19.7715 7.52588 19.876 7.00928 19.9653C5.84863 20.1631 4.82373 19.1602 5.03223 17.9868C5.11182 17.542 5.34717 16.9185 5.49365 16.772C5.52567 16.7406 5.54698 16.6999 5.55456 16.6557C5.56214 16.6115 5.5556 16.566 5.53587 16.5257C5.51614 16.4855 5.48422 16.4524 5.44465 16.4313C5.40508 16.4102 5.35986 16.4021 5.31543 16.4082C4.66639 16.4876 4.06257 16.7819 3.6001 17.2441C2.45215 18.3931 2.34375 22.6562 2.34375 22.6562C2.34375 22.6562 6.60937 22.5478 7.75732 21.3989C8.22102 20.9368 8.51566 20.3321 8.59375 19.6821C8.61182 19.478 8.36328 19.3564 8.22266 19.5034Z" fill="#1571FF"/>
</svg>
