<svg width="14" height="14" viewBox="0 0 14 14" fill="currentColor" xmlns="http://www.w3.org/2000/svg">
<path d="M13.9261 0.195654C13.9204 0.168015 13.907 0.142577 13.8873 0.122319C13.8677 0.102062 13.8427 0.0878253 13.8152 0.0812787C11.9849 -0.366221 7.75583 1.22847 5.46458 3.51878C5.05592 3.92414 4.68336 4.36435 4.35114 4.8344C3.64458 4.7719 2.93802 4.82409 2.33583 5.08659C0.636768 5.8344 0.142081 7.78565 0.00426816 8.62503C-0.00354882 8.67097 -0.000600249 8.7181 0.0128819 8.76271C0.026364 8.80732 0.050012 8.84819 0.081966 8.88212C0.11392 8.91604 0.153309 8.94209 0.197034 8.95821C0.240759 8.97433 0.287628 8.98009 0.333956 8.97503L3.06239 8.67409C3.06434 8.8798 3.07675 9.08527 3.09958 9.28972C3.11331 9.43169 3.17633 9.56437 3.27771 9.66472L4.33427 10.7188C4.43471 10.82 4.56734 10.883 4.70927 10.8969C4.91257 10.9196 5.1169 10.9321 5.32146 10.9341L5.02208 13.6591C5.01709 13.7054 5.02289 13.7522 5.03903 13.7959C5.05518 13.8396 5.08123 13.879 5.11513 13.9109C5.14904 13.9429 5.18989 13.9665 5.23447 13.98C5.27905 13.9935 5.32615 13.9965 5.37208 13.9888C6.20989 13.8544 8.16458 13.3597 8.90802 11.6607C9.17052 11.0585 9.22427 10.3553 9.16364 9.65222C9.63484 9.31998 10.0762 8.94732 10.4827 8.53847C12.7811 6.25159 14.3668 2.1169 13.9261 0.195654ZM8.18958 5.81034C7.9797 5.6006 7.83675 5.33333 7.77879 5.04233C7.72083 4.75133 7.75048 4.44968 7.86398 4.17554C7.97748 3.90139 8.16974 3.66706 8.41644 3.5022C8.66313 3.33733 8.95318 3.24933 9.24989 3.24933C9.54661 3.24933 9.83666 3.33733 10.0834 3.5022C10.33 3.66706 10.5223 3.90139 10.6358 4.17554C10.7493 4.44968 10.779 4.75133 10.721 5.04233C10.663 5.33333 10.5201 5.6006 10.3102 5.81034C10.171 5.94971 10.0058 6.06028 9.82382 6.13571C9.64188 6.21115 9.44685 6.24998 9.24989 6.24998C9.05294 6.24998 8.85791 6.21115 8.67597 6.13571C8.49403 6.06028 8.32875 5.94971 8.18958 5.81034Z" fill="#CAC197"/>
</svg>
