<svg width="21" height="21" viewBox="0 0 21 21" fill="none" xmlns="http://www.w3.org/2000/svg">
<path d="M10.5 0.328125C4.88053 0.328125 0.328125 4.88119 0.328125 10.5C0.328125 16.1188 4.88119 20.6719 10.5 20.6719C16.1195 20.6719 20.6719 16.1188 20.6719 10.5C20.6719 4.88119 16.1188 0.328125 10.5 0.328125ZM15.496 7.29684L13.8265 15.164C13.7032 15.7218 13.3711 15.857 12.9078 15.5945L10.3648 13.7202L9.13828 14.9015C9.00309 15.0367 8.88825 15.1515 8.62575 15.1515L8.80622 12.5632L13.5188 8.3055C13.7242 8.12503 13.4735 8.02266 13.2024 8.20312L7.37822 11.8696L4.86806 11.086C4.32272 10.9141 4.31025 10.5407 4.98291 10.2782L14.7899 6.49622C15.2453 6.33216 15.643 6.60713 15.4954 7.29619L15.496 7.29684Z" fill="#FFFCED"/>
</svg>
