<svg width="21" height="21" viewBox="0 0 21 21" fill="none" xmlns="http://www.w3.org/2000/svg">
<path d="M20.105 7.44015L18.295 5.63013C18.149 5.48607 17.9543 5.40195 17.7493 5.39435C17.5443 5.38676 17.3439 5.45625 17.1876 5.58912C16.9463 5.7945 16.6366 5.90174 16.32 5.88958C16.0034 5.87743 15.7029 5.74677 15.478 5.52349C15.2549 5.29868 15.1243 4.99825 15.1121 4.68172C15.1 4.36519 15.2072 4.05564 15.4124 3.81437C15.5453 3.65808 15.6148 3.45768 15.6072 3.25269C15.5996 3.04769 15.5155 2.85298 15.3714 2.70695L13.5597 0.89488C13.4066 0.742072 13.1992 0.65625 12.9829 0.65625C12.7666 0.65625 12.5591 0.742072 12.406 0.89488L9.52053 3.77992C9.34238 3.9587 9.20803 4.1763 9.12801 4.41566C9.11242 4.46168 9.08645 4.50349 9.05209 4.53785C9.01773 4.57221 8.97592 4.59818 8.9299 4.61377C8.69044 4.69379 8.47282 4.8283 8.29416 5.0067L0.894941 12.4059C0.742133 12.559 0.656311 12.7665 0.656311 12.9828C0.656311 13.1991 0.742133 13.4066 0.894941 13.5597L2.70701 15.3697C2.85304 15.5138 3.04775 15.5979 3.25275 15.6055C3.45774 15.6131 3.65814 15.5436 3.81443 15.4107C4.05515 15.2037 4.36521 15.0952 4.68249 15.1072C4.99978 15.1191 5.30084 15.2505 5.52535 15.475C5.74986 15.6995 5.88123 16.0005 5.89315 16.3178C5.90506 16.6351 5.79663 16.9452 5.58959 17.1859C5.45672 17.3422 5.38723 17.5426 5.39483 17.7476C5.40242 17.9526 5.48654 18.1473 5.6306 18.2933L7.44062 20.1033C7.59373 20.2561 7.8012 20.3419 8.01751 20.3419C8.23382 20.3419 8.44129 20.2561 8.59439 20.1033L15.9936 12.7041C16.1719 12.5255 16.3064 12.3081 16.3865 12.0688C16.4021 12.0226 16.4281 11.9806 16.4625 11.9462C16.4969 11.9118 16.5389 11.8858 16.5851 11.8703C16.8243 11.7902 17.0418 11.6559 17.2204 11.4777L20.1054 8.59228C20.2577 8.43919 20.3431 8.23204 20.343 8.01613C20.343 7.80022 20.2574 7.59313 20.105 7.44015ZM10.7383 6.22404C10.6773 6.28499 10.605 6.33335 10.5254 6.36634C10.4457 6.39932 10.3604 6.4163 10.2742 6.4163C10.188 6.4163 10.1026 6.39932 10.023 6.36634C9.94339 6.33335 9.87104 6.28499 9.8101 6.22404L9.33801 5.75195C9.21793 5.62826 9.15135 5.46229 9.15265 5.28991C9.15394 5.11752 9.22302 4.95257 9.34494 4.83071C9.46687 4.70884 9.63185 4.63983 9.80423 4.63861C9.97661 4.63739 10.1426 4.70405 10.2662 4.82418L10.7383 5.29586C10.7992 5.3568 10.8476 5.42915 10.8806 5.50878C10.9136 5.58841 10.9305 5.67376 10.9305 5.75995C10.9305 5.84614 10.9136 5.93149 10.8806 6.01112C10.8476 6.09075 10.7992 6.1631 10.7383 6.22404ZM12.543 8.02873C12.4199 8.1517 12.2531 8.22079 12.0791 8.22079C11.9051 8.22079 11.7383 8.1517 11.6152 8.02873L11.164 7.57756C11.1031 7.51661 11.0547 7.44426 11.0217 7.36463C10.9888 7.285 10.9718 7.19965 10.9718 7.11346C10.9718 7.02727 10.9888 6.94193 11.0217 6.8623C11.0547 6.78267 11.1031 6.71032 11.164 6.64937C11.2871 6.52629 11.454 6.45714 11.6281 6.45714C11.7143 6.45714 11.7997 6.47412 11.8793 6.5071C11.9589 6.54008 12.0313 6.58843 12.0922 6.64937L12.5434 7.10054C12.6045 7.16148 12.6531 7.23389 12.6862 7.31361C12.7194 7.39334 12.7364 7.47883 12.7365 7.56517C12.7365 7.6515 12.7195 7.737 12.6864 7.81676C12.6534 7.89652 12.6049 7.96897 12.5438 8.02996L12.543 8.02873ZM14.3477 9.83342C14.2867 9.89437 14.2144 9.94272 14.1347 9.97571C14.0551 10.0087 13.9698 10.0257 13.8836 10.0257C13.7974 10.0257 13.712 10.0087 13.6324 9.97571C13.5528 9.94272 13.4804 9.89437 13.4195 9.83342L12.9683 9.38224C12.8482 9.25855 12.7816 9.09258 12.7829 8.9202C12.7842 8.74782 12.8533 8.58287 12.9752 8.461C13.0972 8.33913 13.2621 8.27013 13.4345 8.26891C13.6069 8.26768 13.7728 8.33434 13.8965 8.45447L14.3477 8.90564C14.409 8.96648 14.4577 9.03882 14.491 9.11853C14.5243 9.19824 14.5416 9.28374 14.5418 9.37013C14.542 9.45652 14.5251 9.54209 14.4921 9.62195C14.4592 9.7018 14.4108 9.77436 14.3497 9.83547L14.3477 9.83342ZM16.17 11.6603C16.109 11.7212 16.0367 11.7696 15.9571 11.8025C15.8774 11.8355 15.7921 11.8525 15.7059 11.8525C15.6197 11.8525 15.5343 11.8355 15.4547 11.8025C15.3751 11.7696 15.3027 11.7212 15.2418 11.6603L14.7726 11.1886C14.7103 11.1278 14.6608 11.0553 14.6269 10.9752C14.5929 10.8951 14.5752 10.8091 14.5748 10.7221C14.5744 10.6352 14.5912 10.549 14.6244 10.4686C14.6576 10.3882 14.7065 10.3152 14.7681 10.2538C14.8298 10.1925 14.903 10.144 14.9836 10.1112C15.0641 10.0784 15.1504 10.0619 15.2373 10.0628C15.3243 10.0636 15.4103 10.0817 15.4902 10.1161C15.5701 10.1504 15.6424 10.2003 15.7028 10.2628L16.1724 10.7341C16.2334 10.7951 16.2817 10.8675 16.3146 10.9471C16.3476 11.0267 16.3645 11.1121 16.3645 11.1983C16.3645 11.2845 16.3474 11.3698 16.3144 11.4494C16.2814 11.5291 16.233 11.6014 16.172 11.6623L16.17 11.6603Z" fill="#FFFEFB"/>
</svg>
