<svg width="22" height="21" viewBox="0 0 22 21" fill="none" xmlns="http://www.w3.org/2000/svg">
<path d="M10.7902 0.000976562C4.99172 0.000976562 0.290161 4.70254 0.290161 10.501C0.290161 16.2994 4.99172 21.001 10.7902 21.001C16.5886 21.001 21.2902 16.2994 21.2902 10.501C21.2902 4.70254 16.5886 0.000976562 10.7902 0.000976562ZM15.8363 7.91582C15.8433 8.02598 15.8433 8.14082 15.8433 8.25332C15.8433 11.6939 13.223 15.6572 8.43469 15.6572C6.95813 15.6572 5.58938 15.2283 4.43625 14.49C4.64719 14.5135 4.84876 14.5229 5.06438 14.5229C6.28313 14.5229 7.40344 14.1104 8.29641 13.4119C7.15266 13.3885 6.19172 12.6385 5.8636 11.6072C6.26438 11.6658 6.62532 11.6658 7.03782 11.5604C6.44889 11.4407 5.91956 11.1209 5.53973 10.6552C5.15991 10.1895 4.95302 9.60662 4.95422 9.00566V8.97285C5.29875 9.16738 5.70422 9.28691 6.12844 9.30332C5.77182 9.06565 5.47936 8.74366 5.27698 8.36589C5.07461 7.98812 4.96858 7.56626 4.96829 7.1377C4.96829 6.65254 5.09485 6.20957 5.32219 5.8252C5.97587 6.62989 6.79156 7.28803 7.71625 7.75683C8.64094 8.22564 9.65393 8.49462 10.6894 8.54629C10.3214 6.77676 11.6433 5.34473 13.2323 5.34473C13.9823 5.34473 14.6573 5.65879 15.1331 6.16504C15.7214 6.05488 16.2839 5.83457 16.7855 5.53926C16.5909 6.1416 16.1831 6.6502 15.6417 6.97129C16.1667 6.91504 16.673 6.76973 17.1417 6.56582C16.7878 7.08613 16.3448 7.54785 15.8363 7.91582Z" fill="#FFFCED"/>
</svg>
