<svg width="417" height="114" viewBox="0 0 417 114" fill="none" xmlns="http://www.w3.org/2000/svg">
<path d="M5.42 74.024V76.524H7.92H50.16C54.2507 76.524 57.9486 76.1292 61.196 75.2864V108.008V110.508H63.696H85.968H88.5582L88.4664 107.919L87.5307 81.5305L108.049 109.487L108.798 110.508H110.064H129.168H131.668V108.008V75.468H167.66C176.63 75.468 183.711 73.57 188.295 69.2118L188.295 69.211C192.868 64.8596 195.024 58.8942 195.024 51.656C195.024 48.041 194.366 44.8235 192.905 42.1252C191.53 39.5238 189.719 37.392 187.452 35.7999C186.461 35.0745 185.431 34.4496 184.365 33.9285C185.072 33.0427 185.705 32.0918 186.262 31.0776C187.678 28.5532 188.304 25.5094 188.304 22.088C188.304 15.5915 185.787 10.4593 180.634 7.12507C175.747 3.96297 169.431 2.5 161.9 2.5H125.42H123.618L123.048 4.20943L121.128 9.96943L120.918 10.5993L121.049 11.2503L122.92 20.6076V37.636H107.952H105.452V40.136V64.6393L104.548 63.0764L104.453 62.9123L104.335 62.7644L84.9427 38.5724L84.1921 37.636H82.992H70.9749C70.645 37.3631 70.3042 37.103 69.9524 36.8559C68.9606 36.1305 67.9314 35.5056 66.8655 34.9845C67.5724 34.0987 68.2047 33.1478 68.7617 32.1336C70.1783 29.6092 70.804 26.5654 70.804 23.144C70.804 16.6475 68.287 11.5152 63.1341 8.18106C58.2472 5.01896 51.9308 3.55599 44.4 3.55599H7.92H6.1181L5.54829 5.26542L3.62829 11.0254L3.41834 11.6553L3.54855 12.3063L5.42 21.6635V74.024ZM43.3655 27.5319L43.4091 27.5517L43.4534 27.5699C43.8085 27.7151 43.904 27.8434 43.9239 27.8723C43.9397 27.8953 44.012 28.0023 44.012 28.328C44.012 29.0431 43.8229 29.2965 43.6404 29.444C43.2804 29.6579 42.3342 29.956 40.368 29.956H31.54V26.796H39.408C41.055 26.796 42.3509 27.0707 43.3655 27.5319ZM160.866 26.4759L160.909 26.4957L160.953 26.5139C161.308 26.6591 161.404 26.7874 161.424 26.8163C161.44 26.8393 161.512 26.9463 161.512 27.272C161.512 27.9871 161.323 28.2405 161.14 28.3881C160.78 28.602 159.834 28.9 157.868 28.9H149.04V25.74H156.908C158.555 25.74 159.851 26.0147 160.866 26.4759ZM45.36 53.284H31.54V49.26H46.32C48.0508 49.26 48.8895 49.6069 49.2536 49.8888C49.4963 50.0767 49.772 50.4128 49.772 51.368C49.772 51.9544 49.5993 52.3187 49.2031 52.6555C48.8362 52.9058 47.7554 53.284 45.36 53.284ZM162.86 52.228H149.04V48.204H163.82C165.551 48.204 166.389 48.5509 166.754 48.8328C166.996 49.0207 167.272 49.3568 167.272 50.312C167.272 50.8984 167.099 51.2627 166.703 51.5995C166.336 51.8497 165.255 52.228 162.86 52.228Z" stroke="#A5A6F6" stroke-width="5"/>
<mask id="path-2-outside-1_2_14" maskUnits="userSpaceOnUse" x="213.32" y="10.568" width="203" height="80" fill="black">
<rect fill="white" x="213.32" y="10.568" width="203" height="80"/>
<path d="M218.76 70V30.544L217.32 23.344L218.76 19.024H243.24C248.664 19.024 253.008 20.032 256.272 22.048C259.536 24.064 261.168 27.328 261.168 31.84C261.168 34.096 260.784 36.136 260.016 37.96C259.248 39.784 258.144 41.2 256.704 42.208C259.968 43.264 262.368 44.872 263.904 47.032C265.44 49.192 266.208 51.76 266.208 54.736C266.208 59.968 264.672 63.832 261.6 66.328C258.576 68.776 254.136 70 248.28 70H218.76ZM231.72 38.824H243.096C244.728 38.824 245.904 38.44 246.624 37.672C247.344 36.904 247.704 35.896 247.704 34.648C247.704 33.064 247.176 31.984 246.12 31.408C245.064 30.832 243.816 30.544 242.376 30.544H231.72V38.824ZM231.72 58.48H246.12C247.848 58.48 249.12 58.264 249.936 57.832C250.8 57.4 251.352 56.848 251.592 56.176C251.88 55.504 252.024 54.808 252.024 54.088C252.024 52.84 251.568 51.784 250.656 50.92C249.792 50.008 248.52 49.552 246.84 49.552H231.72V58.48Z"/>
<path d="M279.136 33.928L269.992 24.712L279.136 15.568L288.28 24.712L279.136 33.928ZM272.656 70V46.168L271.144 40.408L272.584 36.016H285.616V70H272.656Z"/>
<path d="M293.679 70V48.328L292.239 40.408L294.471 36.016H305.199V39.112L305.847 39.544C306.375 39.064 307.095 38.512 308.007 37.888C308.967 37.216 310.119 36.616 311.463 36.088C312.807 35.56 314.319 35.296 315.999 35.296C320.319 35.296 323.559 36.52 325.719 38.968C327.879 41.416 328.959 44.848 328.959 49.264V58.408L330.471 65.608L328.959 70H315.999V51.136C315.999 49.312 315.591 47.92 314.775 46.96C314.007 45.952 312.783 45.448 311.103 45.448L306.639 46.816V70H293.679Z"/>
<path d="M351.526 87.496C350.326 87.496 348.958 87.448 347.422 87.352C345.886 87.304 344.638 87.232 343.678 87.136L334.894 82.888L338.494 73.528L349.798 77.2C356.182 77.2 359.374 74.536 359.374 69.208V67.84L358.654 67.48C357.982 68.152 356.902 68.848 355.414 69.568C353.974 70.24 351.694 70.576 348.574 70.576C346.318 70.576 344.134 70.024 342.022 68.92C339.91 67.768 338.182 65.944 336.838 63.448C335.542 60.952 334.894 57.712 334.894 53.728C334.894 49.264 335.566 45.688 336.91 43C338.254 40.264 339.958 38.272 342.022 37.024C344.134 35.776 346.318 35.152 348.574 35.152C351.07 35.152 353.11 35.512 354.694 36.232C356.326 36.952 357.406 37.648 357.934 38.32V35.944H370.966L371.686 40.264L370.894 44.584L370.966 69.928C370.966 74.056 370.15 77.416 368.518 80.008C366.934 82.6 364.678 84.496 361.75 85.696C358.87 86.896 355.462 87.496 351.526 87.496ZM353.974 60.424C354.838 60.424 355.63 60.304 356.35 60.064C357.07 59.824 357.598 59.608 357.934 59.416V45.952C357.742 45.808 357.382 45.664 356.854 45.52C356.326 45.376 355.606 45.304 354.694 45.304C352.822 45.304 351.334 45.904 350.23 47.104C349.126 48.304 348.574 50.248 348.574 52.936C348.574 55.576 349.102 57.496 350.158 58.696C351.214 59.848 352.486 60.424 353.974 60.424Z"/>
<path d="M394.81 70.72C388.954 70.72 384.418 69.328 381.202 66.544C377.986 63.76 376.378 59.248 376.378 53.008C376.378 46.72 377.986 42.208 381.202 39.472C384.418 36.688 388.954 35.296 394.81 35.296C400.81 35.296 405.346 36.688 408.418 39.472C411.538 42.208 413.098 46.72 413.098 53.008C413.098 59.248 411.538 63.76 408.418 66.544C405.346 69.328 400.81 70.72 394.81 70.72ZM394.81 61.36C396.778 61.36 398.146 60.64 398.914 59.2C399.682 57.712 400.066 55.648 400.066 53.008C400.066 50.32 399.682 48.256 398.914 46.816C398.146 45.376 396.778 44.656 394.81 44.656C392.794 44.656 391.378 45.376 390.562 46.816C389.794 48.256 389.41 50.32 389.41 53.008C389.41 55.648 389.794 57.712 390.562 59.2C391.378 60.64 392.794 61.36 394.81 61.36Z"/>
</mask>
<path d="M218.76 70V30.544L217.32 23.344L218.76 19.024H243.24C248.664 19.024 253.008 20.032 256.272 22.048C259.536 24.064 261.168 27.328 261.168 31.84C261.168 34.096 260.784 36.136 260.016 37.96C259.248 39.784 258.144 41.2 256.704 42.208C259.968 43.264 262.368 44.872 263.904 47.032C265.44 49.192 266.208 51.76 266.208 54.736C266.208 59.968 264.672 63.832 261.6 66.328C258.576 68.776 254.136 70 248.28 70H218.76ZM231.72 38.824H243.096C244.728 38.824 245.904 38.44 246.624 37.672C247.344 36.904 247.704 35.896 247.704 34.648C247.704 33.064 247.176 31.984 246.12 31.408C245.064 30.832 243.816 30.544 242.376 30.544H231.72V38.824ZM231.72 58.48H246.12C247.848 58.48 249.12 58.264 249.936 57.832C250.8 57.4 251.352 56.848 251.592 56.176C251.88 55.504 252.024 54.808 252.024 54.088C252.024 52.84 251.568 51.784 250.656 50.92C249.792 50.008 248.52 49.552 246.84 49.552H231.72V58.48Z" stroke="#EF5DA8" stroke-width="5" mask="url(#path-2-outside-1_2_14)"/>
<path d="M279.136 33.928L269.992 24.712L279.136 15.568L288.28 24.712L279.136 33.928ZM272.656 70V46.168L271.144 40.408L272.584 36.016H285.616V70H272.656Z" stroke="#EF5DA8" stroke-width="5" mask="url(#path-2-outside-1_2_14)"/>
<path d="M293.679 70V48.328L292.239 40.408L294.471 36.016H305.199V39.112L305.847 39.544C306.375 39.064 307.095 38.512 308.007 37.888C308.967 37.216 310.119 36.616 311.463 36.088C312.807 35.56 314.319 35.296 315.999 35.296C320.319 35.296 323.559 36.52 325.719 38.968C327.879 41.416 328.959 44.848 328.959 49.264V58.408L330.471 65.608L328.959 70H315.999V51.136C315.999 49.312 315.591 47.92 314.775 46.96C314.007 45.952 312.783 45.448 311.103 45.448L306.639 46.816V70H293.679Z" stroke="#EF5DA8" stroke-width="5" mask="url(#path-2-outside-1_2_14)"/>
<path d="M351.526 87.496C350.326 87.496 348.958 87.448 347.422 87.352C345.886 87.304 344.638 87.232 343.678 87.136L334.894 82.888L338.494 73.528L349.798 77.2C356.182 77.2 359.374 74.536 359.374 69.208V67.84L358.654 67.48C357.982 68.152 356.902 68.848 355.414 69.568C353.974 70.24 351.694 70.576 348.574 70.576C346.318 70.576 344.134 70.024 342.022 68.92C339.91 67.768 338.182 65.944 336.838 63.448C335.542 60.952 334.894 57.712 334.894 53.728C334.894 49.264 335.566 45.688 336.91 43C338.254 40.264 339.958 38.272 342.022 37.024C344.134 35.776 346.318 35.152 348.574 35.152C351.07 35.152 353.11 35.512 354.694 36.232C356.326 36.952 357.406 37.648 357.934 38.32V35.944H370.966L371.686 40.264L370.894 44.584L370.966 69.928C370.966 74.056 370.15 77.416 368.518 80.008C366.934 82.6 364.678 84.496 361.75 85.696C358.87 86.896 355.462 87.496 351.526 87.496ZM353.974 60.424C354.838 60.424 355.63 60.304 356.35 60.064C357.07 59.824 357.598 59.608 357.934 59.416V45.952C357.742 45.808 357.382 45.664 356.854 45.52C356.326 45.376 355.606 45.304 354.694 45.304C352.822 45.304 351.334 45.904 350.23 47.104C349.126 48.304 348.574 50.248 348.574 52.936C348.574 55.576 349.102 57.496 350.158 58.696C351.214 59.848 352.486 60.424 353.974 60.424Z" stroke="#EF5DA8" stroke-width="5" mask="url(#path-2-outside-1_2_14)"/>
<path d="M394.81 70.72C388.954 70.72 384.418 69.328 381.202 66.544C377.986 63.76 376.378 59.248 376.378 53.008C376.378 46.72 377.986 42.208 381.202 39.472C384.418 36.688 388.954 35.296 394.81 35.296C400.81 35.296 405.346 36.688 408.418 39.472C411.538 42.208 413.098 46.72 413.098 53.008C413.098 59.248 411.538 63.76 408.418 66.544C405.346 69.328 400.81 70.72 394.81 70.72ZM394.81 61.36C396.778 61.36 398.146 60.64 398.914 59.2C399.682 57.712 400.066 55.648 400.066 53.008C400.066 50.32 399.682 48.256 398.914 46.816C398.146 45.376 396.778 44.656 394.81 44.656C392.794 44.656 391.378 45.376 390.562 46.816C389.794 48.256 389.41 50.32 389.41 53.008C389.41 55.648 389.794 57.712 390.562 59.2C391.378 60.64 392.794 61.36 394.81 61.36Z" stroke="#EF5DA8" stroke-width="5" mask="url(#path-2-outside-1_2_14)"/>
</svg>
